<svg width="50" height="50" viewBox="0 0 50 50" fill="none" xmlns="http://www.w3.org/2000/svg">
<path d="M28.3239 26.8999C26.0503 25.0697 24.1231 23.3519 22.7955 22.125C22.3381 24.0835 21.7044 26.6258 21.1962 28.6126C23.5224 27.8086 25.9331 27.2741 28.381 27.0196L28.2232 26.9029L28.3239 26.8999Z" fill="#D1D1D0"/>
<path d="M47.0048 0.599854H3.76101C3.39073 0.599743 3.02405 0.672594 2.68194 0.814244C2.33982 0.955894 2.02896 1.16357 1.76713 1.4254C1.5053 1.68723 1.29763 1.99808 1.15598 2.3402C1.01433 2.68232 0.941478 3.049 0.941589 3.41928V46.6673C0.941478 47.0375 1.01433 47.4042 1.15598 47.7463C1.29763 48.0885 1.5053 48.3993 1.76713 48.6611C2.02896 48.923 2.33982 49.1306 2.68194 49.2723C3.02405 49.4139 3.39073 49.4868 3.76101 49.4867H47.0048C47.3752 49.4869 47.7421 49.4142 48.0845 49.2726C48.4268 49.131 48.738 48.9234 49.0001 48.6616C49.2622 48.3998 49.4702 48.0889 49.6122 47.7467C49.7542 47.4045 49.8273 47.0377 49.8276 46.6673V3.41928C49.8273 3.0488 49.7542 2.682 49.6122 2.33981C49.4702 1.99762 49.2622 1.68675 49.0001 1.42494C48.738 1.16314 48.4268 0.95552 48.0845 0.813951C47.7421 0.672382 47.3752 0.599632 47.0048 0.599854ZM41.2085 30.6624C40.8112 32.2279 39.7451 33.1193 38.2787 33.1193C37.6275 33.1053 36.9869 32.9517 36.4002 32.6687L36.3244 32.6264C34.7066 31.614 33.0443 30.4784 31.3744 29.2485C28.296 29.4093 23.9501 29.9487 20.4364 31.5949L20.2439 32.3362C19.0986 36.5556 16.8537 37.0083 15.9416 37.0083C15.8049 37.0105 15.6685 36.9979 15.5346 36.9706L15.4076 36.9359C15.1268 36.8441 14.8691 36.6925 14.6524 36.4916C14.4357 36.2906 14.2651 36.0452 14.1524 35.772C13.7014 34.672 14.2691 33.3782 14.3889 33.129L14.575 32.8451C15.6432 31.654 16.9099 30.6572 18.3189 29.8992C19.0064 27.2215 20.1893 22.56 20.7127 20.1378C20.1039 19.5417 19.7476 19.1728 19.6719 19.0941C18.2402 17.5012 17.7071 16.0948 18.0667 14.8963C18.2181 14.4508 18.4769 14.0494 18.8201 13.7277C19.1634 13.4059 19.5806 13.1735 20.0349 13.0512C20.4682 12.9248 20.9278 12.9198 21.3637 13.0365C21.7997 13.1532 22.1953 13.3873 22.5074 13.7133C23.3591 14.65 23.665 16.454 23.4158 19.0814C23.4094 19.1415 23.4001 19.2138 23.3874 19.2929C26.1646 21.9379 29.0879 24.425 32.1435 26.7426C32.7333 26.7235 33.3282 26.7108 33.9099 26.7108C35.8561 26.7108 37.1617 26.8213 37.4012 26.8433C37.4295 26.8433 39.4515 26.9 40.5743 28.2183C40.8425 28.5369 41.0398 28.909 41.1529 29.3098C41.2661 29.7106 41.2925 30.1309 41.2305 30.5427L41.2085 30.6624Z" fill="#D1D1D0"/>
</svg>
