<svg width="140" height="66" viewBox="0 0 140 66" fill="none" xmlns="http://www.w3.org/2000/svg">
<g clip-path="url(#clip0_48_3455)">
<path d="M32.731 0C24.0951 0.000514837 15.8093 3.41362 9.67863 9.4958C3.54794 15.578 0.0691207 23.8364 0 32.472H32.42V65.466C32.52 65.466 32.626 65.474 32.73 65.474C41.4124 65.474 49.7392 62.0249 55.8786 55.8856C62.0179 49.7462 65.467 41.4194 65.467 32.737C65.467 24.0546 62.0179 15.7278 55.8786 9.58844C49.7392 3.44906 41.4124 2.58755e-07 32.73 0H32.731Z" fill="white"/>
<path d="M98.4778 61.422H96.8258V57.276H96.6838C94.9398 57.276 93.1968 57.276 91.4548 57.276C91.0542 57.2872 90.657 57.1989 90.2988 57.019C89.9015 56.7933 89.5743 56.4623 89.3532 56.0624C89.1321 55.6626 89.0257 55.2094 89.0458 54.753C89.0198 54.207 89.0368 53.653 89.0358 53.111C89.0358 52.368 89.0258 51.625 89.0418 50.884C89.0238 50.493 89.0908 50.1028 89.2383 49.7403C89.3857 49.3777 89.61 49.0514 89.8958 48.784C90.2203 48.502 90.6241 48.3273 91.0518 48.284C91.2658 48.2628 91.4808 48.2531 91.6958 48.255H98.4808L98.4778 61.422ZM96.8148 55.703V49.827H96.6838C95.6331 49.827 94.5831 49.827 93.5338 49.827C92.9518 49.827 92.3718 49.82 91.7918 49.827C91.6239 49.84 91.4604 49.8864 91.3108 49.9637C91.1613 50.041 91.0287 50.1475 90.921 50.2769C90.8133 50.4063 90.7327 50.5561 90.6839 50.7172C90.635 50.8783 90.619 51.0476 90.6368 51.215C90.6235 52.2463 90.6235 53.2797 90.6368 54.315C90.6145 54.5895 90.68 54.864 90.8237 55.0989C90.9675 55.3338 91.1822 55.517 91.4368 55.622C91.6086 55.6758 91.7878 55.7018 91.9678 55.699C93.5448 55.705 95.1218 55.699 96.6988 55.699L96.8148 55.703Z" fill="white"/>
<path d="M139.658 55.799V57.277H132.538C131.957 57.293 131.39 57.0923 130.949 56.714C130.673 56.4662 130.454 56.1624 130.305 55.8228C130.156 55.4832 130.082 55.1157 130.087 54.745C130.061 54.014 130.078 53.28 130.077 52.545C130.077 52.016 130.077 51.486 130.077 50.956C130.03 50.413 130.162 49.8694 130.452 49.4082C130.743 48.9469 131.176 48.5933 131.686 48.401C131.963 48.3096 132.253 48.2626 132.545 48.262C134.145 48.249 135.751 48.255 137.353 48.256C137.902 48.2427 138.439 48.4225 138.87 48.764C139.175 49.0233 139.417 49.3487 139.578 49.7155C139.738 50.0823 139.813 50.4809 139.797 50.881C139.816 51.804 139.803 52.728 139.806 53.651C139.806 53.732 139.786 53.77 139.719 53.763C139.686 53.7607 139.652 53.7607 139.619 53.763H131.875C131.723 53.763 131.721 53.763 131.723 53.953C131.723 54.162 131.723 54.371 131.736 54.577C131.724 54.8586 131.815 55.1348 131.99 55.3552C132.166 55.5756 132.415 55.7253 132.692 55.777C132.802 55.7899 132.913 55.7962 133.024 55.796H139.65L139.658 55.799ZM138.17 52.442C138.157 51.888 138.17 51.351 138.124 50.824C138.121 50.5827 138.039 50.3491 137.89 50.1596C137.74 49.9702 137.532 49.8356 137.298 49.777C137.164 49.75 137.028 49.7372 136.892 49.739C135.703 49.739 134.513 49.739 133.323 49.739C133.133 49.739 132.943 49.739 132.753 49.751C132.486 49.7845 132.24 49.9116 132.059 50.1096C131.877 50.3076 131.772 50.5636 131.762 50.832C131.742 50.9705 131.732 51.1102 131.733 51.25C131.733 51.589 131.733 51.929 131.733 52.269C131.733 52.443 131.733 52.444 131.875 52.444H138.175L138.17 52.442Z" fill="white"/>
<path d="M119.883 48.254V57.262C119.856 57.2691 119.828 57.2735 119.8 57.275C117.419 57.275 115.039 57.282 112.658 57.268C112.361 57.2687 112.067 57.2046 111.797 57.08C111.527 56.9555 111.288 56.7736 111.096 56.547C110.656 56.0185 110.426 55.347 110.449 54.66C110.434 53.402 110.432 52.143 110.449 50.885C110.407 50.3524 110.54 49.8207 110.829 49.3713C111.118 48.922 111.547 48.5797 112.049 48.397C112.331 48.3111 112.624 48.2653 112.919 48.261C115.203 48.251 117.487 48.255 119.771 48.255L119.883 48.254ZM118.228 49.834C118.196 49.834 118.174 49.828 118.153 49.828C116.512 49.828 114.871 49.828 113.229 49.828C112.499 49.828 112.047 50.41 112.039 51.328C112.031 52.2874 112.031 53.2467 112.039 54.206C112.046 55.111 112.493 55.687 113.213 55.693C114.861 55.705 116.513 55.699 118.159 55.699C118.182 55.6968 118.206 55.6924 118.229 55.686L118.228 49.834Z" fill="white"/>
<path d="M87.6898 50.874H87.5768C87.1038 50.874 86.6309 50.874 86.1579 50.874C86.0709 50.874 86.0428 50.846 86.0378 50.733C86.0455 50.4864 85.9638 50.2454 85.8078 50.0543C85.6518 49.8632 85.432 49.7348 85.1888 49.693C85.0717 49.6746 84.9534 49.6649 84.8349 49.664C83.5839 49.664 82.3348 49.664 81.0818 49.664C80.8835 49.6647 80.6864 49.6947 80.4968 49.753C80.2959 49.8591 80.1277 50.0181 80.0103 50.2127C79.893 50.4073 79.831 50.6303 79.831 50.8575C79.831 51.0848 79.893 51.3077 80.0103 51.5024C80.1277 51.697 80.2959 51.8559 80.4968 51.962C80.6931 52.0226 80.8975 52.0526 81.1028 52.051C82.5358 52.058 83.9708 52.051 85.4028 52.051C85.906 52.0352 86.4027 52.1669 86.8318 52.43C87.1535 52.6473 87.4164 52.9408 87.5972 53.2844C87.7779 53.6279 87.8709 54.0108 87.8678 54.399C87.9116 54.8715 87.8582 55.348 87.7108 55.799C87.6182 56.088 87.4625 56.3527 87.2549 56.5741C87.0474 56.7955 86.7932 56.9679 86.5108 57.079C86.2058 57.2054 85.879 57.2706 85.5488 57.271C83.8718 57.271 82.1929 57.284 80.5159 57.264C80.1757 57.2651 79.8398 57.1873 79.5348 57.0367C79.2298 56.8861 78.9638 56.6668 78.7578 56.396C78.4107 55.9416 78.2202 55.3869 78.2148 54.815C78.2148 54.763 78.2148 54.709 78.2148 54.648H79.8629C79.8689 54.677 79.8748 54.706 79.8768 54.735C79.9358 55.369 80.2109 55.735 80.7099 55.829C80.8299 55.8516 80.9517 55.8626 81.0739 55.862C82.3739 55.862 83.6738 55.868 84.9738 55.862C85.1721 55.8629 85.3694 55.8335 85.5589 55.775C85.7754 55.6947 85.959 55.5443 86.0802 55.3477C86.2014 55.1511 86.2534 54.9196 86.2278 54.69C86.2572 54.4575 86.2105 54.2217 86.0946 54.0179C85.9786 53.8142 85.7998 53.6535 85.5849 53.56C85.3759 53.4924 85.1575 53.4587 84.9378 53.46C83.5148 53.45 82.0918 53.453 80.6678 53.46C80.2724 53.4723 79.8789 53.4011 79.5128 53.251C79.0612 53.0331 78.6894 52.6788 78.4502 52.238C78.211 51.7973 78.1164 51.2925 78.1799 50.795C78.161 50.446 78.2139 50.0969 78.3351 49.7691C78.4564 49.4413 78.6434 49.1418 78.8848 48.889C79.1957 48.5866 79.5932 48.3888 80.0218 48.323C80.2701 48.2852 80.5208 48.2661 80.7718 48.266C82.2598 48.266 83.7489 48.266 85.2359 48.266C85.763 48.2478 86.2821 48.3992 86.7168 48.698C87.0382 48.9439 87.2948 49.2643 87.4647 49.6316C87.6346 49.9988 87.7125 50.4019 87.6918 50.806C87.6958 50.812 87.6928 50.829 87.6898 50.874Z" fill="white"/>
<path d="M109.145 57.2701C109.119 57.2701 109.097 57.2761 109.077 57.2761C106.772 57.2761 104.466 57.276 102.16 57.269C101.876 57.2708 101.595 57.2143 101.333 57.1031C101.072 56.9918 100.836 56.828 100.641 56.622C100.144 56.0745 99.8855 55.3523 99.9209 54.614C99.9109 53.098 99.9209 51.5801 99.9209 50.0641V48.264H101.582V48.4341C101.582 50.3214 101.582 52.2094 101.582 54.0981C101.58 54.2913 101.598 54.4842 101.634 54.674C101.664 54.9458 101.79 55.198 101.989 55.3854C102.189 55.5728 102.448 55.6833 102.721 55.6971C103.145 55.7091 103.567 55.704 103.99 55.704H107.49V48.2661H109.145V57.2701Z" fill="white"/>
<path d="M121.334 48.254H121.449C123.227 48.254 125.005 48.254 126.783 48.254C127.187 48.2433 127.588 48.3337 127.949 48.517C128.336 48.7422 128.656 49.0673 128.875 49.4584C129.093 49.8494 129.203 50.2921 129.192 50.74C129.211 51.046 129.201 51.355 129.199 51.663C129.199 51.695 129.16 51.753 129.14 51.754C128.64 51.754 128.13 51.754 127.607 51.754C127.607 51.577 127.607 51.412 127.607 51.246C127.607 50.9351 127.523 50.6299 127.366 50.362C127.278 50.2041 127.149 50.0722 126.994 49.9795C126.839 49.8868 126.662 49.8366 126.481 49.834C125.329 49.819 124.181 49.827 123.028 49.825C123.012 49.828 122.997 49.832 122.983 49.837V57.264H121.335L121.334 48.254Z" fill="white"/>
<path d="M106.346 35.043H98.2869C98.2348 35.5151 98.2864 35.9929 98.4379 36.443C98.5097 36.6203 98.6299 36.7739 98.7848 36.8862C98.9397 36.9985 99.123 37.065 99.3139 37.078C99.407 37.086 99.5005 37.0891 99.5939 37.087H106.067C106.216 37.087 106.216 37.087 106.216 37.28V38.573H99.1009C98.556 38.5859 98.0233 38.4111 97.5919 38.078C97.28 37.8244 97.0315 37.5016 96.8662 37.1351C96.7009 36.7686 96.6235 36.3687 96.6399 35.967C96.6209 34.667 96.6109 33.359 96.6489 32.056C96.6284 31.5786 96.7491 31.1058 96.996 30.6966C97.2429 30.2875 97.605 29.9603 98.0369 29.756C98.3597 29.6035 98.713 29.5266 99.0699 29.531C100.689 29.531 102.309 29.531 103.93 29.531C104.501 29.5211 105.055 29.7219 105.487 30.095C105.755 30.3311 105.97 30.6217 106.117 30.9475C106.264 31.2732 106.34 31.6266 106.339 31.984C106.374 32.984 106.354 33.984 106.356 34.984C106.354 35.0039 106.351 35.0237 106.346 35.043ZM98.2729 33.724H104.555C104.58 33.7226 104.605 33.7226 104.63 33.724C104.687 33.73 104.713 33.704 104.713 33.624C104.713 33.208 104.722 32.791 104.706 32.375C104.725 32.1291 104.675 31.8829 104.562 31.6635C104.45 31.4442 104.279 31.2602 104.068 31.132C103.877 31.0424 103.667 31.0018 103.457 31.014H99.7569C99.6099 31.014 99.4619 31.014 99.3159 31.023C99.0422 31.052 98.7888 31.181 98.6043 31.3853C98.4198 31.5896 98.3171 31.8547 98.3159 32.13C98.2709 32.65 98.2879 33.181 98.2769 33.725L98.2729 33.724Z" fill="white"/>
<path d="M87.8488 31.196V38.564H86.1228V26.647C86.1608 26.647 86.1958 26.641 86.2298 26.641C86.7298 26.641 87.2298 26.641 87.7238 26.641C87.8238 26.641 87.8518 26.67 87.8518 26.798C87.8458 27.648 87.8518 28.498 87.8518 29.351V29.532H92.9298C93.443 29.5161 93.9473 29.6685 94.3658 29.966C94.6487 30.187 94.8808 30.4664 95.0461 30.7851C95.2114 31.1038 95.3061 31.4544 95.3238 31.813C95.3426 32.0064 95.3513 32.2007 95.3498 32.395C95.3498 34.4017 95.3498 36.407 95.3498 38.411V38.566H93.6188V38.398C93.6188 36.5367 93.6188 34.6763 93.6188 32.817C93.6218 32.5881 93.5966 32.3597 93.5438 32.137C93.4996 31.8871 93.3722 31.6594 93.1823 31.4909C92.9924 31.3225 92.7512 31.2231 92.4978 31.209C92.4157 31.2016 92.3332 31.1986 92.2508 31.2C90.8348 31.2 89.4188 31.2 88.0028 31.2L87.8488 31.196Z" fill="white"/>
<path d="M84.6859 29.526V29.699C84.6859 30.088 84.6859 30.477 84.6859 30.867C84.6859 30.986 84.6609 31.019 84.5659 31.018C83.4979 31.018 82.4299 31.018 81.3659 31.018H81.2149C81.2149 31.067 81.2079 31.111 81.2079 31.154C81.2079 32.5934 81.2079 34.033 81.2079 35.473C81.1816 35.725 81.2209 35.9796 81.322 36.2119C81.4231 36.4442 81.5826 36.6465 81.7849 36.799C81.9785 36.927 82.2058 36.9945 82.4379 36.993C83.1689 36.993 83.8999 36.993 84.6309 36.993C84.8309 36.993 84.8309 36.993 84.8309 37.254V38.563C84.7819 38.563 84.7469 38.569 84.7119 38.569C83.7879 38.569 82.8632 38.569 81.9379 38.569C81.4472 38.5823 80.9653 38.4379 80.5629 38.157C80.2656 37.9298 80.0227 37.6392 79.8516 37.3065C79.6805 36.9737 79.5857 36.607 79.5739 36.233C79.5569 36.049 79.5518 35.862 79.5518 35.677C79.5518 34.1784 79.5518 32.6784 79.5518 31.177C79.5518 31.036 79.5218 31.003 79.4138 31.004C79.0438 31.013 78.6759 31.004 78.3059 31.004H78.1829V29.52H79.5469V26.639H81.2009V29.514L84.6859 29.526Z" fill="white"/>
<path d="M139.29 17.52H139.171C136.869 17.52 134.567 17.52 132.265 17.52C131.755 17.5356 131.254 17.3855 130.837 17.092C130.553 16.8721 130.321 16.594 130.154 16.2764C129.987 15.9588 129.891 15.6091 129.871 15.251C129.853 15.1033 129.845 14.9547 129.845 14.806C129.845 13.583 129.845 12.361 129.845 11.14C129.834 10.5879 129.972 10.0431 130.245 9.56299C130.396 9.29705 130.603 9.06756 130.853 8.89078C131.103 8.71399 131.388 8.59422 131.689 8.53998C131.89 8.49998 132.095 8.48087 132.3 8.48297C134.033 8.4783 135.767 8.4783 137.5 8.48297H137.638V5.60498H139.296L139.29 17.52ZM137.632 10.056H132.832C132.757 10.056 132.681 10.056 132.606 10.062C132.374 10.072 132.151 10.1529 131.967 10.2939C131.783 10.4348 131.646 10.6289 131.576 10.85C131.485 11.1091 131.444 11.3827 131.454 11.657C131.454 12.535 131.454 13.4126 131.454 14.29C131.453 14.4165 131.458 14.543 131.47 14.669C131.467 14.9141 131.536 15.1547 131.666 15.362C131.797 15.5693 131.985 15.7346 132.207 15.838C132.386 15.9064 132.576 15.9403 132.767 15.938C134.351 15.947 135.937 15.944 137.521 15.938C137.559 15.938 137.596 15.938 137.637 15.931L137.632 10.056Z" fill="white"/>
<path d="M87.403 8.48596V17.52H87.28C84.9773 17.52 82.6753 17.52 80.3739 17.52C79.8642 17.5352 79.3636 17.3827 78.949 17.086C78.6718 16.8685 78.4437 16.595 78.2796 16.2832C78.1155 15.9714 78.0192 15.6286 77.9969 15.277C77.9813 15.1653 77.973 15.0527 77.972 14.94C77.972 13.64 77.956 12.34 77.972 11.04C77.9476 10.5585 78.0645 10.0804 78.3082 9.66449C78.552 9.24857 78.912 8.91298 79.3439 8.69897C79.6721 8.5521 80.0275 8.47608 80.3869 8.47595H87.3029C87.3379 8.47995 87.365 8.48296 87.403 8.48596ZM83.175 15.944C83.992 15.944 84.81 15.944 85.627 15.944C85.727 15.944 85.759 15.911 85.759 15.78C85.759 13.9246 85.759 12.0696 85.759 10.215C85.759 10.084 85.731 10.05 85.628 10.05C84.05 10.05 82.473 10.05 80.896 10.05C80.7773 10.0488 80.6588 10.0585 80.542 10.079C80.2494 10.1472 79.9908 10.3175 79.8124 10.5592C79.6341 10.8009 79.5478 11.0983 79.569 11.398C79.556 12.46 79.559 13.525 79.569 14.587C79.5529 14.8474 79.6164 15.1065 79.7511 15.3299C79.8858 15.5533 80.0852 15.7305 80.323 15.838C80.4997 15.902 80.686 15.9358 80.8739 15.938C81.6409 15.95 82.408 15.941 83.175 15.941V15.944Z" fill="white"/>
<path d="M102.469 17.5179C101.669 17.5179 100.863 17.5179 100.059 17.5179C99.4775 17.5298 98.9122 17.326 98.4719 16.9459C98.2017 16.706 97.9859 16.4109 97.8393 16.0806C97.6927 15.7503 97.6186 15.3923 97.6219 15.0309C97.5919 14.0369 97.605 13.0409 97.606 12.0449C97.606 11.6239 97.5989 11.201 97.6379 10.786C97.6546 10.3866 97.7696 9.99744 97.9728 9.65323C98.1761 9.30902 98.4612 9.02036 98.8029 8.81293C99.1475 8.60109 99.5434 8.48735 99.9479 8.48395C101.637 8.47795 103.324 8.47495 105.013 8.48395C105.563 8.48733 106.093 8.69386 106.501 9.06394C106.985 9.51276 107.278 10.1309 107.319 10.79C107.337 10.9834 107.346 11.1776 107.344 11.372C107.344 12.517 107.35 13.6609 107.344 14.8059C107.396 15.3506 107.266 15.8971 106.976 16.3608C106.686 16.8246 106.25 17.1796 105.738 17.3709C105.453 17.444 105.162 17.4925 104.869 17.5159H102.469V17.5179ZM102.469 15.9439C103.183 15.9439 103.897 15.9559 104.61 15.9439C105.245 15.9309 105.666 15.4099 105.676 14.6109C105.691 13.5429 105.689 12.474 105.676 11.411C105.709 11.1287 105.641 10.8439 105.485 10.6063C105.329 10.3687 105.095 10.1934 104.823 10.1109C104.693 10.0831 104.561 10.0703 104.428 10.0729C103.32 10.0729 102.211 10.0729 101.104 10.0729C100.849 10.0729 100.595 10.067 100.339 10.079C100.183 10.0928 100.031 10.1376 99.8927 10.2107C99.7542 10.2839 99.6317 10.3839 99.5322 10.5049C99.4328 10.6259 99.3585 10.7656 99.3136 10.9156C99.2688 11.0657 99.2543 11.2232 99.2709 11.3789C99.2589 12.4789 99.2619 13.5679 99.2709 14.6639C99.2502 14.9198 99.3103 15.1757 99.4427 15.3957C99.5751 15.6156 99.7732 15.7885 100.009 15.8899C100.163 15.9393 100.324 15.964 100.486 15.9629C101.148 15.9489 101.812 15.941 102.471 15.941L102.469 15.9439Z" fill="white"/>
<path d="M108.642 8.48801H110.309V8.66803C110.309 10.56 110.309 12.452 110.309 14.343C110.308 14.5673 110.334 14.7909 110.386 15.009C110.427 15.2328 110.535 15.4388 110.695 15.5996C110.856 15.7604 111.062 15.8684 111.286 15.909C111.399 15.9306 111.513 15.9407 111.628 15.939C113.116 15.939 114.604 15.939 116.092 15.939C116.198 15.939 116.223 15.9 116.223 15.772C116.223 13.4 116.223 11.0283 116.223 8.65701V8.47803H117.877V17.503C117.845 17.503 117.807 17.509 117.77 17.509C115.529 17.509 113.287 17.509 111.046 17.509C110.571 17.5223 110.104 17.3896 109.707 17.129C109.354 16.8676 109.073 16.5217 108.888 16.1232C108.704 15.7247 108.622 15.2862 108.651 14.848C108.635 14.12 108.645 13.391 108.645 12.662V8.47803L108.642 8.48801Z" fill="white"/>
<path d="M120.967 17.512H119.322V8.48003H126.122C126.627 8.46422 127.124 8.61185 127.539 8.90102C127.823 9.1198 128.057 9.39718 128.225 9.71432C128.392 10.0315 128.489 10.3809 128.51 10.739C128.531 10.9323 128.54 11.1266 128.539 11.321C128.539 13.335 128.539 15.3487 128.539 17.362V17.509H126.897V11.648C126.923 11.2405 126.811 10.8362 126.579 10.5C126.479 10.3636 126.349 10.2528 126.198 10.1766C126.047 10.1005 125.88 10.0612 125.711 10.062C125.111 10.05 124.5 10.056 123.893 10.056C122.962 10.056 122.029 10.056 121.093 10.056C120.987 10.056 120.962 10.095 120.962 10.223C120.962 12.585 120.962 14.9474 120.962 17.31L120.967 17.512Z" fill="white"/>
<path d="M90.494 17.511H88.853V8.48004H94.318C94.8277 8.46481 95.3283 8.61727 95.743 8.91403C96.0223 9.12909 96.2515 9.40223 96.4148 9.71457C96.5782 10.0269 96.6717 10.371 96.689 10.723C96.731 11.134 96.724 11.551 96.738 11.976H95.13C95.13 11.824 95.13 11.676 95.13 11.536C95.111 10.642 94.676 10.077 93.967 10.062C93.167 10.045 92.376 10.056 91.579 10.055C91.264 10.055 90.948 10.055 90.633 10.055C90.533 10.055 90.5 10.087 90.5 10.219C90.5047 11.9484 90.5047 13.6767 90.5 15.404V17.373C90.5 17.415 90.497 17.459 90.494 17.511Z" fill="white"/>
</g>
<defs>
<clipPath id="clip0_48_3455">
<rect width="139.814" height="65.474" fill="white"/>
</clipPath>
</defs>
</svg>
