<svg width="49" height="50" viewBox="0 0 49 50" fill="none" xmlns="http://www.w3.org/2000/svg">
<path d="M2.30287 14.9885C3.23019 16.0259 4.08687 16.9203 4.87702 17.8702C7.88157 21.5038 10.8389 25.1722 13.8668 28.7864C14.68 29.6611 15.54 30.491 16.4431 31.2724L23.3183 23.2572L7.63886 7.32598C8.21697 6.7479 8.84533 6.22245 9.51649 5.75583C9.74319 5.62266 10.3576 5.88901 10.6196 6.15125C13.4718 8.97422 16.2845 11.8367 19.1125 14.6831C21.2796 16.864 23.4472 19.04 25.6575 21.2571L29.8826 18.0922C29.058 17.1178 28.179 16.1909 27.2497 15.3161C23.055 11.7738 18.8078 8.28903 14.5831 4.78497C14.1096 4.38956 13.648 3.99003 13.1276 3.55187C20.5959 -0.990461 33.5134 -0.900444 42.1587 8.15997C46.3778 12.6021 48.7776 18.4673 48.8835 24.5954C48.9893 30.7234 46.7934 36.6681 42.7302 41.2535C38.667 45.839 33.0323 48.7312 26.9407 49.3582C20.8491 49.9853 14.7442 48.3013 9.83354 44.6396C-0.408039 36.9968 -2.14892 23.7159 2.30287 14.9885ZM30.6379 20.9965C26.3279 24.061 22.5578 27.8223 19.4821 32.1261C22.6119 33.1208 25.5536 34.076 28.515 34.9688C28.6924 34.9695 28.8679 34.9336 29.0308 34.8634C29.1937 34.7931 29.3403 34.6901 29.4617 34.5606C30.6937 33.3744 31.9012 32.1632 33.0843 30.9271C33.2096 30.8029 33.3072 30.6536 33.3709 30.489C33.4346 30.3244 33.4629 30.1482 33.4539 29.9719C32.5705 27.0387 31.6276 24.1229 30.6379 20.9965ZM31.8974 36.0609C32.9652 36.9693 33.5401 38.3121 34.9841 37.9324C35.3126 37.8166 35.6116 37.63 35.86 37.3858C36.1084 37.1415 36.3001 36.8455 36.4215 36.5188C36.8322 35.0781 35.4983 34.483 34.5044 33.3629L31.8974 36.0609Z" fill="#D1D1D0"/>
</svg>
