<svg width="47" height="53" viewBox="0 0 47 53" fill="none" xmlns="http://www.w3.org/2000/svg">
<path d="M44.8403 0.660904H2.63117C2.39445 0.660733 2.16035 0.710683 1.94405 0.807513C1.72774 0.904343 1.53408 1.04589 1.37563 1.22296C1.21718 1.40003 1.09748 1.60868 1.0243 1.83535C0.951115 2.06202 0.926092 2.30165 0.950848 2.53869L4.80767 46.0387C4.88125 46.5747 5.10201 47.0794 5.44509 47.4958C5.78817 47.9123 6.23994 48.224 6.74949 48.3959L21.9479 52.6443C23.1183 52.919 24.3357 52.9203 25.5066 52.6479L40.7233 48.4031C41.233 48.2345 41.6854 47.925 42.0287 47.51C42.3721 47.095 42.5926 46.5911 42.6652 46.0559L46.5207 2.53869C46.5463 2.30148 46.5219 2.06151 46.449 1.83446C46.3761 1.60742 46.2565 1.39842 46.0979 1.22116C45.9392 1.0439 45.7452 0.90236 45.5285 0.805813C45.3118 0.709266 45.0773 0.659886 44.8403 0.660904ZM37.5187 16.361L37.5053 16.3745L37.4919 16.3678L25.5853 21.2778C25.5028 21.3115 25.4345 21.3731 25.3923 21.4519C25.35 21.5308 25.3364 21.622 25.3537 21.7099C25.3697 21.7984 25.4161 21.8784 25.4847 21.936C25.5534 21.9936 25.6399 22.0251 25.7292 22.025H34.9877C35.2317 22.0244 35.473 22.0752 35.6963 22.1742C35.9196 22.2732 36.1198 22.4182 36.2841 22.5997C36.4468 22.7821 36.5694 22.997 36.644 23.2304C36.7185 23.4638 36.7433 23.7104 36.7168 23.9541L35.2711 37.6243C35.2361 37.9525 35.1095 38.264 34.906 38.5228C34.7024 38.7816 34.4303 38.9771 34.121 39.0866L24.2907 42.5735C23.9204 42.7036 23.5172 42.7036 23.1468 42.5735L13.3604 39.1631C13.0494 39.0543 12.7756 38.8587 12.5707 38.5993C12.3659 38.3399 12.2384 38.0272 12.203 37.6976L11.5459 31.5071C11.5286 31.3459 11.5452 31.1828 11.5945 31.0285C11.6439 30.8742 11.725 30.7321 11.8325 30.6114C11.9394 30.4912 12.0703 30.3951 12.2167 30.3293C12.363 30.2635 12.5215 30.2296 12.6818 30.2297H15.405C15.6874 30.2295 15.9599 30.3346 16.1698 30.5248C16.3797 30.715 16.5122 30.9767 16.5418 31.2595L16.9441 35.0655L23.719 37.4361L30.5274 35.0452L31.3593 27.1529H12.1163C11.8345 27.1528 11.5627 27.048 11.3529 26.8585C11.1431 26.669 11.0102 26.4083 10.9796 26.1262L10.6139 22.7829C10.5868 22.5346 10.6404 22.284 10.7668 22.069C10.8932 21.854 11.0855 21.6861 11.3148 21.5906L23.63 16.4785C23.6985 16.4502 23.755 16.3988 23.7899 16.3331C23.8248 16.2674 23.8359 16.1915 23.8214 16.1184C23.8064 16.0459 23.7672 15.9809 23.7102 15.9341C23.6532 15.8874 23.5819 15.8619 23.5084 15.8619H10.5433C10.3547 15.8629 10.1725 15.7933 10.0321 15.6666C9.89165 15.5399 9.803 15.3652 9.78337 15.1764L9.40788 11.5797C9.39633 11.4732 9.40742 11.3654 9.4404 11.2635C9.47339 11.1616 9.52751 11.0679 9.5992 10.9887C9.67062 10.9084 9.75796 10.8441 9.85559 10.7999C9.95322 10.7558 10.059 10.7327 10.166 10.7322H37.2997C37.4067 10.7327 37.5125 10.7558 37.6101 10.7999C37.7077 10.8441 37.7951 10.9084 37.8665 10.9887C37.9378 11.0695 37.9917 11.1644 38.0247 11.2673C38.0576 11.3702 38.0689 11.4789 38.0578 11.5864L37.5187 16.361Z" fill="#D1D1D0"/>
</svg>
