<svg width="34" height="50" viewBox="0 0 34 50" fill="none" xmlns="http://www.w3.org/2000/svg">
<g clip-path="url(#clip0_30_1150)">
<path d="M9.10142 49.4865C13.599 49.4865 17.2492 45.8363 17.2492 41.3387V33.1909H9.10142C4.60383 33.1909 0.953613 36.8411 0.953613 41.3387C0.953613 45.8363 4.60383 49.4865 9.10142 49.4865Z" fill="#D9D9D9"/>
<path d="M0.953613 25.0431C0.953613 20.5455 4.60383 16.8953 9.10142 16.8953H17.2492V33.1909H9.10142C4.60383 33.1909 0.953613 29.5407 0.953613 25.0431Z" fill="#EBEBEB"/>
<path d="M0.953552 8.74766C0.953552 4.25007 4.60377 0.599854 9.10136 0.599854H17.2492V16.8955H9.10136C4.60377 16.8955 0.953552 13.2452 0.953552 8.74766Z" fill="#D1D1D0"/>
<path d="M17.2493 0.599854H25.3971C29.8947 0.599854 33.5449 4.25007 33.5449 8.74766C33.5449 13.2452 29.8947 16.8955 25.3971 16.8955H17.2493V0.599854Z" fill="#EBEBEB"/>
<path d="M33.5449 25.0431C33.5449 29.5407 29.8947 33.1909 25.3971 33.1909C20.8995 33.1909 17.2493 29.5407 17.2493 25.0431C17.2493 20.5455 20.8995 16.8953 25.3971 16.8953C29.8947 16.8953 33.5449 20.5455 33.5449 25.0431Z" fill="#D1D1D0"/>
</g>
<defs>
<clipPath id="clip0_30_1150">
<rect width="32.5977" height="48.8868" fill="white" transform="translate(0.950317 0.599854)"/>
</clipPath>
</defs>
</svg>
