<svg width="93" height="106" viewBox="0 0 93 106" fill="current" xmlns="http://www.w3.org/2000/svg">
<path d="M92.7852 0.0321568L82.8949 7.43537L72.9484 30.6258H64.95L61.8093 23.82H63.8613C67.6147 23.82 70.6671 20.8001 70.6671 17.0467V10.2084H74.07V0H63.8613V10.2084H67.2642V17.0467C67.2642 18.9218 65.7381 20.4171 63.8613 20.4171H60.239L55.8899 11.0083L61.0997 8.41186L44.0412 1.10584L40.0309 15.1409C39.922 6.79044 33.1044 0.0307276 24.7282 0.0307276C16.2842 0.0307276 9.41551 6.89942 9.41551 15.3434C9.41551 20.446 11.9998 25.232 16.2213 28.0615V30.6254H12.1006L11.8351 32.0207C11.0083 36.31 10.9315 40.7184 11.6072 45.1149L0 65.8042L12.8184 68.7323V90.1752H29.8326V105.488H70.6667V81.7787C82.5765 73.3532 89.3788 59.8066 89.3687 45.3547L89.3723 39.148C89.3723 36.8085 89.1562 34.4046 88.7206 32.036L88.4687 30.6254H85.1287L92.7852 12.2825V0.0321568ZM67.2638 6.83797V3.43506H70.6667V6.83797H67.2638ZM61.2019 30.6254H54.7484L51.6553 23.8196H58.0612L61.2019 30.6254ZM46.2497 5.75928L53.013 8.65697L51.4169 9.43945L56.4906 20.4171H50.1085L45.9621 11.3163L44.4393 12.0852L46.2497 5.75928ZM51.0103 30.6258H43.4442V27.2554C43.4442 25.3789 44.9702 23.8203 46.8471 23.8203H47.9172L51.0103 30.6258ZM44.3289 15.9541L46.3926 20.4953C42.8536 20.7336 40.0413 23.6567 40.0413 27.255V30.6254H33.2355V28.0615C36.6402 25.7798 38.9505 22.2189 39.7297 18.2529L44.3289 15.9541ZM12.8188 15.3452C12.8188 8.77952 18.1629 3.43542 24.7286 3.43542C31.2943 3.43542 36.6384 8.77952 36.6384 15.3452C36.6384 19.5717 34.3553 23.5206 30.6819 25.649L29.8329 26.1388V30.6254H26.43V20.1344C28.4055 19.4302 29.8329 17.5583 29.8329 15.3431C29.8329 12.529 27.5427 10.2387 24.7286 10.2387C21.9145 10.2387 19.6242 12.5294 19.6242 15.3434C19.6242 17.5587 21.0516 19.4302 23.0271 20.1348V30.6258H19.6242V26.1388L18.7753 25.6472C15.1019 23.5188 12.8188 19.5713 12.8188 15.3452ZM24.7286 17.0467C23.7892 17.0467 23.0271 16.2824 23.0271 15.3452C23.0271 14.4059 23.7892 13.6438 24.7286 13.6438C25.6679 13.6438 26.43 14.4059 26.43 15.3452C26.43 16.2846 25.6679 17.0467 24.7286 17.0467ZM85.605 34.0287C85.8519 35.7298 85.9762 37.4552 85.9762 39.1327L85.9798 45.3515C85.9901 58.9816 79.2644 71.7454 68.0127 79.492L67.2642 80.0025V102.085H33.2358V86.7726H16.2213V66.0186L5.1944 63.5022L15.1544 45.7445L15.0576 45.1371C14.4248 41.4144 14.3891 37.4312 14.9386 34.0287H16.2213H33.2355H85.605ZM81.4417 30.6254H76.6489L85.1305 10.8515L88.9025 12.7298L81.4417 30.6254ZM89.3823 9.18756L87.5004 8.24679L89.3823 6.83797V9.18756Z" fill="current"/>
<path d="M28.1315 44.2369C25.3175 44.2369 23.0272 42.5355 23.0272 39.1326H19.6243C19.6243 44.2369 23.4406 47.6398 28.1315 47.6398C32.8225 47.6398 36.6388 44.2369 36.6388 39.1326H33.2359C33.2355 42.5355 30.9456 44.2369 28.1315 44.2369Z" fill="current"/>
</svg>
