<svg width="48" height="55" viewBox="0 0 48 55" fill="none" xmlns="http://www.w3.org/2000/svg">
<path d="M47.9883 0.000244141L43.6367 48.7494L24.076 54.1721L4.56926 48.7568L0.222168 0.000244141H47.9883Z" fill="#D1D1D0"/>
<path d="M24.1052 50.0269L39.9113 45.645L43.6298 3.98657H24.1052V50.0269Z" fill="#BBBAB9"/>
<path d="M15.6459 15.9464H24.1053V9.96655H9.11073L9.25378 11.5708L10.7236 28.0496H24.1053V22.0698H16.1924L15.6459 15.9464ZM16.9936 31.0396H10.9908L11.8285 40.4288L24.0777 43.829L24.1053 43.8215V37.6L24.079 37.6069L17.4194 35.8087L16.9936 31.0396Z" fill="#EBEBEB"/>
<path d="M24.0847 28.0496H31.4481L30.7539 35.8049L24.0845 37.605V43.8262L36.3435 40.4288L36.4333 39.4184L37.8387 23.6755L37.9846 22.0698H24.0847V28.0496ZM24.0847 15.9317V15.9464H38.5287L38.6485 14.6024L38.9212 11.5708L39.064 9.96655H24.0847V15.9317Z" fill="white"/>
</svg>
