<svg width="50" height="50" viewBox="0 0 50 50" fill="none" xmlns="http://www.w3.org/2000/svg">
<path d="M20.2004 17.811C19.8568 19.1924 17.7689 27.1733 17.7689 27.1733H22.8845C22.8845 27.1733 20.607 19.1924 20.2685 17.811H20.2004Z" fill="#D1D1D0"/>
<path d="M46.9272 0.599854H3.68197C2.93396 0.599741 2.21653 0.896691 1.68741 1.42541C1.15829 1.95414 0.8608 2.67135 0.860352 3.41935V46.6685C0.861137 47.4162 1.15877 48.1331 1.68786 48.6616C2.21694 49.19 2.93418 49.4868 3.68197 49.4867H46.9264C47.2967 49.4868 47.6634 49.4139 48.0055 49.2723C48.3476 49.1306 48.6585 48.923 48.9203 48.6611C49.1822 48.3993 49.3899 48.0884 49.5315 47.7463C49.6732 47.4042 49.746 47.0375 49.7459 46.6672V3.41935C49.746 3.04913 49.6732 2.68251 49.5316 2.34044C49.39 1.99837 49.1824 1.68754 48.9206 1.42572C48.6589 1.16389 48.3481 0.956195 48.0061 0.814492C47.6641 0.672788 47.2975 0.599854 46.9272 0.599854ZM25.4235 37.0219L23.6351 31.0927H17.0213L15.3657 37.0219H9.94376L17.0213 13.9066H23.872L31.0375 37.0219H25.4235ZM38.2982 37.0219H33.0781V20.2555H38.2982V37.0219ZM35.6552 18.1942C34.0153 18.1942 32.9114 17.0239 32.9474 15.5892C32.9127 14.0784 34.0165 12.9462 35.6975 12.9462C36.0565 12.924 36.4163 12.9762 36.7543 13.0994C37.0922 13.2227 37.4011 13.4143 37.6616 13.6624C37.9221 13.9105 38.1287 14.2097 38.2683 14.5412C38.4079 14.8727 38.4776 15.2295 38.473 15.5892C38.4717 17.0227 37.3801 18.1942 35.6552 18.1942Z" fill="#D1D1D0"/>
</svg>
