<svg width="50" height="50" viewBox="0 0 50 50" fill="none" xmlns="http://www.w3.org/2000/svg">
<path d="M29.6923 23.8892C27.3854 23.8892 26.1799 25.9625 26.1799 28.5377C26.1799 31.3116 27.5527 33.0505 29.6576 33.0505C31.1282 33.0505 32.2959 32.047 32.602 30.6111C32.6966 30.2418 32.7345 29.8789 32.7345 29.4402V27.3006C32.7345 27.0292 32.6966 26.6663 32.6682 26.3917C32.3653 25.0253 31.2639 23.8892 29.6923 23.8892Z" fill="#D1D1D0"/>
<path d="M46.6485 0.599854H4.00708C2.28084 0.599854 0.882812 1.99788 0.882812 3.7178V46.3624C0.882812 48.0886 2.284 49.4867 4.00392 49.4867H46.6454C48.3748 49.4867 49.7665 48.0855 49.7665 46.3624V3.7178C49.7696 1.99473 48.3779 0.599854 46.6485 0.599854ZM17.8201 36.7245H12.7077V14.192H17.8201V36.7245ZM33.4414 36.7245L33.2079 34.3198H33.1353C32.097 36.1565 30.131 37.0938 28.0229 37.0938C24.1444 37.0938 21.0359 33.7802 21.0359 28.6993C21.0012 23.1861 24.4473 20.0082 28.3605 20.0082C30.3645 20.0082 31.9361 20.7119 32.6714 21.848H32.7377V12.9896H37.8185V31.8425C37.8185 33.6855 37.8848 35.6232 37.9542 36.7277L33.4414 36.7245Z" fill="#D1D1D0"/>
</svg>
