<svg width="146" height="113" viewBox="0 0 146 113" fill="none" xmlns="http://www.w3.org/2000/svg">
<path d="M64.3096 10.3989C64.8658 10.3295 65.422 9.77495 65.4915 9.22035C65.4915 8.66575 65.0049 8.24979 64.3792 8.38844C63.823 8.45777 63.1973 9.01237 63.1973 9.56697C63.1973 10.1216 63.7535 10.4682 64.3096 10.3989Z" fill="#E16963"/>
<path d="M61.181 20.8669C62.1543 20.7282 63.3362 19.7577 64.4486 18.2325C63.8924 19.827 64.9353 20.1736 65.7 20.1043L67.6467 14.9743C68.0638 14.0037 68.6896 13.1718 69.2457 12.5479C70.4277 11.3 71.4705 10.8147 70.8448 12.4785L69.3153 16.4994C68.4115 18.9258 69.2457 19.7577 70.08 19.6884C71.6096 19.4804 73.6953 17.1233 75.0162 14.0037C75.0857 13.7957 74.8772 13.7264 74.8076 13.9344C74.1819 15.4595 73.1391 17.054 72.3048 17.8859C71.3315 18.7871 70.1496 19.6884 70.7753 17.9552L72.3048 13.9344C73.2086 11.508 72.3048 10.6761 71.54 10.7454C70.5667 10.8841 69.2457 12.0626 68.3419 13.3104C68.8286 11.7853 67.8553 11.4387 67.0905 11.5773L64.9353 17.262C64.4486 18.0246 63.9619 18.7178 63.4753 19.2031C62.5019 20.1736 61.2505 21.0055 61.9457 19.2724L63.8924 14.2117C64.5181 12.5479 63.4753 12.1319 62.641 12.2706L60.5553 17.8859C59.5124 20.1736 60.3467 21.0055 61.181 20.8669Z" fill="#E16963"/>
<path d="M71.0533 33.3455C72.0962 33.2068 73 32.4443 73.139 31.4044C73.2086 30.8498 72.9305 30.3645 72.5133 30.0872C72.0962 29.8099 71.6095 29.7406 71.1229 29.8099C70.6362 29.8792 70.2191 30.0872 69.8714 30.3645C69.5238 30.6418 69.1762 31.0578 69.1067 31.543C69.0371 32.0283 69.1762 32.5829 69.5933 32.9295C70.0105 33.2762 70.5667 33.4148 71.0533 33.3455Z" fill="#E16963"/>
<path d="M77.519 37.7822C77.5885 37.4356 77.7275 37.089 77.7275 36.7423V36.673C77.7275 36.6037 77.7275 36.465 77.7275 36.3957V36.3264C77.7275 36.2571 77.7275 36.1877 77.658 36.1184V36.0491C77.658 35.9798 77.5885 35.9104 77.5885 35.9104C77.5885 35.9104 77.5885 35.8411 77.519 35.8411C77.519 35.8411 77.519 35.7718 77.4494 35.7718C77.4494 35.7718 77.4494 35.7025 77.3799 35.7025C77.3799 35.7025 77.3799 35.7025 77.3104 35.6331C77.1018 35.3558 76.8237 35.2172 76.4761 35.0785C76.1285 34.9399 75.7113 34.9399 75.3637 35.0092L72.4437 42.7736L72.3047 43.1896C71.818 44.0215 71.3313 44.8534 70.7752 45.616C70.0799 46.5865 69.3152 47.4184 68.4113 48.181C67.9942 48.5276 67.5075 48.9436 67.0209 49.0822C66.8818 49.1515 66.8123 49.0822 66.8123 49.0822C66.8123 49.0822 66.7428 48.9436 66.7428 48.8049C66.7428 48.5276 66.8123 48.2503 66.9513 47.973L69.3847 41.3178L70.0104 39.654C70.219 39.0994 70.4275 38.5448 70.4275 37.9209C70.4971 37.2969 70.2885 36.673 69.7323 36.3264C69.2456 35.9798 68.6199 35.9104 67.9942 35.9798L65.4218 42.5657C65.0047 43.6749 64.518 44.7841 64.1704 45.8933C63.9618 46.4479 63.8228 47.0718 63.7532 47.6264C63.6837 48.2503 63.6837 48.8742 63.8923 49.4288C64.0313 49.7061 64.1704 49.9834 64.379 50.2607C64.5875 50.4687 64.9352 50.6074 65.2828 50.6767C65.978 50.746 66.5342 50.4687 67.0904 50.2607C68.2028 49.7061 69.1066 48.8742 69.8713 48.0423C70.2885 47.6264 70.6361 47.2104 70.9837 46.7252C70.9837 46.7945 70.9837 46.7945 70.9837 46.8638C70.9837 46.9331 70.9837 47.0025 70.9837 47.0718C70.9837 47.1411 70.9837 47.2798 70.9837 47.3491C70.9837 47.4184 70.9837 47.4877 70.9837 47.5571C70.9837 47.6264 70.9837 47.6957 70.9837 47.765C70.9837 47.973 71.0533 48.181 71.1228 48.3196V48.389C71.1228 48.4583 71.1923 48.5276 71.1923 48.5969C71.1923 48.5969 71.1923 48.6663 71.2618 48.6663L71.3313 48.7356C71.3313 48.7356 71.3313 48.7356 71.4009 48.8049L71.4704 48.8742C71.5399 48.9436 71.5399 48.9436 71.6094 49.0129C71.6094 49.0129 71.6094 49.0129 71.679 49.0129C72.1656 49.3595 72.7913 49.4288 73.3475 49.3595L76.6152 40.8325C77.2409 39.446 78.1447 38.1982 79.118 37.089C79.6047 36.5344 80.1609 35.9798 80.7866 35.5638C81.0647 35.3558 81.4123 35.1479 81.7599 35.0785C81.9685 35.0785 82.038 35.1479 82.1075 35.3558C82.1075 35.4945 82.1075 35.7025 82.038 35.9104C81.0647 38.7528 79.8133 41.5258 78.8399 44.4374C78.6313 45.2 78.4923 45.9626 78.5618 46.7252C78.5618 47.1411 78.7009 47.4877 78.8399 47.8344C79.0485 48.181 79.3266 48.5276 79.7437 48.6663C80.1609 48.8049 80.578 48.8049 80.9256 48.6663C81.2733 48.5969 81.6904 48.389 82.038 48.2503C82.7333 47.9037 83.2894 47.4184 83.9152 46.8638C84.819 45.9626 85.6532 44.992 86.3485 43.9522C86.279 46.0319 87.1133 47.4877 89.199 47.4184C90.5894 47.2798 91.8409 46.3785 93.3009 44.2295L92.9533 45.1307C89.8942 52.7565 90.5199 55.6681 85.1666 59.2037C82.6637 60.4515 79.8828 60.3822 76.9628 58.0945C75.9199 59.5503 77.1018 60.5902 78.2142 60.8675C80.9952 61.5607 83.4285 61.0755 85.5837 59.8276C92.119 56.292 92.4666 54.6976 95.8037 46.1706L101.296 31.4736C99.2104 31.7509 97.8894 32.2362 96.9161 34.5933C96.8466 33.0681 96.3599 32.1669 95.178 32.0976C91.4932 32.0282 88.3647 37.2969 87.1828 40.4859C86.9742 41.0405 86.8352 41.5951 86.6961 42.0804C85.9313 43.2589 85.1666 44.4374 84.1933 45.408C83.7066 45.8933 83.1504 46.3785 82.5942 46.7945C82.3161 47.0025 81.9685 47.2104 81.7599 47.2104C81.6209 47.2798 81.6209 46.7945 81.6904 46.5172C81.8294 45.8239 82.1771 45.2 82.3856 44.5068L83.1504 42.4963C83.6371 41.1792 84.1237 39.862 84.6104 38.4755C84.819 37.7822 84.958 37.089 85.0275 36.3957C85.0275 35.7025 84.958 34.9399 84.4713 34.316C84.2628 34.0387 83.9152 33.8307 83.5675 33.7614C83.2199 33.692 82.8028 33.7614 82.5247 33.9C81.8294 34.108 81.2037 34.5239 80.6475 34.9399C79.3266 35.6331 78.4228 36.673 77.519 37.7822ZM90.5199 39.654C91.9799 35.7718 94.2742 32.9988 95.3866 32.7908C96.5685 32.5828 96.5685 35.0785 95.039 38.9607C93.579 42.843 91.4237 45.8239 90.2418 45.9626C88.7123 46.2399 88.9904 43.5362 90.5199 39.654Z" fill="#E16963"/>
<path d="M143.636 56.0148C142.663 56.1535 141.69 56.3614 140.855 56.916L140.786 56.9854C140.647 57.124 140.508 57.1933 140.369 57.4013C140.299 57.4706 140.299 57.4706 140.23 57.54C140.09 57.6786 140.021 57.8173 139.882 57.9559C139.812 58.0252 139.743 58.0946 139.743 58.2332C139.673 58.3025 139.673 58.3719 139.604 58.4412C139.465 58.6492 139.395 58.9265 139.256 59.1344C139.256 59.2038 139.187 59.2731 139.187 59.3424L137.101 64.8191C137.031 64.9578 136.962 65.0271 136.892 65.1657C136.823 65.3044 136.684 65.5124 136.614 65.651C136.406 65.9976 136.197 66.3443 135.989 66.6216L135.919 66.6909C135.224 67.7308 134.32 68.632 133.486 69.5332C133.138 69.8798 132.721 70.2265 132.304 70.4344C132.095 70.5731 131.887 70.7117 131.609 70.7117C131.47 70.7117 131.33 70.7117 131.261 70.5731C131.191 70.4344 131.191 70.3651 131.191 70.2265C131.191 69.7412 131.4 69.2559 131.609 68.7706L132.165 67.3841L134.32 61.7688C134.529 61.1449 134.876 60.4516 135.015 59.7584C135.015 59.7584 135.015 59.7584 135.015 59.689C135.015 59.6197 135.015 59.4811 135.085 59.4117C135.085 59.3424 135.085 59.3424 135.085 59.2731C135.085 59.2038 135.085 59.1344 135.085 59.0651C135.085 58.9958 135.085 58.9265 135.085 58.9265V58.8571C135.085 58.7878 135.085 58.7878 135.085 58.7185C135.085 58.6492 135.085 58.5798 135.085 58.5798C135.085 58.5105 135.085 58.4412 135.015 58.4412C135.015 58.3719 134.946 58.3719 134.946 58.3025C134.946 58.2332 134.876 58.2332 134.876 58.1639L134.807 58.0946C134.737 58.0252 134.737 58.0252 134.668 57.9559L134.598 57.8866C134.529 57.8866 134.529 57.8173 134.459 57.8173C134.39 57.8173 134.39 57.7479 134.32 57.7479C134.25 57.7479 134.181 57.6786 134.111 57.6786H134.042C133.972 57.6786 133.903 57.6093 133.833 57.6093C133.833 57.6093 133.833 57.6093 133.764 57.6093C133.416 57.54 133.138 57.54 132.79 57.6093L130.705 63.1553L130.01 64.9578C129.87 65.2351 129.731 65.5817 129.523 65.859C128.619 67.4535 127.576 68.9786 126.325 70.2958C125.977 70.6424 125.699 70.9197 125.351 71.197C125.212 71.3357 125.004 71.4743 124.865 71.5436C124.865 71.5436 124.795 71.5436 124.795 71.613C124.795 71.4743 124.865 71.2663 124.865 71.0584C124.934 70.8504 125.004 70.6424 125.073 70.4344L125.56 69.1173C125.908 68.216 126.255 67.3841 126.533 66.4829C126.811 65.5817 126.951 64.5418 126.603 63.6406C126.464 63.1553 126.186 62.7393 125.838 62.3927C125.49 62.0461 125.073 61.7688 124.656 61.5608C123.822 61.1449 122.988 60.7289 122.153 60.313C122.64 58.7185 122.918 57.0547 123.127 55.3909C123.057 55.3909 122.988 55.4602 122.918 55.4602C122.849 55.4602 122.849 55.4602 122.779 55.4602C122.71 55.4602 122.64 55.5295 122.57 55.5295C122.501 55.5295 122.501 55.5989 122.431 55.5989C122.362 55.6682 122.292 55.6682 122.153 55.7375L122.084 55.8068C122.014 55.8762 121.875 55.9455 121.806 56.0148C121.806 56.0148 121.736 56.0148 121.736 56.0841L121.667 56.1535C121.597 56.2228 121.528 56.2921 121.458 56.3614C121.18 56.7081 120.902 57.0547 120.693 57.4706C120.485 57.9559 120.346 58.5105 120.415 59.1344C120.415 59.3424 120.554 59.6197 120.693 59.7584C120.693 59.7584 120.693 59.8277 120.763 59.8277C120.832 59.9663 120.902 60.0357 121.041 60.105C121.18 60.2436 121.25 60.313 121.389 60.3823C120.971 61.0062 120.624 61.7688 120.346 62.462C120.068 63.1553 119.79 63.9179 119.511 64.6111C119.025 65.7897 118.469 66.9682 117.912 68.0774C117.565 68.632 117.217 69.1866 116.8 69.7412C116.452 70.2265 116.105 70.7117 115.688 71.1277C115.34 71.613 114.923 71.9596 114.436 72.3062C113.95 72.6528 113.463 72.9995 112.976 73.2074C112.49 73.4154 111.864 73.5541 111.308 73.3461C111.377 73.2768 111.516 73.1381 111.586 73.0688C111.725 72.9301 111.933 72.7222 112.072 72.5835C112.211 72.4449 112.351 72.3062 112.49 72.1676C112.629 72.0289 112.698 71.8903 112.837 71.7516C112.976 71.613 113.115 71.405 113.254 71.197C113.324 71.1277 113.393 70.989 113.463 70.9197C113.741 70.5038 114.019 70.1571 114.228 69.7412C114.297 69.6719 114.297 69.6025 114.367 69.4639C114.436 69.3946 114.506 69.2559 114.506 69.1866C114.853 68.4933 115.201 67.7308 115.549 66.9682C115.827 66.2056 116.035 65.5124 116.244 64.7498C116.244 64.6111 116.313 64.4032 116.313 64.2645C116.452 63.5019 116.452 62.6007 116.174 61.8381C116.174 61.7688 116.174 61.7688 116.105 61.6995C116.105 61.6301 116.105 61.6301 116.035 61.5608C115.966 61.3528 115.827 61.1449 115.688 60.9369L115.618 60.8676C115.549 60.7982 115.479 60.7289 115.41 60.6596C115.34 60.5903 115.34 60.5903 115.271 60.5209C115.271 60.5209 115.27 60.5209 115.201 60.4516L114.923 60.2436L114.575 60.105C114.367 60.0357 114.158 60.0357 113.95 59.9663H113.88C113.602 59.9663 113.393 59.9663 113.046 59.9663C112.629 59.9663 112.211 60.0357 111.794 60.1743C111.586 60.2436 111.377 60.313 111.169 60.3823C111.099 60.3823 111.03 60.4516 110.96 60.4516C110.821 60.5209 110.682 60.5903 110.543 60.5903C110.473 60.6596 110.334 60.6596 110.265 60.7289C110.126 60.7982 110.056 60.8676 109.917 60.8676C109.848 60.9369 109.709 60.9369 109.639 61.0062C109.5 61.0755 109.361 61.1449 109.291 61.2142C109.222 61.2835 109.152 61.2835 109.083 61.3528C109.013 61.3528 109.013 61.4222 108.944 61.4222C107.97 62.1154 107.136 63.0167 106.371 63.9872L106.302 64.0565C105.954 64.4725 105.676 64.9578 105.398 65.3737C105.329 65.5124 105.259 65.651 105.19 65.7897C105.12 65.9283 104.981 66.1363 104.911 66.2749C104.842 66.4136 104.772 66.5522 104.703 66.7602C104.564 67.0375 104.494 67.2455 104.355 67.5228C104.286 67.7308 104.216 67.8694 104.147 68.0774C104.077 68.216 104.008 68.3547 104.008 68.4933C103.938 68.632 103.938 68.7013 103.869 68.7706C103.799 68.9093 103.799 69.0479 103.73 69.1866C103.59 69.5332 103.521 69.8105 103.451 70.1571C103.382 70.2958 103.243 70.4344 103.173 70.6424C102.409 71.8209 101.574 72.8608 100.601 73.8314C100.114 74.3167 99.5581 74.7326 99.0019 75.0792C98.8629 75.1486 98.7238 75.2179 98.6543 75.2179C98.6543 75.2179 98.6543 75.1486 98.6543 75.0792C98.6543 74.8019 98.7934 74.4553 98.8629 74.178L100.323 70.2958C100.81 68.9786 101.296 67.7308 101.713 66.3443C101.922 65.651 102.061 64.9578 102.061 64.2645C102.061 63.5712 101.922 62.8087 101.366 62.2541C101.088 61.9768 100.74 61.8381 100.323 61.7688C99.9057 61.7688 99.5581 61.8381 99.28 61.9768C98.5848 62.2541 98.0286 62.67 97.4724 63.086C96.36 63.9872 95.4562 65.0271 94.6219 66.1363L94.3438 66.4136C94.4829 65.7897 94.4829 65.0964 94.3438 64.4032C94.3438 64.4032 94.3438 64.4032 94.3438 64.3338C94.3438 64.2645 94.2743 64.1952 94.2743 64.1259C94.2743 64.0565 94.2743 64.0565 94.2048 63.9872C94.2048 63.9179 94.1353 63.8485 94.1353 63.8485C94.1353 63.7792 94.1353 63.7792 94.0657 63.7792C94.0657 63.7099 93.9962 63.6406 93.9962 63.6406C93.9962 63.5713 93.9267 63.5713 93.8572 63.5019L93.7876 63.4326C93.7181 63.3633 93.7181 63.3633 93.6486 63.294C93.5791 63.2246 93.5095 63.2246 93.5095 63.1553C93.44 63.1553 93.44 63.086 93.3705 63.086C93.301 63.086 93.301 63.0167 93.2315 63.0167C93.1619 63.0167 93.0924 62.9473 93.0229 62.9473C92.9534 62.9473 92.9534 62.9473 92.8838 62.9473H92.8143H92.7448C92.6753 62.9473 92.6057 62.9473 92.5362 62.9473C92.1886 63.0167 91.7715 63.1553 91.4238 63.294C91.3543 63.294 91.3543 63.3633 91.2848 63.3633C91.2153 63.4326 91.0762 63.4326 91.0067 63.5019C90.8676 63.5713 90.6591 63.7099 90.52 63.7792C90.52 63.7792 90.52 63.7792 90.4505 63.7792C89.9638 64.1259 89.4772 64.5418 89.06 64.9578C88.9905 65.0271 88.921 65.0964 88.8515 65.1657C88.6429 65.3737 88.4343 65.5817 88.2257 65.859C88.0867 65.9976 88.0172 66.1363 87.8781 66.2749C87.6695 66.4829 87.5305 66.7602 87.3219 66.9682C87.2524 67.0375 87.1829 67.1068 87.1829 67.1762C87.2524 66.8295 87.3914 66.4829 87.3914 66.067V65.9976C87.3914 65.9283 87.3914 65.7897 87.3914 65.7203V65.651C87.3914 65.5817 87.3914 65.5124 87.3219 65.443V65.3737C87.3219 65.3044 87.2524 65.2351 87.2524 65.2351C87.2524 65.2351 87.2524 65.1657 87.1829 65.1657C87.1829 65.1657 87.1829 65.0964 87.1134 65.0964C87.1134 65.0964 87.1133 65.0271 87.0438 65.0271C87.0438 65.0271 87.0438 65.0271 86.9743 64.9578C86.7657 64.6805 86.4876 64.5418 86.14 64.4032C85.7924 64.2645 85.3753 64.2645 85.0276 64.3338L82.1772 71.8903C81.621 72.9301 80.9953 73.9007 80.3 74.8019C79.9524 75.2872 79.5353 75.7725 79.1181 76.1884C78.701 76.6044 78.2838 77.0203 77.7972 77.367C76.8238 78.0602 75.781 78.6841 74.5991 78.9614C74.0429 79.1001 73.4172 79.1694 72.861 79.0308C72.5829 78.9614 72.3048 78.8921 72.0267 78.7535C71.8181 78.6148 71.6096 78.4068 71.4705 78.1295C71.1924 77.6443 71.0534 77.0203 71.0534 76.3964C71.0534 75.7725 71.1229 75.2179 71.2619 74.5939C72.6524 74.178 73.9734 73.6927 75.2943 73.0688C76.6153 72.4449 77.8667 71.7516 78.9791 70.7117C79.5353 70.2265 80.0219 69.6719 80.3 68.9786C80.6476 68.3547 80.9257 67.5921 80.7867 66.7602C80.7172 65.9283 80.0219 65.3044 79.3267 65.0271C78.6314 64.7498 77.7972 64.7498 77.1019 64.8191C74.5991 65.1657 72.3743 66.6216 70.7753 68.4933C69.941 69.4639 69.3153 70.5038 68.7591 71.613C68.2724 72.7222 67.8553 73.97 67.7857 75.2179C67.7857 75.3565 67.7857 75.4952 67.7857 75.6338C66.8819 76.951 65.8391 78.1295 64.6572 79.1001C64.3095 79.3774 63.9619 79.6547 63.6143 79.8627C63.2667 80.0706 62.8495 80.2786 62.5019 80.2786C62.4324 80.2786 62.3629 80.2786 62.3629 80.2786C62.3629 80.2786 62.3629 80.2786 62.2934 80.2093C62.2238 80.14 62.2934 79.932 62.2934 79.724C62.3629 79.3081 62.5714 78.8921 62.7105 78.4762L66.4648 68.424L70.1496 58.3719C70.7753 56.7081 71.6095 55.1136 72.7915 53.7964C73.3476 53.1725 74.1819 52.6179 75.0162 52.6179C75.4334 52.6179 75.92 52.7565 76.2676 53.0338C76.4762 53.1725 76.6153 53.3111 76.7543 53.5191C76.8238 53.5884 76.9629 53.7271 77.0324 53.6578C77.1715 53.6578 77.1715 53.4498 77.1715 53.3805C76.7543 52.7565 76.1286 52.3406 75.3638 52.1326C75.0162 52.0633 74.5991 51.9939 74.2515 51.9939C74.0429 51.9939 73.9038 52.0633 73.6953 52.0633C73.4867 52.0633 73.3476 52.1326 73.1391 52.2019C71.6791 52.5486 70.3581 53.3111 69.1762 54.2817C66.8819 56.2228 65.3524 58.8571 63.9619 61.4222C61.1115 66.5522 58.4 71.7516 55.2715 76.6737C54.5067 77.9216 53.7419 79.1694 52.8381 80.2786C52.421 80.8332 51.9343 81.3878 51.4476 81.8038C51.2391 82.0117 50.961 82.1504 50.7524 82.2197C50.7524 82.1504 50.6829 82.0811 50.6134 81.9424C50.4743 81.3878 50.4048 80.6252 50.4743 79.932C50.4743 79.2387 50.6134 78.5455 50.6829 77.7829C50.8915 76.3271 51.1695 74.9406 51.5172 73.5541C52.2124 70.7117 53.0467 67.9387 54.02 65.1657C54.5067 63.7792 54.9934 62.3927 55.6191 61.0755C56.2448 59.7584 56.801 58.4412 57.7048 57.2627L60.7638 57.6093C60.8334 57.2627 60.8334 56.916 60.7638 56.5694C60.7638 56.5001 60.7638 56.4308 60.7638 56.4308C60.7638 56.3614 60.7638 56.3614 60.6943 56.2921C60.6943 56.2228 60.6248 56.1535 60.5553 56.0841V56.0148C60.5553 56.0148 60.5553 56.0148 60.4857 55.9455C60.4162 55.8762 60.4162 55.8068 60.3467 55.7375C60.2772 55.6682 60.2076 55.5989 60.1381 55.5989C60.0686 55.5295 59.9991 55.5295 59.9295 55.4602C59.86 55.4602 59.86 55.3909 59.7905 55.3909C59.721 55.3909 59.6515 55.3216 59.5819 55.3216C59.5124 55.3216 59.4429 55.3216 59.4429 55.2522C59.3734 55.2522 59.3038 55.2522 59.2343 55.2522C59.1648 55.2522 59.1648 55.2522 59.0953 55.2522H59.0257C58.9562 55.2522 58.8867 55.2522 58.8867 55.2522C58.8172 55.2522 58.6781 55.2522 58.6086 55.2522C58.5391 55.2522 58.5391 55.2522 58.4695 55.2522C58.3305 55.2522 58.261 55.2522 58.1219 55.3216H58.0524C57.8438 55.3909 57.7048 55.3909 57.4962 55.4602C56.94 55.5989 56.4534 55.8762 55.9667 56.1535C52.4905 55.7375 49.0143 55.6682 45.4686 55.8762C42.6181 56.0841 39.8372 56.4308 37.0562 57.124C36.9867 57.124 36.9172 57.124 36.8476 57.124C36.361 57.1933 35.8048 57.4013 35.3181 57.54C35.2486 57.54 35.1791 57.6093 35.1095 57.6093C34.2057 57.9559 33.441 58.4412 32.6762 59.0651C32.3981 58.9265 32.1895 58.8571 31.9115 58.7878C31.5638 58.5798 31.2162 58.4412 30.7991 58.3025C27.1143 56.7774 27.1143 56.8467 23.7772 55.5989L21.5524 55.0443C23.4295 52.5486 25.1676 49.7755 26.4886 46.7252C31.4248 43.467 36.2219 38.9608 38.3772 33.6921C39.4895 30.9884 39.4895 26.6209 35.5267 27.1755C31.0772 27.7995 28.4353 33.4148 26.9753 37.0197L22.5257 48.1811C15.1562 50.9541 10.4286 49.013 8.62098 45.824C6.74383 42.5657 7.64764 37.5743 11.0543 33.9694C12.0276 32.9295 13.14 32.167 14.2524 31.6817C13.2095 35.5639 13.4876 39.862 15.3648 43.6056C15.4343 43.8136 15.5734 43.8829 15.6429 43.9522C16.1991 44.5762 17.1029 44.4375 17.7981 43.9522C19.8838 42.5657 21.5524 40.2087 22.1086 37.713C23.2905 32.2363 20.0229 30.0179 16.1991 30.0872C16.6162 29.2553 17.0334 28.4234 17.5895 27.6608C20.9267 22.7387 26.8362 20.867 32.6067 20.9363C40.1153 21.0056 47.2067 24.1252 54.4372 25.9277C54.2286 26.9676 53.6724 28.0768 52.9772 29.0473C50.6829 28.562 48.18 28.77 45.6772 29.8099C45.121 30.0179 45.26 30.7805 45.6076 31.1271C47.7629 33.6228 51.5172 33.3455 53.6724 30.9884C53.7419 30.9191 53.7419 30.8498 53.8115 30.8498C56.2448 31.543 58.3305 33.0682 59.86 35.2173C60.8334 37.1584 60.8334 40.486 59.9295 43.467C58.6781 47.4878 55.7581 51.6473 53.5334 51.9246C52.421 52.0633 53.1162 50.1915 53.2553 49.7755L56.4534 41.3179C57.4962 38.5449 55.7581 37.9209 54.4372 38.1289L51.2391 46.5173C50.7524 47.3492 50.2657 48.1117 49.7095 48.8743C49.0143 49.8449 48.2495 50.7461 47.3457 51.4393C46.8591 51.786 46.3724 52.1326 45.8162 52.3406C45.26 52.5485 44.6343 52.6872 44.1476 52.4792C44.2172 52.4099 44.3562 52.2713 44.4257 52.2019C44.5648 52.0633 44.7734 51.8553 44.9124 51.7166C45.0514 51.578 45.1905 51.4394 45.3295 51.2314C45.4686 51.0927 45.5381 50.9541 45.6772 50.8154C45.8162 50.6768 45.9553 50.4688 46.0943 50.2608C46.1638 50.1915 46.2334 50.0528 46.3029 49.9835C46.581 49.5676 46.8591 49.2209 47.0676 48.805C47.1372 48.7357 47.1372 48.6663 47.2067 48.5277C47.2762 48.4584 47.3457 48.3197 47.3457 48.2504C47.6934 47.5571 48.041 46.7946 48.3886 46.032C48.6667 45.2694 48.8753 44.5762 49.0838 43.8136C49.0838 43.6749 49.1534 43.467 49.1534 43.3283C49.2924 42.5657 49.2924 41.6645 49.0143 40.9019C49.0143 40.8326 49.0143 40.8326 48.9448 40.7633C48.9448 40.6939 48.9448 40.6939 48.8753 40.6246C48.8057 40.4166 48.6667 40.2087 48.5276 40.0007L48.4581 39.9314C48.3886 39.862 48.3191 39.7927 48.2495 39.7234C48.18 39.6541 48.18 39.6541 48.1105 39.5847C48.1105 39.5847 48.1105 39.5847 48.041 39.5154L47.7629 39.3074L47.4153 39.1688C47.2067 39.0995 46.9981 39.0995 46.7895 39.0301H46.72C46.4419 39.0301 46.2334 39.0301 45.8857 39.0301C45.4686 39.0301 45.0514 39.0995 44.6343 39.2381C44.4257 39.3074 44.2172 39.3768 44.0086 39.4461C43.9391 39.4461 43.8695 39.5154 43.8 39.5154C43.661 39.5847 43.5219 39.6541 43.3829 39.6541C43.3134 39.7234 43.1743 39.7234 43.1048 39.7927C42.9657 39.862 42.8962 39.9314 42.7572 39.9314C42.6876 40.0007 42.5486 40.07 42.4791 40.07C42.34 40.1393 42.201 40.2087 42.1315 40.278C42.0619 40.3473 41.9924 40.3473 41.9229 40.4166C41.8534 40.4166 41.8534 40.486 41.7838 40.486C40.8105 41.1792 39.9762 42.0804 39.2115 43.051L39.1419 43.1203C38.7943 43.5363 38.5162 44.0216 38.2381 44.4375C38.1686 44.5762 38.0991 44.7148 38.0295 44.8535C37.96 44.9921 37.821 45.2001 37.7514 45.3387C37.6819 45.4774 37.6124 45.616 37.5429 45.824C37.4038 46.1013 37.3343 46.3093 37.1953 46.5866C37.1257 46.7946 37.0562 46.9332 36.9867 47.1412C36.9172 47.2798 36.8476 47.4185 36.8476 47.5571C36.7781 47.6958 36.7781 47.7651 36.7086 47.8344C36.6391 47.9731 36.6391 48.1117 36.5695 48.2504C36.4305 48.597 36.361 48.8743 36.2915 49.2209C36.2915 49.2903 36.2915 49.2903 36.2219 49.3596C36.2219 49.4982 36.1524 49.6369 36.1524 49.7062V49.7755C36.0829 49.9835 36.0829 50.1222 36.0829 50.3301C36.0829 50.3995 36.0829 50.3995 36.0829 50.4688C36.0829 50.6074 36.0829 50.7461 36.0134 50.8848C36.0134 50.9541 36.0134 51.0234 36.0134 51.0927C36.0134 51.162 36.0134 51.3007 36.0134 51.37C36.0134 51.5087 36.0134 51.6473 36.0134 51.7166C36.0134 51.786 36.0134 51.786 36.0134 51.8553C36.0134 52.1326 36.0829 52.3406 36.1524 52.6179C36.1524 52.6872 36.1524 52.6872 36.2219 52.7565C36.2915 52.8952 36.361 53.0338 36.4305 53.1725C36.5 53.3111 36.5695 53.3805 36.6391 53.5191L36.7086 53.5884C36.7781 53.6578 36.8476 53.7271 36.9172 53.7964C36.9867 53.8657 36.9867 53.8657 37.0562 53.9351C37.1953 54.0044 37.2648 54.0737 37.4038 54.143C37.5429 54.2124 37.6819 54.2817 37.821 54.2817C37.8905 54.2817 37.8905 54.2817 37.96 54.2817C38.0991 54.2817 38.2381 54.351 38.3772 54.351C38.4467 54.351 38.4467 54.351 38.5162 54.351C38.6553 54.351 38.7943 54.351 38.9334 54.351C39.0029 54.351 39.0724 54.351 39.0724 54.351C39.3505 54.351 39.6981 54.2817 39.9762 54.2817C40.88 54.143 41.7143 53.7964 42.4791 53.4498C43.0353 53.7271 43.661 53.7964 44.2867 53.6578C44.9124 53.5884 45.4686 53.3805 46.0248 53.1032C47.1372 52.6179 48.1105 51.8553 48.9448 51.0234C49.501 50.4688 49.9876 49.8449 50.4048 49.2209C50.1962 50.4688 50.4048 51.578 51.5867 52.1326C53.3943 52.9645 57.2181 51.4394 59.86 48.389C63.0581 44.7148 64.101 40.486 62.2934 37.0197C60.9029 33.4148 58.1219 30.7111 54.7848 29.4633C55.341 28.4234 55.6886 27.3142 55.8972 26.205C59.4429 26.9676 63.0581 27.3835 66.7429 26.9676C74.8772 25.9277 83.7762 18.4406 80.4391 9.4283C77.5886 2.07984 67.9943 -0.346543 61.7372 3.81297C57.9134 6.30867 55.4105 10.6068 54.7153 15.113C54.2286 18.2326 54.9238 21.3522 54.6457 24.4025C54.5067 24.4025 54.4372 24.3332 54.2981 24.3332C44.2867 21.8375 33.2324 16.4995 23.0819 21.2136C19.1191 23.016 16.2686 26.413 14.8086 30.2952C12.7924 30.6418 10.7762 31.543 9.31622 32.8602C4.79717 36.8811 3.68479 42.5657 6.67431 46.6559C8.82955 49.5676 14.7391 51.786 22.3172 48.7357C21.4134 50.7461 20.5095 52.6872 19.4667 54.4897C13.2095 52.7565 8.41241 52.9645 5.42288 55.7375C2.22479 58.7878 3.33717 61.7688 5.7705 62.67C8.55145 63.6406 12.7229 62.9473 15.7124 60.7982C17.2419 59.689 18.4238 58.5105 19.5362 57.332L21.761 58.1639L31.0076 61.5608C30.1734 62.878 29.7562 64.4032 29.9648 66.1363C30.1038 67.9387 31.1467 69.6025 32.4676 70.7117C31.4943 73.4847 31.981 76.8124 33.58 79.2387C33.8581 79.724 34.8314 79.1001 34.4838 78.6148C33.0238 76.4657 32.4676 73.97 33.2324 71.405C33.2324 71.3357 33.2324 71.3357 33.3019 71.2663C34.9705 72.2369 37.0562 72.3062 38.9334 70.989C42.201 68.632 39.4895 64.6111 36.0134 66.4829C34.5534 67.2455 33.5105 68.424 32.8848 69.7412C30.3124 67.5921 30.4515 64.4032 32.0505 61.9074L32.7457 62.1847C33.1629 62.3234 33.58 62.5314 33.9972 62.67C34.0667 62.67 34.0667 62.67 34.1362 62.7393C35.4572 63.1553 36.7781 63.3633 38.0991 62.67C39.1419 62.1847 40.2543 61.5608 41.1581 60.9369C42.34 60.0357 42.4791 58.3025 41.0886 57.6093C42.6181 57.4013 44.0781 57.1933 45.6076 57.124C48.8057 56.916 52.0734 56.9854 55.2715 57.54C53.881 58.6492 52.7686 60.1743 51.7257 61.6301C50.6829 63.1553 49.8486 64.7498 48.8753 66.2749L46.1638 70.9197C45.26 72.5142 44.3562 74.0393 43.4524 75.6338C41.6448 78.7535 39.7676 81.8038 37.6819 84.6461C37.1257 85.3393 36.6391 86.0326 36.0134 86.7259C35.4572 87.4191 34.8315 88.043 34.2057 88.667C33.8581 88.9443 33.58 89.2909 33.2324 89.5682C32.8848 89.8455 32.5372 90.1228 32.1895 90.4001C31.8419 90.6774 31.4943 90.9547 31.1467 91.1627C30.7991 91.3706 30.4515 91.5786 30.0343 91.7866H29.9648C29.4086 92.0639 28.8524 92.2719 28.2962 92.5492L27.1143 92.8958C25.0981 93.3117 22.9429 93.3811 20.9962 92.6185C20.0229 92.2719 19.1191 91.6479 18.3543 90.9547C17.5895 90.1921 17.0334 89.3602 16.6162 88.3897C16.5467 88.3897 16.5467 88.459 16.4772 88.459C16.4076 88.5283 16.3381 88.5283 16.2686 88.5976C16.1991 88.5976 16.1991 88.667 16.1295 88.667C15.9905 88.7363 15.921 88.8056 15.8515 88.9443C15.8515 88.9443 15.8515 88.9443 15.7819 89.0136L15.7124 89.0829C15.7124 89.0829 15.7124 89.0829 15.7124 89.1522C15.7124 89.2216 15.6429 89.2909 15.6429 89.2909C15.6429 89.2909 15.6429 89.2909 15.6429 89.3602C15.6429 89.4295 15.5734 89.4989 15.5734 89.4989C15.5734 89.6375 15.5038 89.7762 15.5038 89.8455C15.5734 90.4694 15.921 91.0933 16.4076 91.5093C16.4772 91.5786 16.5467 91.5786 16.6162 91.6479C16.7553 91.7866 16.8943 91.8559 17.0334 91.9946C17.1029 92.0639 17.2419 92.1332 17.3115 92.2025C17.4505 92.3412 17.6591 92.4105 17.7981 92.4798C17.8676 92.5492 18.0067 92.6185 18.0762 92.6878C18.2848 92.7571 18.4238 92.8958 18.6324 92.9651C18.841 93.0344 18.98 93.1038 19.1886 93.1731C19.3276 93.2424 19.4667 93.3117 19.6057 93.3117C19.6753 93.3117 19.6753 93.3811 19.7448 93.3811C19.8143 93.3811 19.8838 93.3811 19.9534 93.4504C20.0924 93.5197 20.2315 93.5197 20.44 93.589C20.5791 93.6584 20.7181 93.6584 20.8572 93.7277C20.9962 93.7277 21.0657 93.797 21.2048 93.797C21.4829 93.8663 21.761 93.8663 22.0391 93.9357C22.1781 93.9357 22.3172 93.9357 22.3867 94.005C22.5257 94.005 22.7343 94.005 22.8734 94.005C23.0124 94.005 23.0819 94.005 23.221 94.005C23.36 94.005 23.4296 94.005 23.5686 94.005C23.6381 94.005 23.7076 94.005 23.7076 94.005H23.7772C24.1943 94.005 24.681 93.9357 25.0981 93.9357C25.1676 93.9357 25.1676 93.9357 25.2372 93.9357C25.4457 93.9357 25.6543 93.8663 25.8629 93.8663C25.9324 93.8663 26.0019 93.8663 26.141 93.797C26.3495 93.7277 26.5581 93.7277 26.6972 93.6584C26.9057 93.5891 27.1838 93.589 27.3924 93.5197C27.4619 93.5197 27.5315 93.4504 27.5315 93.4504C27.5315 93.4504 27.5315 93.4504 27.601 93.4504C27.6705 93.4504 27.74 93.3811 27.8095 93.3811C28.2962 93.2424 28.7134 93.1038 29.2 92.8958C29.2695 92.8958 29.2695 92.8265 29.3391 92.8265C29.9648 92.5492 30.5905 92.2719 31.1467 91.9946C31.1467 91.9946 31.1467 91.9946 31.2162 91.9946H31.2857C31.4943 91.9252 31.6334 91.7866 31.8419 91.7173L31.9115 91.6479L32.12 91.5786C32.2591 91.44 32.4676 91.3706 32.6067 91.232C32.7457 91.1627 32.8848 91.0933 32.9543 90.9547C33.1629 90.816 33.3715 90.6774 33.58 90.5387C33.7191 90.4001 33.8581 90.3308 33.9972 90.1921C34.2057 90.0535 34.3448 89.9148 34.5534 89.7068C34.7619 89.5682 34.901 89.4295 35.04 89.2216C35.1791 89.0829 35.3181 89.0136 35.4572 88.8749C35.5267 88.8056 35.5267 88.8056 35.5962 88.7363C35.8048 88.5283 36.0134 88.3203 36.2219 88.1124C37.0562 87.2805 37.8905 86.3792 38.5857 85.478C40.88 82.6357 42.7572 79.4467 44.4953 76.3271C44.6343 76.1191 44.7038 75.9111 44.8429 75.7031C45.3295 74.8019 45.8857 73.9007 46.3724 72.9995L51.0305 64.7498C50.8915 65.0271 50.8219 65.3044 50.6829 65.5817C50.5438 65.859 50.4048 66.2056 50.2657 66.4829C49.64 68.0774 49.0143 69.6719 48.5276 71.3357C48.5276 71.405 48.4581 71.4743 48.4581 71.613C48.3886 71.8903 48.3191 72.2369 48.18 72.5835C48.1105 72.7222 48.1105 72.8608 48.041 72.9995C47.9715 73.3461 47.9019 73.6234 47.8324 73.97C47.8324 74.1087 47.7629 74.178 47.7629 74.3167C47.6934 74.6633 47.6238 75.0099 47.6238 75.3565C47.6238 75.4258 47.6238 75.5645 47.6238 75.6338C47.5543 75.9111 47.5543 76.2578 47.4848 76.5351C47.4153 77.5749 47.3457 78.6148 47.4153 79.6547C47.4848 80.6946 47.6934 81.7344 48.2495 82.6357C48.3886 82.913 48.5972 83.1209 48.8057 83.2596C48.8753 83.3289 48.8753 83.3289 48.9448 83.3289C49.0143 83.3982 49.0838 83.3982 49.1534 83.4676C49.2229 83.4676 49.2924 83.5369 49.3619 83.5369C49.4315 83.5369 49.501 83.6062 49.5705 83.6062H49.64C49.8486 83.6755 50.0572 83.7449 50.2657 83.7449C50.4743 83.8142 50.6134 83.8142 50.7524 83.7449C50.8219 83.7449 50.8219 83.6755 50.8915 83.6755H50.961H51.0305C51.0305 83.6755 51.1 83.6755 51.1 83.6062C51.5172 83.3982 51.8648 83.1209 52.1429 82.8436L52.2124 82.7743C52.2819 82.705 52.3515 82.6357 52.3515 82.6357C52.6296 82.3584 52.9076 82.0811 53.1857 81.7344C53.2553 81.6651 53.3248 81.5958 53.3943 81.5265C53.6029 81.3185 53.7419 81.0412 53.9505 80.8332C54.9934 79.516 55.8972 78.1295 56.801 76.6737C56.94 76.4657 57.0095 76.2578 57.1486 76.1191C57.4267 75.6338 57.7743 75.1486 58.0524 74.6633C58.4 74.1087 58.7476 73.5541 59.0257 72.9301C59.0953 72.7915 59.2343 72.6528 59.3038 72.4449C59.5124 72.0289 59.721 71.6823 59.9295 71.2663L60.4857 70.2265C60.6943 69.8798 60.8334 69.5332 61.0419 69.2559L66.1172 60.313L62.1543 70.1571L60.2076 75.1486C59.86 75.9805 59.5124 76.8124 59.2343 77.6443C58.9562 78.5455 58.8172 79.4467 58.8867 80.4173C58.9562 80.9025 59.0953 81.3878 59.3734 81.8038C59.6515 82.2197 60.2076 82.497 60.6943 82.497C61.181 82.5663 61.6676 82.4277 62.1543 82.289C62.5715 82.1504 62.9886 81.9424 63.4057 81.7344C65.0743 80.9025 66.3953 79.5854 67.5772 78.1989C67.7162 77.9909 67.8553 77.7829 68.0638 77.5749C68.2029 78.1295 68.481 78.6841 68.8981 79.1694C69.3153 79.6547 69.8715 80.0706 70.4276 80.3479C71.0534 80.6252 71.6791 80.6946 72.3048 80.6946C73.5562 80.7639 74.8772 80.4866 75.9895 80.0013C77.1715 79.4467 78.1448 78.7535 79.0486 77.8522C79.6048 77.367 80.0915 76.8124 80.5781 76.1884C80.5781 76.2578 80.5781 76.3271 80.5781 76.3271C80.5781 76.3964 80.5781 76.4657 80.5781 76.5351C80.5781 76.6044 80.5781 76.743 80.5781 76.8124C80.5781 76.8817 80.5781 76.951 80.5781 77.0203C80.5781 77.0897 80.5781 77.159 80.5781 77.2283C80.5781 77.4363 80.6476 77.6443 80.7172 77.7829V77.8522C80.7172 77.9216 80.7867 77.9909 80.7867 78.0602C80.7867 78.0602 80.7867 78.1295 80.8562 78.1295L80.9257 78.1989C80.9257 78.1989 80.9257 78.1989 80.9953 78.2682L81.0648 78.3375C81.1343 78.4068 81.1343 78.4068 81.2038 78.4762C81.2038 78.4762 81.2038 78.4762 81.2734 78.4762C81.76 78.8228 82.3857 78.8921 82.9419 78.8228L86.2095 70.2958C87.0438 68.4933 88.2257 66.8989 89.6857 65.5124C90.0334 65.1657 90.4505 64.8884 90.8676 64.6111C91.0762 64.4725 91.3543 64.4032 91.5629 64.4725C91.7714 64.6111 91.7714 64.8884 91.7019 65.1657C91.6324 65.651 91.4238 66.1363 91.2848 66.5522L90.7286 67.9387L88.6429 73.4847C88.4343 74.1087 88.1562 74.7326 88.0172 75.3565C88.0172 75.4952 88.0172 75.5645 87.9476 75.7031C87.9476 75.7725 87.9476 75.7725 87.9476 75.8418C87.9476 75.9111 87.9476 75.9805 87.9476 76.0498C87.9476 76.1191 87.9476 76.1884 87.9476 76.2578C87.9476 76.3271 87.9476 76.3271 87.9476 76.3964V76.4657C87.9476 76.5351 87.9476 76.5351 88.0172 76.6044C88.0172 76.6737 88.0867 76.743 88.0867 76.8124C88.1562 76.8817 88.1562 76.951 88.2257 77.0203L88.2953 77.0897C88.3648 77.159 88.3648 77.159 88.4343 77.2283C88.5038 77.2283 88.5038 77.2976 88.5734 77.2976C88.6429 77.367 88.7124 77.367 88.7819 77.4363C88.7819 77.4363 88.7819 77.4363 88.8515 77.4363C88.921 77.4363 88.921 77.4363 88.9905 77.5056C89.06 77.5056 89.06 77.5056 89.1295 77.5749C89.5467 77.7136 89.9638 77.7136 90.381 77.6443L93.5791 69.1173C94.3438 67.6614 95.2476 66.2749 96.4295 65.0964C96.9857 64.5418 97.6114 63.9179 98.3067 63.5712C98.4457 63.5019 98.6543 63.4326 98.8629 63.4326C99.0019 63.4326 99.0714 63.6406 99.0714 63.8485C99.0714 64.2645 98.9324 64.6111 98.7934 65.0271L96.36 71.197C95.9429 72.2369 95.5953 73.2768 95.5257 74.4553C95.5257 75.0099 95.5257 75.6338 95.8038 76.1191C96.0124 76.6737 96.5686 77.0897 97.1943 77.159C97.82 77.159 98.3762 76.951 98.8629 76.743C99.3495 76.4657 99.8362 76.1884 100.253 75.8418C101.088 75.1486 101.852 74.3167 102.548 73.4154C102.756 73.1381 102.895 72.9301 103.104 72.6528C103.104 72.7222 103.104 72.7915 103.104 72.7915C103.104 72.9301 103.104 73.0688 103.104 73.1381C103.104 73.2075 103.104 73.2074 103.104 73.2768C103.104 73.5541 103.173 73.7621 103.243 74.0394C103.243 74.1087 103.243 74.1087 103.312 74.178C103.382 74.3167 103.451 74.4553 103.521 74.5939C103.59 74.7326 103.66 74.8019 103.73 74.9406L103.799 75.0099C103.869 75.0792 103.938 75.1486 104.008 75.2179C104.077 75.2872 104.077 75.2872 104.147 75.3565C104.286 75.4258 104.355 75.4952 104.494 75.5645C104.633 75.6338 104.772 75.7031 104.911 75.7031C104.981 75.7031 104.981 75.7031 105.05 75.7031C105.19 75.7031 105.329 75.7725 105.468 75.7725C105.537 75.7725 105.537 75.7725 105.607 75.7725C105.746 75.7725 105.885 75.7725 106.024 75.7725C106.093 75.7725 106.163 75.7725 106.163 75.7725C106.441 75.7725 106.789 75.7031 107.067 75.7031C107.97 75.5645 108.805 75.2179 109.57 74.8713C110.126 75.1486 110.751 75.2179 111.377 75.1486C112.003 75.0792 112.559 74.8713 113.115 74.5939C114.228 74.1087 115.201 73.3461 116.105 72.5142C116.939 71.613 117.704 70.6424 118.33 69.6719C118.955 68.632 119.581 67.5921 120.068 66.4829C120.207 66.2056 120.276 65.9283 120.415 65.651C120.415 65.5817 120.415 65.5817 120.415 65.5124C120.693 64.8191 120.971 64.1952 121.25 63.5019C121.528 62.7393 121.806 61.9768 122.014 61.1449C122.64 61.4915 123.266 61.7688 123.752 62.2541C123.961 62.5314 124.1 62.8087 124.17 63.1553C124.239 63.5019 124.17 63.8485 124.03 64.1952C123.822 64.8884 123.544 65.5124 123.335 66.1363L122.57 68.0774C122.223 68.9093 121.875 69.8105 121.806 70.7811C121.736 71.2663 121.806 71.7516 121.945 72.1676C122.084 72.6528 122.431 73.0688 122.849 73.2768C123.335 73.4847 123.891 73.4154 124.309 73.2768C124.795 73.1381 125.212 72.8608 125.56 72.6528C126.325 72.0982 127.02 71.405 127.576 70.7117C127.993 70.2265 128.341 69.7412 128.689 69.2559C128.619 69.6719 128.619 70.0878 128.619 70.5038C128.619 70.6424 128.689 70.7811 128.689 70.9197C128.689 70.9197 128.689 70.9197 128.689 70.989C128.689 71.0584 128.758 71.197 128.758 71.2663C128.828 71.4743 128.897 71.613 129.036 71.7516C129.036 71.7516 129.036 71.7516 129.036 71.8209C129.036 71.8209 129.036 71.8209 129.036 71.8903L129.106 71.9596C129.175 72.0289 129.175 72.0289 129.245 72.0982C129.314 72.0982 129.314 72.1676 129.384 72.1676C129.453 72.1676 129.453 72.2369 129.523 72.2369C129.592 72.2369 129.592 72.3062 129.662 72.3062C129.731 72.3062 129.731 72.3062 129.801 72.3062C129.87 72.3062 129.94 72.3062 129.94 72.3062C130.01 72.3062 130.01 72.3062 130.079 72.3062C130.149 72.3062 130.218 72.3062 130.288 72.3062C130.357 72.3062 130.357 72.3062 130.427 72.3062C130.913 72.2369 131.4 71.9596 131.817 71.7516C131.887 71.6823 131.956 71.613 132.026 71.613C132.095 71.613 132.095 71.5436 132.165 71.5436C132.86 71.0584 133.486 70.5038 134.111 69.8798C134.807 69.1866 135.432 68.424 136.058 67.5921C134.25 71.197 132.721 75.0099 130.983 78.6148C130.149 80.4173 129.245 82.2197 128.271 83.9528C127.298 85.686 126.255 87.3498 125.004 88.8749C123.822 90.4001 122.431 91.7866 120.832 92.8265L120.207 93.1731C119.998 93.3117 119.79 93.3811 119.581 93.5197C119.164 93.797 118.747 93.9357 118.26 94.1436C117.356 94.5596 116.452 94.9062 115.549 95.1835C115.062 95.3222 114.645 95.3915 114.158 95.5302C113.671 95.5995 113.254 95.6688 112.768 95.6688C112.281 95.7381 111.864 95.6688 111.377 95.5995C110.96 95.5301 110.473 95.4608 110.056 95.2528C109.917 95.1835 109.848 95.1835 109.709 95.1142C108.805 94.6982 108.04 94.0743 107.345 93.3117C108.944 91.7866 110.195 89.8455 110.126 87.8351C109.987 85.062 107.414 84.6461 105.19 84.7848C101.505 84.9927 101.366 88.5283 102.826 91.3013C103.243 92.0639 103.66 92.7571 104.216 93.3117C100.601 96.986 95.2476 98.6498 90.1724 98.1645C81.8295 97.3326 74.5295 92.6878 66.3953 91.0933C61.6676 90.1228 56.2448 90.4694 52.2124 93.3811C47.0676 97.0553 44.9819 103.156 44.0086 109.187C43.9391 109.603 43.9391 109.742 44.2172 110.088C44.8429 110.92 46.7895 111.683 46.9981 110.227C47.9715 102.74 50.961 94.2823 58.7476 91.5093C63.4753 89.8455 69.7324 93.2424 74.1819 94.9062C78.1448 96.362 82.1076 97.6792 86.2791 98.3032C92.1886 99.1351 98.8629 98.9271 104.077 95.7381C104.564 95.4608 105.12 95.1142 105.607 94.6982C105.815 94.8369 106.024 94.9755 106.302 95.1142C106.371 95.1835 106.441 95.1835 106.51 95.2528C106.58 95.3222 106.719 95.3915 106.789 95.4608C106.997 95.5995 107.206 95.7381 107.345 95.8074C107.414 95.8768 107.484 95.8768 107.623 95.9461C107.831 96.0847 108.04 96.1541 108.249 96.2927C108.318 96.362 108.457 96.3621 108.527 96.4314C108.735 96.5007 108.944 96.57 109.222 96.6393C109.291 96.6393 109.291 96.6394 109.361 96.7087C109.43 96.7087 109.43 96.7087 109.5 96.7087C109.709 96.778 109.987 96.8473 110.195 96.8473C110.265 96.8473 110.404 96.9166 110.473 96.9166C110.682 96.986 110.96 96.986 111.169 96.986C111.308 96.986 111.377 96.986 111.516 96.986C111.725 96.986 111.933 96.986 112.142 96.986C112.281 96.986 112.42 96.986 112.559 96.986C112.629 96.986 112.629 96.986 112.698 96.986C113.254 97.0553 113.81 96.986 114.297 96.9166C114.853 96.8473 115.34 96.778 115.896 96.6393C116.939 96.4314 117.912 96.0154 118.886 95.6688C119.372 95.4608 119.859 95.2528 120.276 94.9755C120.485 94.8369 120.763 94.7676 120.971 94.6289L121.667 94.213C122.431 93.7277 123.127 93.1731 123.752 92.5492C123.891 92.4798 124.031 92.3412 124.17 92.2719C125.282 91.3706 126.394 90.3308 127.437 89.2216C127.507 89.1522 127.507 89.1522 127.576 89.0829C127.993 88.667 128.341 88.251 128.689 87.7657C128.758 87.6271 128.897 87.5578 128.967 87.4191C129.245 87.0725 129.523 86.6565 129.801 86.3099C129.87 86.1712 130.01 86.1019 130.079 85.9633C130.149 85.8246 130.288 85.686 130.357 85.5473C130.635 85.1314 130.913 84.7847 131.191 84.3688C131.261 84.2301 131.33 84.1608 131.4 84.0222C131.678 83.5369 131.956 83.1209 132.234 82.6357C132.304 82.497 132.373 82.4277 132.443 82.289C132.721 81.8731 132.93 81.3878 133.208 80.9719C133.277 80.8332 133.416 80.6252 133.486 80.4866C133.694 80.0706 133.903 79.6547 134.181 79.2387C134.25 79.0308 134.39 78.8921 134.459 78.6841C134.668 78.2682 134.876 77.8522 135.085 77.367C135.154 77.2283 135.224 77.0203 135.293 76.8817C135.502 76.3964 135.71 75.9111 135.919 75.4259C135.989 75.2872 136.058 75.2179 136.058 75.0792C136.267 74.5246 136.545 73.97 136.753 73.4847C136.823 73.3461 136.892 73.2075 136.892 73.0688C137.031 72.6528 137.24 72.2369 137.379 71.8209C137.449 71.6823 137.518 71.5436 137.518 71.405L143.636 56.0148ZM72.5829 72.0982C73.2086 70.6424 74.0429 69.2559 74.9467 67.9387C75.4334 67.3148 75.9895 66.6909 76.5457 66.3443C76.6848 66.2749 76.8238 66.2056 76.9629 66.2056C77.1019 66.2056 77.1714 66.2056 77.241 66.3443C77.38 66.5522 77.38 66.9682 77.3105 67.3148C77.0324 68.84 76.1981 70.2265 75.2943 71.4743C74.3905 72.7222 73.0695 73.5541 71.6096 73.97C71.9572 73.4154 72.3048 72.7915 72.5829 72.0982ZM31.4248 33.5535C32.3286 31.1271 33.9276 28.4234 35.3181 27.7995C39.0724 26.2743 37.821 31.2657 36.9172 33.4148C34.7619 38.5449 31.3553 42.843 26.6972 45.8933L31.4248 33.5535ZM47.2762 30.7805C48.8057 30.2952 50.2657 30.1565 51.7257 30.2952C50.4048 31.4044 48.8057 31.8203 47.2762 30.7805ZM41.6448 50.1915C41.3667 50.5381 41.1581 50.9541 41.0886 51.4393C41.0191 51.8553 41.1581 52.3406 41.4362 52.6872C41.0191 53.1032 40.5324 53.5191 39.9067 53.7271C39.6286 53.7964 39.281 53.7271 39.0724 53.5191C38.8638 53.3111 38.7943 52.9645 38.7943 52.6872C38.7248 51.4394 39.0029 50.2608 39.281 49.0823C39.9762 46.7252 40.9495 44.5068 42.2705 42.4271C42.6181 41.9418 42.9657 41.4565 43.3829 40.9712C43.8 40.5553 44.2172 40.07 44.8429 39.862C45.121 39.7234 45.4686 39.7927 45.7467 39.862C46.0248 40.0007 46.2334 40.278 46.3029 40.5553C46.5114 41.1099 46.4419 41.7338 46.3724 42.3577C46.0248 44.7841 44.9819 46.9332 43.8 49.0823C43.0353 49.1516 42.201 49.4982 41.6448 50.1915ZM55.8276 16.2915C56.3838 10.9535 59.86 5.68474 65.0743 3.88229C69.941 2.14916 76.0591 4.15959 78.6314 8.73505C81.8295 14.489 77.3105 21.2829 72.0267 23.7786C67.021 26.205 61.181 25.8584 55.8972 24.6798C56.0362 21.9068 55.5495 18.9258 55.8276 16.2915ZM15.8515 31.1964C19.6057 30.3645 22.9429 32.4443 21.761 37.505C21.2048 39.7927 19.0495 41.6645 16.3381 42.7044C14.5305 39.0995 14.461 34.8706 15.8515 31.1964ZM14.9476 60.1743C12.5838 62.2541 9.73336 63.2246 7.16098 61.9768C4.79717 60.8676 3.96288 58.1639 5.90955 56.0148C7.92574 53.7964 11.68 54.559 18.0762 56.7081C17.1029 58.0252 16.1295 59.1344 14.9476 60.1743ZM35.4572 67.8694C37.0562 70.5038 36.8476 71.4743 34.8314 70.7117C34.4143 70.6424 34.0667 70.4344 33.7191 70.2265C34.2057 69.2559 34.8315 68.0774 35.4572 67.8694ZM39.4895 58.2332C39.281 58.3719 38.3076 59.1344 38.0991 59.0651C39.3505 59.4811 39.5591 60.5903 39.1419 61.4915C37.821 61.5608 36.6391 61.0062 35.3181 60.5209C34.8315 60.313 34.3448 60.105 33.8581 59.897C34.4838 59.3424 35.2486 58.9265 36.0829 58.6492C37.4734 58.2332 38.8638 57.8866 40.3238 57.6786C39.9762 57.8866 39.6286 58.1639 39.4895 58.2332ZM47.4153 71.6823C48.6667 69.4639 50.0572 67.0375 51.1695 65.0964L47.4153 71.6823ZM88.7124 66.4136L88.7819 66.3443C88.9905 66.067 89.2686 65.859 89.4772 65.651C89.1991 65.859 88.921 66.1363 88.7124 66.4136ZM106.928 75.0099C106.997 75.0099 106.997 75.0099 106.928 75.0099V75.0099ZM108.735 71.405C108.457 71.7516 108.249 72.2369 108.179 72.6528C108.11 73.1381 108.249 73.6234 108.596 73.9007C108.179 74.3167 107.692 74.7326 107.067 74.9406C106.789 75.0099 106.441 74.9406 106.232 74.7326C106.024 74.5246 105.954 74.178 105.954 73.9007C105.885 72.6528 106.163 71.4743 106.441 70.2958C107.136 67.9387 108.11 65.7203 109.43 63.6406C109.778 63.1553 110.126 62.67 110.543 62.1847C110.96 61.7688 111.377 61.2835 112.003 61.0755C112.281 60.9369 112.629 61.0062 112.907 61.0755C113.185 61.2142 113.393 61.4915 113.463 61.7688C113.671 62.3234 113.602 62.9473 113.532 63.5712C113.115 65.9283 112.072 68.1467 110.89 70.1571C110.126 70.2958 109.291 70.7117 108.735 71.405ZM106.928 89.0829C106.789 89.7762 106.441 90.4001 106.093 91.024C105.19 89.1522 104.564 86.7259 106.163 85.3393C106.997 86.2406 107.136 88.1817 106.928 89.0829Z" fill="#E16963"/>
</svg>
