<svg width="52" height="51" viewBox="0 0 52 51" fill="none" xmlns="http://www.w3.org/2000/svg">
<path d="M47.8612 0.000244141H4.0272C2.26674 0.000244141 0.83783 1.42916 0.83783 3.18962V47.019C0.83783 48.7794 2.26674 50.2083 4.0272 50.2083H47.8565C49.617 50.2083 51.0459 48.7794 51.0459 47.0236V3.18962C51.0459 1.42916 49.617 0.000244141 47.8612 0.000244141ZM28.3327 38.4735C28.3327 43.2506 25.5309 45.4266 21.4403 45.4266C17.742 45.4266 15.0756 42.947 13.9876 40.6449L17.7466 38.3708C18.4704 39.6549 19.5725 40.6449 21.1602 40.6449C22.6778 40.6449 23.551 40.0518 23.551 37.745V22.7134H28.3327V38.4735ZM38.704 45.4266C34.4687 45.4266 32.0638 43.2926 30.7236 40.6449L34.3099 38.254C35.2858 39.851 36.3505 41.378 38.6013 41.378C40.4925 41.378 41.4825 40.4348 41.4825 39.1273C41.4825 37.5676 40.4551 37.0119 38.3772 36.1013L37.2378 35.611C33.9457 34.2101 31.7556 32.4543 31.7556 28.7373C31.7556 25.3191 34.3659 22.7134 38.4379 22.7134C41.3377 22.7134 43.4204 23.7221 44.924 26.3651L41.3751 28.6486C40.5906 27.243 39.75 26.692 38.4379 26.692C37.1023 26.692 36.2571 27.5418 36.2571 28.6486C36.2571 30.0168 37.1023 30.5678 39.0589 31.4177L40.1983 31.908C44.0788 33.5657 46.2642 35.2608 46.2642 39.0712C46.2642 43.1758 43.0375 45.4266 38.704 45.4266Z" fill="#D1D1D0"/>
</svg>
