<svg width="261" height="73" viewBox="0 0 261 73" fill="none" xmlns="http://www.w3.org/2000/svg">
<path d="M49.9164 56.0798V56.0309L57.8965 51.4491L57.5938 50.93L49.9164 55.3387V32.4787L40.0406 26.9038V16.5892L49.0121 21.675L49.6099 20.6331L29.1848 9.05823V0H28.5794V9.05823L8.15418 20.6331L8.75202 21.675L28.5794 10.4388V20.4826L7.85147 32.7834V43.6247L0.302706 39.2385L0 39.7577L7.85525 44.3206V56.5274L27.9437 67.9518L20.0506 72.4809L20.3533 73L38.8941 62.3543L47.2526 67.2107L47.5553 66.6916L39.4957 62.0082L49.8294 56.076H49.9127L49.9164 56.0798ZM39.2763 16.1566H38.8336V26.223L29.1886 20.776V10.4388L39.2763 16.1566ZM29.1886 22.1566L38.8336 27.6035V50.0347L29.1886 55.2334V22.1566ZM9.06608 33.4718L28.5869 21.8857V55.6735L19.3165 50.2867V29.6386H18.1095V49.587L9.06608 44.3319V33.4718ZM9.06608 45.0241L18.1095 50.2792V60.9738L9.06608 55.8315V45.0241ZM28.7194 67.5079L28.935 67.1355L19.3127 61.6622V50.9826L38.2925 62.012L28.7156 67.5117L28.7194 67.5079ZM29.7032 56.3243L40.0406 50.7494V28.2844L48.7094 33.1784V56.0309L38.8979 61.6659L29.7032 56.3243Z" fill="white"/>
<path d="M82.4901 43.649H92.9744V45.883H79.9225V27.8973H92.6157V30.1314H82.4901V43.649ZM82.2635 35.6567H91.5144V37.8404H82.2635V35.6567Z" fill="white"/>
<path d="M104.642 45.883L96.7251 27.8973H99.5003L106.775 44.4985H105.183L112.508 27.8973H115.076L107.184 45.883H104.642Z" fill="white"/>
<path d="M119.934 45.883V27.8973H126.951C128.524 27.8973 129.871 28.1491 130.985 28.6399C132.099 29.1371 132.954 29.8545 133.552 30.7985C134.15 31.7424 134.452 32.8626 134.452 34.1653C134.452 35.4679 134.15 36.5818 133.552 37.5195C132.954 38.4509 132.099 39.1746 130.985 39.678C129.871 40.1815 128.524 40.4332 126.951 40.4332H121.35L122.508 39.2249V45.883H119.94H119.934ZM122.502 39.4829L121.344 38.1991H126.869C128.512 38.1991 129.758 37.8467 130.607 37.1482C131.457 36.4497 131.878 35.4491 131.878 34.1653C131.878 32.8815 131.457 31.8872 130.607 31.1823C129.758 30.4775 128.512 30.1314 126.869 30.1314H121.344L122.502 28.8476V39.4829Z" fill="white"/>
<path d="M155.78 46.0907C154.408 46.0907 153.099 45.883 151.846 45.4614C150.594 45.0398 149.612 44.4985 148.889 43.8315L149.839 41.824C150.525 42.4218 151.4 42.919 152.463 43.3154C153.527 43.7119 154.628 43.907 155.78 43.907C156.824 43.907 157.674 43.7874 158.322 43.5483C158.97 43.3091 159.455 42.9756 159.763 42.5603C160.071 42.1386 160.222 41.6666 160.222 41.1317C160.222 40.515 160.021 40.0179 159.618 39.6403C159.216 39.2627 158.693 38.9606 158.051 38.7278C157.409 38.4949 156.705 38.2935 155.931 38.1236C155.157 37.9537 154.382 37.7523 153.602 37.5195C152.822 37.2866 152.111 36.9909 151.469 36.6322C150.827 36.2735 150.311 35.7889 149.914 35.1785C149.518 34.568 149.323 33.7877 149.323 32.8248C149.323 31.862 149.568 31.0502 150.053 30.2698C150.537 29.4895 151.293 28.8665 152.312 28.3945C153.332 27.9225 154.628 27.6897 156.207 27.6897C157.252 27.6897 158.29 27.8281 159.316 28.0987C160.342 28.3756 161.236 28.7658 161.991 29.2818L161.141 31.3397C160.367 30.8236 159.555 30.4523 158.7 30.2195C157.844 29.9867 157.013 29.8734 156.207 29.8734C155.194 29.8734 154.364 29.9992 153.715 30.2573C153.061 30.5153 152.589 30.8551 152.287 31.283C151.985 31.711 151.84 32.1892 151.84 32.7241C151.84 33.3598 152.041 33.8632 152.444 34.2408C152.847 34.6184 153.369 34.9204 154.011 35.1407C154.653 35.361 155.358 35.5623 156.132 35.7448C156.9 35.9273 157.68 36.1287 158.46 36.349C159.241 36.5692 159.952 36.865 160.594 37.2237C161.236 37.5824 161.752 38.0607 162.148 38.6648C162.545 39.2627 162.74 40.0367 162.74 40.9744C162.74 41.9121 162.488 42.7239 161.997 43.5042C161.5 44.2846 160.732 44.9076 159.7 45.3796C158.662 45.8516 157.359 46.0844 155.78 46.0844V46.0907Z" fill="white"/>
<path d="M172.381 45.883V30.1314H166.214V27.8973H181.09V30.1314H174.923V45.883H172.381Z" fill="white"/>
<path d="M193.576 46.0907C191.21 46.0907 189.353 45.411 188 44.058C186.647 42.705 185.968 40.729 185.968 38.1236V27.8973H188.535V38.0229C188.535 40.0241 188.976 41.4904 189.857 42.4155C190.738 43.3406 191.984 43.8063 193.595 43.8063C195.206 43.8063 196.477 43.3406 197.358 42.4155C198.239 41.4904 198.68 40.0241 198.68 38.0229V27.8973H201.172V38.1236C201.172 40.729 200.498 42.705 199.152 44.058C197.805 45.411 195.942 46.0907 193.563 46.0907H193.576Z" fill="white"/>
<path d="M209.019 45.883V27.8973H216.602C218.522 27.8973 220.215 28.2749 221.681 29.0301C223.147 29.7853 224.286 30.8362 225.098 32.1892C225.91 33.5422 226.319 35.1092 226.319 36.8902C226.319 38.6711 225.91 40.2381 225.098 41.5911C224.286 42.9441 223.147 44.0014 221.681 44.7503C220.215 45.5054 218.522 45.883 216.602 45.883H209.019ZM211.593 43.649H216.451C217.943 43.649 219.233 43.3658 220.315 42.7994C221.398 42.233 222.247 41.4401 222.845 40.4206C223.443 39.4011 223.745 38.2243 223.745 36.8902C223.745 35.556 223.443 34.3541 222.845 33.3472C222.247 32.334 221.404 31.5473 220.315 30.981C219.227 30.4146 217.937 30.1314 216.451 30.1314H211.593V43.649Z" fill="white"/>
<path d="M232.82 45.883V27.8973H235.387V45.883H232.82Z" fill="white"/>
<path d="M251.472 46.0907C250.101 46.0907 248.829 45.8578 247.659 45.3984C246.482 44.939 245.469 44.2909 244.613 43.4602C243.757 42.6295 243.09 41.6603 242.612 40.5465C242.133 39.4326 241.894 38.218 241.894 36.8965C241.894 35.5749 242.133 34.3603 242.612 33.2465C243.09 32.1326 243.757 31.1634 244.613 30.3328C245.469 29.5021 246.482 28.8539 247.646 28.3945C248.81 27.9351 250.088 27.7022 251.472 27.7022C252.857 27.7022 254.109 27.9288 255.261 28.3819C256.419 28.835 257.426 29.4769 258.294 30.3076C259.156 31.1383 259.83 32.1137 260.295 33.2213C260.761 34.3289 261 35.5623 261 36.8965C261 38.2306 260.767 39.4578 260.295 40.5716C259.823 41.6855 259.156 42.6547 258.294 43.4853C257.426 44.316 256.419 44.9579 255.261 45.411C254.103 45.8641 252.838 46.0907 251.472 46.0907ZM251.472 43.8C252.467 43.8 253.386 43.6301 254.235 43.284C255.085 42.9441 255.821 42.4596 256.444 41.8303C257.067 41.2072 257.558 40.4709 257.91 39.634C258.263 38.797 258.439 37.8782 258.439 36.8839C258.439 35.8896 258.263 34.9708 257.91 34.1338C257.558 33.2968 257.073 32.5605 256.444 31.9375C255.815 31.3145 255.085 30.8299 254.235 30.4838C253.386 30.144 252.467 29.9678 251.472 29.9678C250.478 29.9678 249.534 30.1377 248.685 30.4838C247.835 30.8236 247.092 31.3082 246.463 31.9375C245.828 32.5605 245.337 33.2968 244.984 34.1338C244.632 34.9708 244.456 35.8896 244.456 36.8839C244.456 37.8782 244.632 38.797 244.984 39.634C245.337 40.4709 245.828 41.2072 246.463 41.8303C247.099 42.4533 247.835 42.9378 248.685 43.284C249.534 43.6301 250.459 43.8 251.472 43.8Z" fill="white"/>
<path d="M118.468 63.359L122.583 54.2718H123.867L127.995 63.359H126.63L122.955 54.9955H123.477L119.802 63.359H118.468ZM120.223 61.0809L120.576 60.0425H125.692L126.07 61.0809H120.223Z" fill="white"/>
<path d="M130.255 63.359V54.2718H133.798C134.597 54.2718 135.277 54.3976 135.837 54.6493C136.397 54.9011 136.831 55.2661 137.133 55.7381C137.435 56.2163 137.586 56.7827 137.586 57.4372C137.586 58.0917 137.435 58.658 137.133 59.13C136.831 59.602 136.397 59.9607 135.837 60.2124C135.277 60.4642 134.597 60.59 133.798 60.59H130.966L131.551 59.9922V63.3527H130.255V63.359ZM131.557 60.1243L130.972 59.4887H133.766C134.597 59.4887 135.226 59.3062 135.654 58.9475C136.082 58.5888 136.296 58.0854 136.296 57.4372C136.296 56.789 136.082 56.2856 135.654 55.9331C135.226 55.5807 134.597 55.3982 133.766 55.3982H130.972L131.557 54.75V60.1243ZM136.334 63.359L134.024 60.0614H135.415L137.75 63.359H136.334Z" fill="white"/>
<path d="M144.672 63.4597C143.98 63.4597 143.338 63.3464 142.759 63.1136C142.174 62.887 141.67 62.5598 141.242 62.1381C140.815 61.7165 140.481 61.2256 140.236 60.6655C139.99 60.1055 139.871 59.4825 139.871 58.8091C139.871 58.1357 139.99 57.5127 140.236 56.9526C140.475 56.3925 140.815 55.9017 141.249 55.48C141.683 55.0584 142.193 54.7374 142.772 54.5046C143.351 54.2718 143.993 54.1585 144.685 54.1585C145.377 54.1585 146.032 54.2781 146.623 54.5172C147.215 54.7563 147.718 55.1087 148.133 55.5744L147.29 56.3925C146.944 56.0275 146.554 55.7569 146.12 55.5807C145.685 55.4045 145.226 55.3164 144.729 55.3164C144.232 55.3164 143.747 55.4045 143.307 55.5744C142.872 55.7506 142.489 55.9898 142.168 56.3044C141.847 56.6191 141.601 56.9841 141.419 57.412C141.242 57.84 141.154 58.3056 141.154 58.8091C141.154 59.3125 141.242 59.7782 141.419 60.2062C141.595 60.6341 141.847 61.0054 142.168 61.3137C142.489 61.6221 142.866 61.8675 143.307 62.0437C143.741 62.2199 144.219 62.3018 144.729 62.3018C145.239 62.3018 145.685 62.2136 146.12 62.0374C146.554 61.8612 146.944 61.5843 147.29 61.213L148.133 62.0312C147.718 62.4968 147.215 62.8556 146.623 63.0947C146.032 63.3338 145.377 63.4597 144.666 63.4597H144.672Z" fill="white"/>
<path d="M152.205 63.359H150.909V54.2717H152.205V63.359ZM157.542 59.3062H152.073V58.1798H157.542V59.3062ZM157.422 54.2654H158.718V63.3527H157.422V54.2654Z" fill="white"/>
<path d="M162.356 63.359V54.2718H163.652V63.359H162.356Z" fill="white"/>
<path d="M169.096 63.359V55.3982H165.981V54.2718H173.501V55.3982H170.386V63.359H169.102H169.096Z" fill="white"/>
<path d="M177.119 62.2262H182.418V63.3527H175.823V54.2654H182.236V55.3919H177.119V62.2199V62.2262ZM177.006 58.186H181.682V59.2873H177.006V58.186Z" fill="white"/>
<path d="M187.232 63.359V55.3982H184.117V54.2718H191.638V55.3982H188.523V63.359H187.239H187.232Z" fill="white"/>
<path d="M197.559 63.4597C196.364 63.4597 195.426 63.1198 194.74 62.4339C194.054 61.7479 193.714 60.7536 193.714 59.4321V54.2654H195.011V59.3817C195.011 60.3949 195.231 61.1375 195.678 61.6032C196.125 62.0689 196.754 62.3017 197.566 62.3017C198.378 62.3017 199.019 62.0689 199.466 61.6032C199.913 61.1375 200.133 60.3949 200.133 59.3817V54.2654H201.392V59.4321C201.392 60.7473 201.052 61.7479 200.372 62.4339C199.693 63.1198 198.749 63.4597 197.547 63.4597H197.559Z" fill="white"/>
<path d="M204.973 63.359V54.2718H208.516C209.315 54.2718 209.988 54.3976 210.555 54.6493C211.115 54.9011 211.549 55.2661 211.851 55.7381C212.153 56.2163 212.304 56.7827 212.304 57.4372C212.304 58.0917 212.153 58.658 211.851 59.13C211.549 59.602 211.115 59.9607 210.555 60.2124C209.995 60.4642 209.315 60.59 208.516 60.59H205.684L206.269 59.9922V63.3527H204.973V63.359ZM206.269 60.1243L205.684 59.4887H208.478C209.309 59.4887 209.938 59.3062 210.366 58.9475C210.794 58.5888 211.008 58.0854 211.008 57.4372C211.008 56.789 210.794 56.2856 210.366 55.9331C209.938 55.5807 209.309 55.3982 208.478 55.3982H205.684L206.269 54.75V60.1243ZM211.052 63.359L208.742 60.0614H210.133L212.468 63.359H211.052Z" fill="white"/>
<path d="M216.621 62.2262H221.92V63.3527H215.325V54.2654H221.738V55.3919H216.621V62.2199V62.2262ZM216.502 58.186H221.177V59.2873H216.502V58.186Z" fill="white"/>
</svg>
