<svg width="390" height="445" viewBox="0 0 390 445" fill="none" xmlns="http://www.w3.org/2000/svg">
<g clip-path="url(#clip0_88_3841)">
<path d="M436.36 34.8185L457.312 55.8352L213.402 328.364L213.981 329.153L360.826 262.483L360.834 262.479L360.843 262.475C365.398 260.19 369.927 259.44 374.251 260.195C378.577 260.949 382.738 263.216 386.542 267.032L405.091 285.638C414.171 294.745 414.171 309.934 405.091 319.042L218.412 506.292L183.568 471.341L326.965 329.052L326.39 328.25L65.4837 458.328L53.3724 446.179L39.8127 432.578L436.36 34.8185Z" stroke="#98C245"/>
<path d="M-48.2864 240.314L138.388 53.0686C147.467 43.9618 162.607 43.9618 171.686 53.0686L190.234 71.6741L190.254 71.6937L190.275 71.7111C197.785 77.7373 199.342 88.3304 196.305 97.4959L129.85 243.215L130.639 243.794L400.789 0.68946L421.742 21.7064L25.1951 419.466L11.6376 405.867L-0.473888 393.719L130.752 132.013L129.949 131.438L-11.9118 275.279L-48.2864 240.314Z" stroke="#98C245"/>
</g>
<defs>
<clipPath id="clip0_88_3841">
<rect width="507" height="507" fill="white" transform="translate(-49)"/>
</clipPath>
</defs>
</svg>
