<svg width="283" height="209" viewBox="0 0 283 209" fill="none" xmlns="http://www.w3.org/2000/svg">
<g clip-path="url(#clip0_72_624)">
<path d="M274.89 32.4909L282.312 39.9358L191.103 141.847L191.682 142.636L246.713 117.651L246.722 117.647L246.73 117.642C248.386 116.812 250.016 116.547 251.561 116.817C253.108 117.086 254.611 117.899 256 119.292L262.951 126.264C266.232 129.555 266.232 135.05 262.951 138.341L193.213 208.292L180.598 195.638L234.114 142.535L233.539 141.733L135.965 190.379L131.586 185.986L126.724 181.11L274.89 32.4909Z" stroke="#98C245"/>
<path d="M93.7136 109.054L163.446 39.1084C166.726 35.8181 172.201 35.8181 175.481 39.1084L182.432 46.0808L182.452 46.1005L182.474 46.1178C185.151 48.2665 185.741 52.074 184.637 55.4227L159.74 110.016L160.53 110.595L261.548 19.6895L268.971 27.1346L120.805 175.754L115.946 170.879L111.566 166.486L160.642 68.6125L159.839 68.0373L106.893 121.723L93.7136 109.054Z" stroke="#98C245"/>
</g>
<g clip-path="url(#clip1_72_624)">
<path fill-rule="evenodd" clip-rule="evenodd" d="M64.875 123L110.25 77.4864C112.5 75.2295 112.5 71.468 110.25 69.2112L105.75 64.6974C103.875 62.8167 101.625 62.4405 99.375 63.569L63.75 79.7433L123 13.5414L117.75 8.27539L21.375 104.945L24.75 108.33L27.75 111.34L91.125 79.7433L56.25 114.349L64.875 123Z" fill="#98C245"/>
<path fill-rule="evenodd" clip-rule="evenodd" d="M0 58.3028L45.375 12.789C47.625 10.5321 51.375 10.5321 53.625 12.789L58.125 17.3028C60 18.8073 60.375 21.4404 59.625 23.6972L43.5 59.055L109.125 0L114.375 5.26606L18 101.936L14.625 98.5505L11.625 95.5413L43.5 31.9725L9 66.9541L0 58.3028Z" fill="#98C245"/>
</g>
<g clip-path="url(#clip2_72_624)">
<path fill-rule="evenodd" clip-rule="evenodd" d="M57.9756 195L84.5366 168.358C85.8537 167.037 85.8537 164.835 84.5366 163.514L81.9025 160.872C80.8049 159.771 79.4878 159.551 78.1707 160.211L57.3171 169.679L92 130.927L88.9268 127.844L32.5122 184.431L34.4878 186.413L36.2439 188.175L73.3415 169.679L52.9268 189.936L57.9756 195Z" fill="#98C245"/>
<path fill-rule="evenodd" clip-rule="evenodd" d="M20 157.128L46.561 130.486C47.878 129.165 50.0732 129.165 51.3902 130.486L54.0244 133.128C55.122 134.009 55.3415 135.55 54.9024 136.872L45.4634 157.569L83.8781 123L86.9512 126.083L30.5366 182.67L28.561 180.688L26.8049 178.927L45.4634 141.716L25.2683 162.193L20 157.128Z" fill="#98C245"/>
</g>
<defs>
<clipPath id="clip0_72_624">
<rect width="190" height="190" fill="white" transform="translate(93 19)"/>
</clipPath>
<clipPath id="clip1_72_624">
<rect width="123" height="123" fill="white"/>
</clipPath>
<clipPath id="clip2_72_624">
<rect width="72" height="72" fill="white" transform="translate(20 123)"/>
</clipPath>
</defs>
</svg>
