<svg width="261" height="48" viewBox="0 0 261 48" fill="none" xmlns="http://www.w3.org/2000/svg">
<path d="M0 0H8.40142V29.4565H26.6045V36.3016H0V0Z" fill="#0070BF"/>
<path d="M51.4891 9.61761L38.887 39.2302C37.9957 41.9061 36.3473 44.266 34.1415 46.0237C32.1291 47.3756 29.7447 48.0648 27.3214 47.9952C25.8607 47.9935 24.4089 47.7661 23.0177 47.3209C21.7416 46.9483 20.5579 46.3123 19.5428 45.4539L22.4994 39.6969C23.1325 40.2557 23.8619 40.6947 24.652 40.9926C25.4203 41.2955 26.238 41.4537 27.0638 41.4593C28.0278 41.5028 28.9782 41.2195 29.7612 40.6554C30.5897 39.9286 31.2302 39.0123 31.6281 37.9845L31.7312 37.7254L19.6474 9.61761H27.9973L35.8274 28.5465L43.712 9.61761H51.4891Z" fill="#0070BF"/>
<path d="M56.0977 34.8749C53.8346 33.7139 51.9399 31.9452 50.6263 29.7672C49.3352 27.509 48.656 24.9528 48.656 22.3515C48.656 19.7503 49.3352 17.1941 50.6263 14.9359C51.9404 12.7582 53.8349 10.9896 56.0977 9.82818C58.5535 8.61693 61.2551 7.98694 63.9934 7.98694C66.7316 7.98694 69.4332 8.61693 71.889 9.82818C74.1416 10.9952 76.0272 12.7631 77.3368 14.9359C78.628 17.1941 79.3071 19.7503 79.3071 22.3515C79.3071 24.9528 78.628 27.509 77.3368 29.7672C76.0276 31.9403 74.1419 33.7083 71.889 34.8749C69.4332 36.0861 66.7316 36.7161 63.9934 36.7161C61.2551 36.7161 58.5535 36.0861 56.0977 34.8749ZM69.1136 27.9782C70.4054 26.3875 71.1105 24.4007 71.1105 22.3515C71.1105 20.3023 70.4054 18.3156 69.1136 16.7248C68.459 16.0336 67.6653 15.4889 66.7849 15.1267C65.9045 14.7646 64.9574 14.5931 64.0059 14.6237C63.0507 14.5949 62.1 14.767 61.2156 15.1289C60.3311 15.4909 59.5326 16.0346 58.8717 16.7248C57.5636 18.3082 56.848 20.2977 56.848 22.3515C56.848 24.4053 57.5636 26.3949 58.8717 27.9782C59.5327 28.6683 60.3313 29.2118 61.2157 29.5735C62.1002 29.9352 63.0508 30.107 64.0059 30.0778C64.9573 30.1086 65.9044 29.9374 66.7848 29.5755C67.6652 29.2136 68.4589 28.6692 69.1136 27.9782Z" fill="#0070BF"/>
<path d="M106.383 11.0989C108.51 13.173 109.573 16.2498 109.572 20.3292V36.3016H101.481V21.5778C101.619 19.8049 101.102 18.0429 100.029 16.6247C99.491 16.0621 98.836 15.6243 98.1102 15.3422C97.3844 15.06 96.6056 14.9405 95.8286 14.9919C94.9288 14.949 94.03 15.0953 93.1903 15.4215C92.3505 15.7476 91.5885 16.2463 90.9536 16.8853C89.6376 18.4525 88.9865 20.4721 89.1396 22.5128V36.3075H81.0415V8.40145H88.7686V11.6687C89.8754 10.4695 91.241 9.53843 92.7617 8.94625C94.4295 8.29245 96.2077 7.96649 97.9989 7.98625C99.5335 7.91803 101.066 8.15836 102.506 8.69301C103.946 9.22765 105.264 10.0457 106.383 11.0989Z" fill="#0070BF"/>
<path d="M116.352 35.8614C114.484 35.4344 112.697 34.7074 111.062 33.7087L113.756 27.8943C115.158 28.7583 116.677 29.4136 118.268 29.8393C119.953 30.3291 121.698 30.5819 123.453 30.5902C126.876 30.5902 128.588 29.7431 128.588 28.0489C128.578 27.6486 128.435 27.2629 128.181 26.953C127.928 26.6431 127.578 26.4267 127.187 26.338C125.788 25.8927 124.345 25.5965 122.884 25.4545C120.974 25.189 119.085 24.7905 117.231 24.2619C115.756 23.8204 114.423 22.9976 113.368 21.8767C112.205 20.5289 111.618 18.7779 111.735 17.0016C111.711 15.3112 112.249 13.6608 113.265 12.3091C114.422 10.8469 115.971 9.74347 117.732 9.12731C119.948 8.32218 122.295 7.93526 124.652 7.9862C126.633 7.98744 128.608 8.20519 130.542 8.63553C132.242 8.97313 133.878 9.57686 135.39 10.4245L132.693 16.1815C130.241 14.7994 127.469 14.0841 124.655 14.1069C123.319 14.0268 121.984 14.2761 120.766 14.8328C120.396 14.9901 120.078 15.2488 119.848 15.5791C119.619 15.9095 119.487 16.2979 119.469 16.6998C119.465 17.1156 119.601 17.5207 119.855 17.8499C120.109 18.1792 120.466 18.4135 120.869 18.5152C122.323 18.9798 123.816 19.3095 125.329 19.5002C127.217 19.7937 129.085 20.2003 130.924 20.7179C132.375 21.1488 133.683 21.9626 134.71 23.0737C135.846 24.3943 136.422 26.1055 136.318 27.8442C136.337 29.5144 135.789 31.1416 134.761 32.4587C133.575 33.9121 132.002 35 130.223 35.5963C127.949 36.3861 125.552 36.7636 123.144 36.7109C120.853 36.7162 118.571 36.4307 116.352 35.8614Z" fill="#0070BF"/>
<path d="M169.493 7.83306C170.269 8.15671 170.928 8.70985 171.38 9.41829C171.833 10.1267 172.058 10.9566 172.026 11.7967C172.045 12.641 171.816 13.4723 171.368 14.1879C170.912 14.8843 170.26 15.4292 169.493 15.753C168.585 16.1334 167.607 16.3181 166.622 16.2949H164.119V19.7255H161.239V7.2824H166.625C167.61 7.25982 168.587 7.44755 169.493 7.83306ZM168.436 13.3884C168.664 13.1928 168.843 12.9475 168.96 12.6714C169.077 12.3954 169.129 12.0961 169.112 11.7967C169.13 11.4946 169.079 11.1924 168.962 10.9133C168.844 10.6343 168.665 10.3859 168.436 10.1874C167.864 9.77702 167.166 9.57918 166.463 9.62791H164.118V13.9479H166.463C167.164 13.9951 167.858 13.7973 168.429 13.3884H168.436Z" fill="#E13505"/>
<path d="M174.07 7.28235H176.95V17.3799H183.188V19.7255H174.07V7.28235Z" fill="#E13505"/>
<path d="M186.024 18.4636C185.505 17.8982 185.105 17.2334 184.85 16.5094C184.595 15.7853 184.489 15.0171 184.54 14.2511V7.28235H187.42V14.1437C187.42 16.3719 188.344 17.4859 190.194 17.4859C190.576 17.5112 190.958 17.4518 191.315 17.3118C191.671 17.1718 191.992 16.9547 192.255 16.6762C192.788 15.9448 193.041 15.0458 192.966 14.1437V7.28235H195.811V14.2511C195.772 15.3672 195.418 16.4494 194.788 17.3716C194.158 18.2938 193.279 19.0178 192.253 19.4594C191.228 19.901 190.097 20.0418 188.995 19.8655C187.892 19.6892 186.861 19.203 186.024 18.4636Z" fill="#E13505"/>
<path d="M209.976 19.7255L209.959 12.2591L206.297 18.4092H205.003L201.359 12.4181V19.7241H198.657V7.28094H201.038L205.695 15.0139L210.281 7.28094H212.646L212.681 19.7241L209.976 19.7255Z" fill="#E13505"/>
<path d="M226.439 14.3837C226.853 14.9466 227.065 15.6321 227.043 16.3302C227.065 16.8232 226.959 17.3135 226.737 17.7539C226.514 18.1943 226.182 18.5701 225.772 18.845C224.653 19.5033 223.362 19.811 222.066 19.7285H215.63V7.28536H221.71C222.937 7.20822 224.157 7.5127 225.204 8.157C225.59 8.41652 225.904 8.76941 226.117 9.18283C226.329 9.59626 226.434 10.0568 226.421 10.5217C226.433 11.0874 226.284 11.6449 225.992 12.1294C225.699 12.6139 225.275 13.0055 224.769 13.2588C225.43 13.4497 226.014 13.8432 226.439 14.3837ZM218.488 9.45122V12.3842H221.351C221.915 12.4212 222.478 12.2917 222.97 12.0117C223.15 11.8916 223.295 11.7269 223.391 11.5338C223.488 11.3408 223.532 11.1259 223.521 10.9104C223.533 10.6957 223.489 10.4816 223.392 10.2895C223.296 10.0974 223.15 9.93426 222.97 9.81637C222.476 9.54235 221.914 9.41611 221.351 9.4527L218.488 9.45122ZM223.564 17.1842C223.754 17.0602 223.908 16.8877 224.009 16.6846C224.11 16.4814 224.156 16.2549 224.141 16.0284C224.141 14.9977 223.377 14.4824 221.848 14.4824H218.488V17.5567H221.848C222.445 17.5962 223.041 17.4671 223.568 17.1842H223.564Z" fill="#E13505"/>
<path d="M229.229 7.28235H232.109V19.7255H229.229V7.28235Z" fill="#E13505"/>
<path d="M246.471 7.28238V19.7255H244.106L237.903 12.1648V19.7196H235.059V7.27649H237.441L243.625 14.8313V7.27649L246.471 7.28238Z" fill="#E13505"/>
<path d="M257.83 13.3088H260.462V18.3561C259.755 18.8839 258.96 19.2826 258.115 19.534C257.245 19.8033 256.34 19.9408 255.43 19.9419C254.218 19.9614 253.021 19.6774 251.947 19.1159C250.942 18.5897 250.103 17.7964 249.52 16.8234C248.944 15.8142 248.642 14.6724 248.642 13.5105C248.642 12.3486 248.944 11.2068 249.52 10.1977C250.106 9.2211 250.952 8.4272 251.964 7.90515C253.051 7.34374 254.26 7.05999 255.483 7.07916C256.5 7.06545 257.508 7.25258 258.452 7.62982C259.314 7.97893 260.082 8.52741 260.691 9.23031L258.842 10.9368C258.436 10.488 257.939 10.1307 257.384 9.88856C256.83 9.64639 256.23 9.52491 255.625 9.53215C254.889 9.51846 254.162 9.68957 253.51 10.0298C252.906 10.3501 252.406 10.8377 252.07 11.4345C251.732 12.0722 251.555 12.7833 251.555 13.5054C251.555 14.2274 251.732 14.9385 252.07 15.5763C252.405 16.1724 252.901 16.6622 253.502 16.9897C254.143 17.3352 254.863 17.5097 255.591 17.4963C256.37 17.5082 257.14 17.325 257.83 16.9633V13.3088Z" fill="#E13505"/>
<path d="M170.799 37.4308L169.306 36.0453C168.12 36.9699 166.651 37.459 165.147 37.4308C164.314 37.4415 163.487 37.2915 162.712 36.9891C162.048 36.7412 161.462 36.3209 161.014 35.7715C160.611 35.271 160.395 34.6468 160.4 34.0046C160.388 33.2735 160.616 32.5586 161.049 31.9698C161.62 31.2691 162.332 30.6967 163.139 30.2898C162.743 29.9038 162.413 29.4563 162.161 28.9646C161.963 28.5578 161.86 28.1112 161.859 27.6586C161.849 27.0882 162.017 26.5287 162.339 26.0581C162.682 25.5783 163.154 25.2056 163.7 24.9833C164.344 24.717 165.037 24.5867 165.734 24.6005C166.663 24.5537 167.579 24.8266 168.33 25.3735C168.648 25.619 168.902 25.9365 169.072 26.2999C169.242 26.6632 169.323 27.0619 169.308 27.4628C169.315 28.0807 169.112 28.6827 168.731 29.1693C168.216 29.7705 167.583 30.2604 166.873 30.6093L169.149 32.7251C169.437 32.1081 169.646 31.457 169.77 30.7874L171.992 31.4809C171.794 32.4865 171.408 33.4456 170.854 34.3079L172.312 35.6581L170.799 37.4308ZM167.671 34.5332L164.665 31.7253C164.212 31.9612 163.808 32.281 163.474 32.6677C163.241 32.9669 163.116 33.3365 163.119 33.716C163.117 33.9388 163.171 34.1586 163.277 34.3546C163.383 34.5506 163.537 34.7165 163.725 34.8365C164.207 35.1436 164.773 35.2928 165.344 35.2635C166.177 35.2725 166.992 35.0167 167.671 34.5332ZM164.746 26.8179C164.629 26.9186 164.535 27.0444 164.472 27.186C164.409 27.3277 164.379 27.4816 164.383 27.6365C164.382 27.8842 164.45 28.1272 164.579 28.3389C164.797 28.6633 165.053 28.9599 165.343 29.2223C165.805 29.0023 166.231 28.7117 166.605 28.3609C166.827 28.1424 166.955 27.8453 166.961 27.5335C166.966 27.3932 166.94 27.2535 166.885 27.1244C166.83 26.9954 166.746 26.8801 166.641 26.787C166.385 26.5834 166.062 26.4821 165.734 26.5028C165.377 26.4818 165.025 26.5941 164.746 26.8179Z" fill="#E13505"/>
<path d="M190.622 24.7714V37.2144H187.742V32.1126H182.082V37.2144H179.202V24.7714H182.082V29.6773H187.735V24.7714H190.622Z" fill="#E13505"/>
<path d="M203.205 34.9072V37.2174H193.57V24.7714H202.972V27.0815H196.431V29.7833H202.208V32.0228H196.431V34.9028L203.205 34.9072Z" fill="#E13505"/>
<path d="M213.693 34.5509H207.915L206.812 37.2174H203.867L209.405 24.7714H212.25L217.812 37.2144H214.791L213.693 34.5509ZM212.786 32.3644L210.813 27.5998L208.84 32.3644H212.786Z" fill="#E13505"/>
<path d="M221.069 27.1272H217.094V24.7714H227.937V27.1272H223.961V37.2233H221.069V27.1272Z" fill="#E13505"/>
<path d="M229.478 24.7714H232.358V37.2144H229.478V24.7714Z" fill="#E13505"/>
<path d="M246.72 24.7714V37.2144H244.355L238.152 29.6597V37.2144H235.307V24.7714H237.69L243.874 32.3262V24.7714H246.72Z" fill="#E13505"/>
<path d="M258.079 30.7993H260.71V35.8481C260.003 36.3755 259.209 36.7743 258.363 37.026C257.494 37.2952 256.589 37.4327 255.679 37.4338C254.467 37.4532 253.269 37.1692 252.194 36.6078C251.189 36.082 250.35 35.2886 249.768 34.3153C249.192 33.3062 248.889 32.1644 248.889 31.0025C248.889 29.8406 249.192 28.6988 249.768 27.6896C250.353 26.7129 251.2 25.919 252.212 25.3971C253.299 24.8357 254.508 24.5519 255.731 24.5711C256.747 24.5571 257.756 24.7443 258.699 25.1218C259.562 25.4709 260.329 26.0194 260.939 26.7223L259.089 28.4288C258.683 27.98 258.186 27.6227 257.632 27.3805C257.077 27.1384 256.477 27.0169 255.872 27.0241C255.137 27.0104 254.41 27.1815 253.758 27.5218C253.153 27.842 252.653 28.3297 252.318 28.9264C251.979 29.5642 251.802 30.2753 251.802 30.9973C251.802 31.7194 251.979 32.4305 252.318 33.0682C252.653 33.6644 253.149 34.1543 253.749 34.4817C254.39 34.8272 255.11 35.0016 255.838 34.9882C256.618 34.9999 257.388 34.8161 258.078 34.4537L258.079 30.7993Z" fill="#E13505"/>
<path d="M150.005 38.65V6.03821H147.377V38.65H150.005Z" fill="#E13505"/>
</svg>
