<svg xmlns="http://www.w3.org/2000/svg" viewBox="0 0 62.26 47.91"><defs><style>.cls-1{fill:#98c245;fill-rule:evenodd;}.cls-2{fill:#fff;}</style></defs><g id="Layer_2" data-name="Layer 2"><g id="Camada_1" data-name="Camada 1"><path class="cls-1" d="M32.94,32.7,45.07,20.57a1.57,1.57,0,0,0,0-2.2l-1.22-1.21a1.54,1.54,0,0,0-1.75-.32l-9.44,4.33L48.43,3.56,47,2.16,21.29,27.9l.94.94.78.79L40,21.18l-9.33,9.2Z"/><path class="cls-1" d="M15.64,15.48,27.77,3.36a1.55,1.55,0,0,1,2.2,0l1.21,1.22a1.53,1.53,0,0,1,.32,1.74l-4.34,9.45L44.78,0l1.4,1.41L20.43,27.13l-.94-.94-.79-.79L27.15,8.47,18,17.8Z"/><path class="cls-2" d="M7.86,47.79H6l-4.17-6.3v6.3H0v-9.2H1.84L6,44.91V38.59H7.86Z"/><path class="cls-2" d="M16.4,44.7H11.07a1.75,1.75,0,0,0,.55,1.23,1.69,1.69,0,0,0,1.2.45,1.5,1.5,0,0,0,1.46-.88h2a3.3,3.3,0,0,1-1.21,1.73,3.51,3.51,0,0,1-2.19.68A3.81,3.81,0,0,1,11,47.44a3.24,3.24,0,0,1-1.3-1.32,4,4,0,0,1-.47-2,4.08,4.08,0,0,1,.46-2A3.28,3.28,0,0,1,11,40.84a3.83,3.83,0,0,1,1.91-.46,3.82,3.82,0,0,1,1.86.45A3.19,3.19,0,0,1,16,42.1,3.88,3.88,0,0,1,16.45,44,5,5,0,0,1,16.4,44.7Zm-1.86-1.24A1.49,1.49,0,0,0,14,42.32a1.86,1.86,0,0,0-1.23-.43,1.66,1.66,0,0,0-1.15.42,1.81,1.81,0,0,0-.57,1.15Z"/><path class="cls-2" d="M19.94,42v3.53a.73.73,0,0,0,.17.53.88.88,0,0,0,.6.17h.86v1.55H20.41a2,2,0,0,1-2.33-2.26V42h-.87V40.5h.87V38.7h1.86v1.8h1.63V42Z"/><path class="cls-2" d="M24.24,47.44a3.35,3.35,0,0,1-1.32-1.32,4,4,0,0,1-.48-2,3.87,3.87,0,0,1,.49-2,3.43,3.43,0,0,1,1.35-1.32,4.12,4.12,0,0,1,3.82,0,3.34,3.34,0,0,1,1.34,1.32,3.87,3.87,0,0,1,.5,2,3.79,3.79,0,0,1-.51,2,3.48,3.48,0,0,1-1.37,1.32,4,4,0,0,1-1.93.47A3.84,3.84,0,0,1,24.24,47.44Zm2.84-1.38a1.83,1.83,0,0,0,.7-.73A2.43,2.43,0,0,0,28,44.14a2.19,2.19,0,0,0-.54-1.59A1.78,1.78,0,0,0,26.16,42a1.71,1.71,0,0,0-1.32.56,2.18,2.18,0,0,0-.53,1.59,2.23,2.23,0,0,0,.52,1.6,1.67,1.67,0,0,0,1.3.56A2,2,0,0,0,27.08,46.06Z"/><path class="cls-2" d="M32.63,47.57a2.67,2.67,0,0,1-1.09-.89,2.32,2.32,0,0,1-.42-1.26h1a1.84,1.84,0,0,0,.59,1.18,2.12,2.12,0,0,0,1.54.51,2.18,2.18,0,0,0,1.48-.49,1.53,1.53,0,0,0,.54-1.21,1.45,1.45,0,0,0-.3-1,1.86,1.86,0,0,0-.75-.54c-.3-.11-.71-.24-1.24-.38A11.14,11.14,0,0,1,32.5,43a2.33,2.33,0,0,1-.92-.74,2.47,2.47,0,0,1,0-2.62,2.38,2.38,0,0,1,1-.88,3.59,3.59,0,0,1,1.54-.31,3.18,3.18,0,0,1,2.06.62,2.38,2.38,0,0,1,.9,1.61h-1a1.65,1.65,0,0,0-.62-1,2.45,2.45,0,0,0-2.8,0,1.44,1.44,0,0,0-.55,1.2,1.37,1.37,0,0,0,.3.93,1.86,1.86,0,0,0,.75.54,10.53,10.53,0,0,0,1.23.4,12,12,0,0,1,1.45.49,2.34,2.34,0,0,1,.94.75,2.18,2.18,0,0,1,.38,1.34,2.41,2.41,0,0,1-.34,1.22,2.52,2.52,0,0,1-1,.94,3.44,3.44,0,0,1-1.6.35A3.81,3.81,0,0,1,32.63,47.57Z"/><path class="cls-2" d="M45.44,44.55h-6a2.91,2.91,0,0,0,.39,1.4,2.38,2.38,0,0,0,.94.87,2.66,2.66,0,0,0,1.26.3,2.54,2.54,0,0,0,1.51-.44,2,2,0,0,0,.81-1.17h1a3,3,0,0,1-1.12,1.72,3.49,3.49,0,0,1-2.17.67,3.7,3.7,0,0,1-1.82-.46A3.17,3.17,0,0,1,39,46.15a4.43,4.43,0,0,1,0-3.91A3.05,3.05,0,0,1,40.24,41a3.7,3.7,0,0,1,1.83-.45,3.54,3.54,0,0,1,1.8.45,3,3,0,0,1,1.18,1.2,3.38,3.38,0,0,1,.42,1.68A6.45,6.45,0,0,1,45.44,44.55Zm-1.23-2.12a2.16,2.16,0,0,0-.92-.85A2.78,2.78,0,0,0,42,41.29a2.51,2.51,0,0,0-1.75.66,2.61,2.61,0,0,0-.8,1.85h5.05A2.6,2.6,0,0,0,44.21,42.43Z"/><path class="cls-2" d="M52.62,41.27a3.06,3.06,0,0,1,.82,2.31v4.21h-.91V43.68A2.52,2.52,0,0,0,52,41.89a2.11,2.11,0,0,0-1.6-.61,2.16,2.16,0,0,0-1.66.65,2.76,2.76,0,0,0-.62,1.94v3.92h-.92V40.6h.92v1.23a2.35,2.35,0,0,1,1-1,3.06,3.06,0,0,1,1.46-.35A2.87,2.87,0,0,1,52.62,41.27Z"/><path class="cls-2" d="M55.5,42.24A3.23,3.23,0,0,1,56.72,41a3.53,3.53,0,0,1,1.77-.45,3.24,3.24,0,0,1,1.77.47,2.78,2.78,0,0,1,1.08,1.21V40.6h.92v7.19h-.92V46.2a2.87,2.87,0,0,1-1.09,1.21,3.09,3.09,0,0,1-1.77.49,3.41,3.41,0,0,1-1.76-.47,3.13,3.13,0,0,1-1.22-1.3,4.52,4.52,0,0,1,0-3.89Zm5.48.43a2.43,2.43,0,0,0-1-1,2.56,2.56,0,0,0-1.34-.36,2.81,2.81,0,0,0-1.37.34,2.44,2.44,0,0,0-1,1A3.24,3.24,0,0,0,56,44.18a3.31,3.31,0,0,0,.35,1.55,2.47,2.47,0,0,0,1,1,2.61,2.61,0,0,0,1.37.35A2.65,2.65,0,0,0,60,46.74a2.51,2.51,0,0,0,1-1,3.11,3.11,0,0,0,.36-1.52A3.14,3.14,0,0,0,61,42.67Z"/></g></g></svg>