<svg width="50" height="50" viewBox="0 0 50 50" fill="none" xmlns="http://www.w3.org/2000/svg">
<path d="M17.4188 14.5361C16.1819 14.5361 15.3424 14.6565 14.9058 14.7796V22.7301C15.4263 22.8476 16.0616 22.8868 16.9403 22.8868C20.1782 22.8868 22.1763 21.2497 22.1763 18.4904C22.1735 16.0165 20.4552 14.5361 17.4188 14.5361Z" fill="#D1D1D0"/>
<path d="M46.7331 0.599854H3.83221C2.17831 0.599854 0.83783 1.93753 0.83783 3.58584V46.4839C0.83783 48.135 2.17831 49.4755 3.83221 49.4755H46.7331C48.3842 49.4755 49.7247 48.135 49.7247 46.4839V3.58864C49.7247 1.93753 48.3842 0.599854 46.7331 0.599854ZM25.7276 24.7284C23.6539 26.6874 20.5728 27.5661 16.9823 27.5661C16.1792 27.5661 15.4627 27.5269 14.903 27.4458V37.0782H8.8667V10.5037C10.7445 10.1875 13.3807 9.94681 17.0999 9.94681C20.8526 9.94681 23.5336 10.6632 25.3274 12.1044C27.0541 13.4645 28.2099 15.7033 28.2099 18.3395C28.2099 20.9757 27.3283 23.2061 25.7276 24.7284ZM34.8255 37.4756C32.2621 37.4756 29.9869 36.9215 28.5065 36.1183L29.5839 31.7638C30.7033 32.4383 33.0233 33.2386 34.8255 33.2386C36.6585 33.2386 37.4197 32.6006 37.4197 31.5987C37.4197 30.6025 36.8208 30.1239 34.5456 29.3627C30.5102 28.0055 28.9487 25.8059 28.9878 23.4887C28.9878 19.8563 32.1054 17.0914 36.9412 17.0914C39.2191 17.0914 41.2564 17.6147 42.4542 18.2108L41.3768 22.4085C40.498 21.9271 38.8217 21.2919 37.1398 21.2919C35.665 21.2919 34.8283 21.8908 34.8283 22.8898C34.8283 23.8077 35.5811 24.2863 37.9794 25.1286C41.6958 26.4047 43.2573 28.2853 43.2937 31.1566C43.2937 34.7974 40.4113 37.4756 34.8255 37.4756Z" fill="#D1D1D0"/>
</svg>
