<svg width="290" height="97" viewBox="0 0 290 97" fill="none" xmlns="http://www.w3.org/2000/svg">
<g clip-path="url(#clip0_39_3389)">
<path d="M121.611 17.6943V9.24717H114.561V0.869816L103.81 4.29057V9.24717V17.6943V30.6792C103.81 32.3547 104.089 33.8906 104.577 35.0774C105.066 36.334 105.764 37.3811 106.672 38.2189C107.51 39.0566 108.557 39.6849 109.744 40.1038C110.93 40.5226 112.187 40.7321 113.583 40.7321C114.91 40.7321 116.096 40.6623 117.074 40.5925C118.051 40.4528 118.889 40.3132 119.517 40.1038C120.285 39.8943 120.913 39.6849 121.542 39.4057V31.866C120.983 31.9359 120.425 31.9359 120.006 31.9359C119.517 31.9359 119.098 31.9359 118.679 31.9359C117.632 31.9359 116.864 31.866 116.376 31.6566C115.817 31.4472 115.468 31.0981 115.189 30.6094C114.91 30.1208 114.77 29.4226 114.7 28.5849C114.63 27.7472 114.63 26.6302 114.63 25.234V17.6943H121.611Z" fill="white"/>
<path d="M46.9133 12.1792V9.10755H36.0925V40.5925H46.9831V25.8623C47.0529 25.1642 47.1227 24.466 47.3322 23.7679C47.5416 23.0698 47.8906 22.3717 48.3095 21.8132C48.7982 21.2547 49.4963 20.766 50.334 20.3472C51.2416 19.9981 52.3586 19.7887 53.7548 19.7887C54.2435 19.7887 54.7321 19.7887 55.2208 19.8585C55.7095 19.9283 56.268 19.9981 56.8265 20.0679V8.47925C54.6623 8.47925 52.7774 8.8283 51.102 9.45661C49.4963 10.2245 48.1001 11.0623 46.9133 12.1792Z" fill="white"/>
<path d="M69.5322 9.10755H58.6416V40.5925H69.5322V9.10755Z" fill="white"/>
<path d="M69.5322 0.939625H58.6416V7.43208H69.5322V0.939625Z" fill="white"/>
<path d="M99.2019 11.9C98.1547 10.7132 96.7585 9.87547 95.083 9.31698C93.4076 8.75849 91.2434 8.47925 88.8 8.47925C86.6359 8.47925 84.4717 9.10755 82.3076 10.2943V9.10755H71.417V40.5925H82.3076V19.5792C83.5642 18.4623 85.0302 17.9038 86.7755 17.9038C88.5208 17.9038 89.7076 18.3226 90.3359 19.2302C90.9642 20.0679 91.3132 21.4642 91.3132 23.2792V40.5925H102.204V23.2094C102.204 20.5566 101.994 18.3226 101.506 16.4377C101.017 14.6226 100.249 13.0868 99.2019 11.9Z" fill="white"/>
<path d="M32.8811 17.9736C32.0434 15.9491 30.9264 14.2736 29.5302 12.8774C28.134 11.4811 26.4585 10.434 24.5736 9.66604C22.6887 8.89812 20.6641 8.54906 18.5 8.54906C17.2434 8.54906 15.9868 8.68868 14.6604 9.03774C13.4038 9.31698 12.1472 9.73585 10.8906 10.2943V8.47925H0V50.8547L10.8906 47.434V39.266C12.1472 39.8245 13.4038 40.2434 14.6604 40.5226C15.917 40.8019 17.2434 41.0113 18.5 41.0113C20.6641 41.0113 22.6887 40.6623 24.5736 39.8943C26.4585 39.1264 28.134 38.0792 29.5302 36.6132C30.9264 35.217 32.0434 33.4717 32.8811 31.517C33.7189 29.4925 34.1377 27.2585 34.1377 24.8151C34.0679 22.2321 33.7189 19.9981 32.8811 17.9736ZM23.0377 27.6075C22.6887 28.4453 22.2 29.1434 21.6415 29.7717C21.083 30.4 20.3849 30.8887 19.617 31.2377C18.8491 31.5868 18.0113 31.7962 17.1038 31.7962C16.1962 31.7962 15.3585 31.5868 14.5906 31.2377C13.8226 30.8887 13.1245 30.4 12.566 29.7717C12.0075 29.1434 11.5189 28.4453 11.1698 27.6075C10.8208 26.7698 10.6811 25.8623 10.6811 24.9547C10.6811 23.9774 10.8208 23.1396 11.1698 22.3019C11.5189 21.4642 12.0075 20.766 12.566 20.1377C13.1245 19.5094 13.8226 19.0208 14.5906 18.6717C15.3585 18.3226 16.1962 18.1132 17.1038 18.1132C18.0113 18.1132 18.8491 18.3226 19.617 18.6717C20.3849 19.0208 21.083 19.5094 21.6415 20.1377C22.2 20.766 22.6887 21.4642 23.0377 22.3019C23.3868 23.1396 23.5264 23.9774 23.5264 24.9547C23.5264 25.8623 23.3868 26.7698 23.0377 27.6075Z" fill="white"/>
<path d="M139.343 12.1792C140.53 11.0623 141.926 10.1547 143.532 9.45661C145.138 8.7585 147.092 8.40944 149.257 8.40944V19.9981C148.698 19.9283 148.14 19.8585 147.581 19.7887C147.092 19.7189 146.604 19.7189 146.115 19.7189C144.719 19.7189 143.602 19.9283 142.694 20.2774C141.787 20.6962 141.089 21.1151 140.67 21.7434C140.181 22.3019 139.832 23 139.692 23.6981C139.483 24.3962 139.413 25.1642 139.343 25.8623V40.5226H128.383V9.03774H139.343V12.1792Z" fill="#E83A51"/>
<path d="M181.649 27.7472H160.985C161.404 29.0736 162.172 30.2604 163.219 31.3075C164.266 32.2849 165.732 32.8434 167.408 32.8434C168.734 32.8434 169.921 32.4943 171.038 31.7962C172.155 31.0981 173.062 30.1208 173.83 28.934L180.672 34.5189C179.206 36.6132 177.251 38.2189 174.738 39.4057C172.225 40.5924 169.432 41.2208 166.291 41.2208C163.917 41.2208 161.683 40.8019 159.728 39.9642C157.774 39.1264 156.028 37.9396 154.632 36.4736C153.236 35.0075 152.119 33.2623 151.281 31.3075C150.513 29.3528 150.094 27.1887 150.094 24.9547C150.094 22.6509 150.513 20.5566 151.281 18.5321C152.049 16.5774 153.166 14.8321 154.632 13.2962C156.028 11.8302 157.774 10.6434 159.728 9.80566C161.683 8.96792 163.917 8.54906 166.291 8.54906C168.734 8.54906 170.898 8.96792 172.783 9.80566C174.668 10.6434 176.274 11.8302 177.6 13.366C178.927 14.9019 179.974 16.6472 180.602 18.7415C181.3 20.8358 181.649 23.1396 181.649 25.583V27.7472ZM171.387 21.6736C171.387 21.1849 171.317 20.6264 171.247 20.0679C171.108 19.5094 170.898 18.9509 170.549 18.4623C170.2 17.9736 169.642 17.5547 169.013 17.2755C168.385 16.9962 167.478 16.7868 166.361 16.7868C165.034 16.7868 163.917 17.2755 163.01 18.183C162.102 19.1604 161.404 20.2774 160.985 21.6038H171.387V21.6736Z" fill="#E83A51"/>
<path d="M216.904 9.03774V40.5226H205.943V38.8472C204.756 39.5453 203.5 40.1038 202.243 40.5226C200.987 40.9415 199.66 41.1509 198.334 41.1509C195.821 41.1509 193.587 40.6623 191.632 39.7547C189.677 38.7774 188.072 37.5906 186.815 36.0547C185.558 34.5189 184.581 32.7736 183.953 30.8189C183.324 28.8642 182.975 26.8396 182.975 24.8151C182.975 22.7906 183.324 20.766 183.953 18.8113C184.581 16.8566 185.558 15.1113 186.815 13.5755C188.072 12.0396 189.677 10.8528 191.632 9.87547C193.587 8.89812 195.821 8.47925 198.334 8.47925C199.59 8.47925 200.917 8.61887 202.173 8.96793C203.43 9.31698 204.756 9.80566 205.943 10.434V9.10755H216.904V9.03774ZM205.943 19.8585C205.175 19.2302 204.338 18.7415 203.36 18.3925C202.383 18.0434 201.406 17.9038 200.358 17.9038C198.823 17.9038 197.566 18.2528 196.519 18.8811C195.472 19.5792 194.704 20.417 194.215 21.4642C193.726 22.5113 193.447 23.6283 193.447 24.8151C193.447 26.0019 193.726 27.1189 194.215 28.166C194.704 29.2132 195.472 30.0509 196.519 30.7491C197.566 31.4472 198.823 31.7962 200.289 31.7962C201.336 31.7962 202.313 31.6566 203.29 31.3075C204.268 30.9585 205.106 30.4698 205.873 29.8415V19.8585H205.943Z" fill="#E83A51"/>
<path d="M252.787 0.800003V40.5226H241.826V39.4057C240.57 39.9641 239.313 40.383 238.057 40.6623C236.73 40.9415 235.474 41.1509 234.217 41.1509C232.053 41.1509 230.028 40.7321 228.143 39.9641C226.259 39.1962 224.583 38.0792 223.117 36.683C221.721 35.2868 220.534 33.5415 219.766 31.517C218.928 29.4925 218.51 27.2585 218.51 24.7453C218.51 22.2321 218.928 19.9283 219.766 17.9038C220.604 15.8792 221.721 14.134 223.117 12.7377C224.513 11.3415 226.189 10.2245 228.143 9.52642C230.028 8.75849 232.053 8.40944 234.217 8.40944C235.474 8.40944 236.8 8.54906 238.057 8.89812C239.313 9.17736 240.64 9.59623 241.826 10.1547V4.36038L252.787 0.800003ZM236.242 31.7264C237.289 31.7264 238.266 31.5868 239.243 31.2377C240.221 30.8887 241.059 30.4 241.826 29.7717V19.8585C241.059 19.2302 240.221 18.7415 239.243 18.3925C238.266 18.0434 237.289 17.9038 236.242 17.9038C234.147 17.9038 232.472 18.5321 231.215 19.8585C229.889 21.1849 229.26 22.7906 229.26 24.8849C229.26 27.0491 229.889 28.7943 231.215 29.9811C232.472 31.0981 234.147 31.7264 236.242 31.7264Z" fill="#E83A51"/>
<path d="M289.089 9.03774L276.243 42.1981C276.034 42.6868 275.825 43.1057 275.545 43.5943C275.266 44.083 274.987 44.5019 274.708 44.9208C273.381 46.8755 271.636 48.4811 269.332 49.7377C267.098 50.9943 264.236 51.6226 260.815 51.6226C258.651 51.6226 256.836 51.5528 255.44 51.483L256.906 43.6642C257.604 43.734 258.302 43.734 259.07 43.6642C259.768 43.5943 260.536 43.5245 261.304 43.3849C262.281 43.1755 263.189 42.8264 263.817 42.4076C264.515 41.9189 265.074 41.3604 265.493 40.6623L254.113 9.03774H265.493L271.426 27.2585L277.849 9.03774H289.089Z" fill="#E83A51"/>
<path d="M49.7754 55.7415C49.7056 60.4189 45.3075 71.0302 40.2811 72.217C38.2566 72.7057 36.0924 75.0792 35.3943 79.4774C35.1849 81.2925 35.3245 81.8509 34.3471 84.2943C32.7415 88.483 30.2283 86.6679 30.5075 82.6887C30.6471 80.6642 32.2528 73.8925 32.7415 71.7283C33.9283 66.4925 35.0452 61.3264 36.1622 56.0906C36.232 55.8113 36.7905 53.3679 36.9302 52.8792C37.2792 51.9717 37.7679 50.9943 38.6754 51.2038C39.7226 51.6925 39.932 52.6 40.0717 53.4377C40.1415 54.1359 39.5132 56.6491 39.6528 56.9283C39.932 56.7189 41.3283 54.4151 41.4679 54.1359C42.3754 52.7396 43.9113 50.6453 45.5868 50.5057C48.449 50.2962 49.7754 52.8792 49.7754 55.7415ZM45.9358 53.2283C45.3075 51.134 41.8169 57.9057 41.5377 58.534C41.049 59.5811 36.7207 69.9132 38.1169 69.9132C38.466 69.9132 40.2113 69.2151 41.5377 67.5396C42.8641 65.8642 44.6792 61.6057 45.866 57.8358C46.3547 56.0906 46.2151 54.2057 45.9358 53.2283Z" fill="#65C0BC"/>
<path d="M64.0168 72.4264C62.2017 76.0566 54.8716 88.2038 51.73 88.2736C48.5885 88.3434 48.798 84.5038 49.2168 82.4094C49.8451 78.5 50.9621 76.8245 52.4282 73.1245C53.1961 71.3094 52.2885 72.3566 50.6131 71.9377C45.7263 70.5415 47.8904 60.6283 52.0093 60.6283C53.6848 60.6283 55.3602 62.0245 55.2904 63.3509C55.2206 65.3057 54.0338 67.5396 53.0565 68.517C52.498 69.0755 51.73 69.0057 51.73 69.2849C51.7999 70.1924 54.4527 69.4245 54.8716 69.4245C55.4999 69.4245 57.8036 69.4943 57.2451 71.5189C56.8961 72.566 50.4734 85.5509 52.1489 85.4811C54.1036 85.4113 60.1772 74.9396 61.5036 72.9151C63.8772 69.4245 67.0885 66.3528 64.0168 72.4264ZM52.7772 66.9113C54.1734 63.6302 52.9866 61.2566 52.0791 65.3057C51.8697 66.2132 51.381 69.634 52.7772 66.9113Z" fill="#65C0BC"/>
<path d="M72.6734 71.1698C72.0451 72.217 71.4168 72.9849 70.7187 74.0321C69.8111 75.4981 66.1111 81.083 65.0639 81.5717C64.7149 81.7811 64.296 81.8509 64.0168 81.8509C59.2696 81.6415 63.0394 71.3792 64.296 68.5868C64.9243 67.1208 68.2753 67.3302 67.7168 68.5868C66.9488 70.1925 65.7621 74.1717 65.0639 76.1264C64.7847 76.9642 63.947 79.617 64.6451 80.1755C65.0639 80.5245 67.9262 76.4057 68.3451 75.5679C68.9036 74.5906 70.0205 72.9849 70.7187 71.9377C72.2545 69.4245 73.8602 69.2151 72.6734 71.1698ZM65.8319 62.9321L66.1809 62.1642C66.9489 60.6981 68.9036 63.4906 68.8338 63.8396C68.3451 65.7943 64.5753 65.7943 65.8319 62.9321Z" fill="#65C0BC"/>
<path d="M88.8699 70.8906C87.334 72.9849 82.6567 79.5472 79.7944 78.0113C77.6303 76.8943 79.1661 71.0302 79.3755 69.0755C79.4453 68.1679 79.0963 68.866 78.7472 69.3547C77.4208 71.0302 73.7208 77.1038 72.8133 78.7792C71.417 81.4321 69.0435 80.3849 70.3001 76.8943C71.4869 73.5434 72.0453 68.3075 73.0925 64.6774C73.0227 63.9792 75.9548 63.1415 75.7453 65.4453C75.6057 67.1207 74.8378 70.1226 75.117 70.3321C75.1869 70.3321 76.0246 69.1453 76.234 68.9358C77.2114 67.6792 78.7472 65.2358 80.4925 65.3057C84.1925 65.5849 81.4699 74.3811 81.4001 76.3358C81.4001 76.4755 81.4699 76.5453 81.6095 76.5453C82.5869 76.4057 83.2152 75.8472 83.8435 75.2887C85.5189 73.9623 86.8453 71.9377 88.451 70.6811L88.8699 70.4019C89.3586 69.983 89.2189 70.4019 88.8699 70.8906Z" fill="#65C0BC"/>
<path d="M103.181 59.6509C103.181 59.6509 101.785 59.4415 101.506 59.4415C99.9697 59.3019 94.8735 58.534 93.966 60.0698C93.4773 61.117 87.4037 79.1283 90.4056 79.2679C91.8018 79.3377 94.2452 75.2189 94.8037 74.4509C95.1528 73.9623 98.9924 68.3774 99.6905 69.4943C100.04 69.983 96.6886 74.6604 96.1999 75.5679C95.5018 76.8943 94.7339 77.5925 94.0358 78.8491C93.198 80.2453 91.5226 81.3623 90.0565 81.3623C86.1471 81.3623 86.915 75.7075 87.4037 73.4038C87.7528 71.5887 89.2188 64.817 89.9169 62.9321C90.1263 62.3038 90.9641 60.2094 90.3358 59.6509C89.2188 59.0226 82.2377 60.7679 81.2603 61.3264C79.7943 62.234 78.2584 60.1396 80.7716 59.3717C81.749 59.0925 82.7263 58.9528 83.7735 58.7434C85.5188 58.4642 91.383 57.766 91.5226 57.0679C91.5924 56.3 93.198 53.9264 94.6641 53.5075C96.7584 52.9491 94.3848 56.7887 95.0829 57.2774C96.2697 57.9755 100.668 56.7887 103.46 58.0453C104.507 58.534 105.206 59.5113 103.181 59.6509Z" fill="#65C0BC"/>
<path d="M107.579 71.1698C106.951 72.217 106.323 72.9849 105.624 74.0321C104.717 75.4981 101.017 81.083 99.9697 81.5717C99.6206 81.7811 99.2018 81.8509 98.9225 81.8509C94.1754 81.6415 97.9452 71.3792 99.2018 68.5868C99.8301 67.1208 103.181 67.3302 102.623 68.5868C101.855 70.1925 100.668 74.1717 99.9697 76.1264C99.6905 76.9642 98.8527 79.617 99.5508 80.1755C99.9697 80.5245 102.832 76.4057 103.251 75.5679C103.809 74.5906 104.926 72.9849 105.624 71.9377C107.16 69.4245 108.766 69.2151 107.579 71.1698ZM100.738 62.9321L101.087 62.1642C101.855 60.6981 103.809 63.4906 103.74 63.8396C103.251 65.7943 99.5508 65.7943 100.738 62.9321Z" fill="#65C0BC"/>
<path d="M123.845 70.8906C122.309 72.9849 117.632 79.5472 114.77 78.0113C112.606 76.8943 114.141 71.0302 114.351 69.0755C114.421 68.1679 114.072 68.866 113.723 69.3547C112.396 71.0302 108.696 77.1038 107.789 78.7792C106.392 81.4321 104.019 80.3849 105.275 76.8943C106.462 73.5434 107.021 68.3075 108.068 64.6774C107.998 63.9792 110.93 63.1415 110.721 65.4453C110.581 67.1207 109.813 70.1226 110.092 70.3321C110.162 70.3321 111 69.1453 111.209 68.9358C112.187 67.6792 113.723 65.2358 115.468 65.3057C119.168 65.5849 116.445 74.3811 116.375 76.3358C116.375 76.4755 116.445 76.5453 116.585 76.5453C117.562 76.4057 118.19 75.8472 118.819 75.2887C120.494 73.9623 121.821 71.9377 123.426 70.6811L123.845 70.4019C124.264 69.983 124.124 70.4019 123.845 70.8906Z" fill="#65C0BC"/>
<path d="M138.017 70.6811C137.947 70.7509 136.062 72.2868 135.853 72.3566L134.038 73.683C133.828 73.7528 133.828 73.8925 133.689 75.0792C133.479 78.7094 131.455 85.9 129.709 89.3208C128.243 92.1132 125.87 97.1396 122.17 97.0698C119.657 97 118.889 94.8358 119.028 92.5321C119.307 89.0415 122.798 83.4566 124.823 80.5245C126.568 77.9415 127.964 76.6151 130.128 74.4509C132.572 71.9377 131.036 69.983 130.757 70.1226C129.151 71.0302 126.638 78.9189 124.124 78.9189C119.098 78.9887 122.589 64.8868 128.872 64.817C131.524 64.817 133.898 67.3302 133.898 71.7283C133.898 72.3566 135.155 71.3792 135.364 71.2396C135.504 71.1698 137.319 70.0528 137.458 70.0528C138.226 69.634 138.785 70.0528 138.017 70.6811ZM131.106 76.1962H131.036C128.453 76.3358 123.217 87.2264 121.96 90.2283C120.773 93.0906 120.983 94.1377 121.821 94.0679C125.451 93.7887 128.941 84.3641 129.989 81.0132C130.338 79.966 131.245 77.2434 131.106 76.1962ZM129.081 67.6792C129.081 67.4 128.941 67.3302 128.802 67.3302C127.057 67.4 123.915 74.8 124.404 75.5679C125.59 75.2887 128.732 69.1453 129.011 68.0981L129.081 67.6792Z" fill="#65C0BC"/>
<path d="M169.013 76.1962C168.664 80.8038 158.192 85.9 153.794 85.9698C152.189 86.0396 147.162 85.6208 149.396 83.1774C150.513 81.8509 154.073 78.5698 155.819 77.9415C156.447 77.7321 155.958 78.0811 155.609 78.4302C155.19 78.9887 150.304 83.9453 153.864 83.1774C156.377 82.6887 165.453 77.383 164.475 74.9396C163.219 72.0075 151.63 72.4264 152.607 64.817C153.375 56.8585 160.496 50.1566 164.126 50.017C165.802 49.9472 167.826 50.7151 167.896 53.1585C167.966 55.4623 165.383 57.8359 164.755 57.6264C164.685 56.9981 166.849 52.5302 164.964 52.5302C162.172 52.4604 155.679 62.1642 155.749 65.5151C155.819 71.8679 169.432 69.7736 169.013 76.1962Z" fill="#65C0BC"/>
<path d="M200.707 72.4264C198.892 76.0566 191.492 88.2038 188.421 88.2736C185.279 88.3434 185.558 84.5038 185.907 82.4792C186.536 78.5 187.653 76.8245 189.119 73.1245C189.817 71.3094 188.909 72.3566 187.304 71.9377C186.745 71.7981 186.256 71.5189 185.838 71.1698C184.511 72.217 182.905 73.4038 181.719 73.4736C178.368 73.8226 178.926 78.0113 175.855 79.6868C171.736 81.7811 169.641 70.6811 175.087 67.4C175.924 66.8415 176.343 65.7245 176.553 64.7472C177.321 61.6755 182.417 63.7 182.138 66.9811C181.998 69.0057 180.043 71.1 181.928 71.9377C182.556 72.217 183.953 71.3094 185.349 70.4717C183.464 67.2604 185.558 60.7679 188.839 60.7679C190.515 60.7679 192.19 62.1642 192.121 63.4906C192.051 65.4453 190.864 67.6792 189.887 68.6566C189.258 69.2151 188.56 69.1453 188.56 69.4245C188.63 70.3321 191.283 69.5642 191.702 69.5642C192.33 69.5642 194.634 69.634 194.006 71.6585C193.726 72.7057 187.234 85.6906 188.979 85.6208C190.934 85.5509 197.007 75.0792 198.334 73.0547C200.568 69.4245 203.779 66.3528 200.707 72.4264ZM176.413 69.2849C173.411 69.0755 173.551 77.9415 174.738 78.0811C174.807 78.0811 174.947 78.0811 175.017 78.0113C176.762 77.383 179.555 69.4943 176.413 69.2849ZM179.764 66.8415C179.694 66.2132 179.275 65.7943 178.996 65.6547C178.856 65.6547 178.228 66.1434 178.368 67.2604C178.438 68.0981 179.136 69.4943 179.275 69.4943C179.485 69.4245 179.834 67.5396 179.764 66.8415ZM189.468 66.9113C190.794 63.6302 189.677 61.3264 188.77 65.3057C188.56 66.283 188.072 69.634 189.468 66.9113Z" fill="#65C0BC"/>
<path d="M214.739 59.6509C214.739 59.6509 213.343 59.4415 213.064 59.4415C211.528 59.3019 206.432 58.534 205.524 60.0698C205.036 61.117 198.962 79.1283 201.964 79.2679C203.36 79.3377 205.804 75.2189 206.362 74.4509C206.711 73.9623 210.551 68.3774 211.249 69.4943C211.598 69.983 208.247 74.6604 207.758 75.5679C207.06 76.8943 206.292 77.5925 205.594 78.8491C204.756 80.2453 203.081 81.3623 201.615 81.3623C197.705 81.3623 198.473 75.7075 198.892 73.4038C199.241 71.5887 200.707 64.817 201.405 62.9321C201.615 62.3038 202.453 60.2094 201.824 59.6509C200.707 59.0226 193.726 60.7679 192.749 61.3264C191.283 62.234 189.747 60.1396 192.26 59.3717C193.238 59.0925 194.215 58.9528 195.262 58.7434C197.007 58.4642 202.871 57.766 203.011 57.0679C203.081 56.3 204.687 53.9264 206.153 53.5075C208.247 52.9491 205.873 56.7887 206.571 57.2774C207.758 57.9755 212.156 56.7887 214.949 58.0453C216.136 58.534 216.764 59.5113 214.739 59.6509Z" fill="#65C0BC"/>
<path d="M225.281 69.3547L225.211 69.634C223.815 70.9604 222.419 72.7057 221.023 74.1019C219.766 75.2887 218.928 76.1962 217.672 77.5925C216.624 78.8491 213.832 81.7811 212.087 81.8509C209.992 81.9208 208.526 81.5717 207.968 79.1981C207.13 75.8472 210.69 65.6547 215.228 66.283C216.904 66.4925 218.509 67.3302 218.439 69.2151C218.37 70.9604 215.158 72.4264 213.483 72.6358C211.807 72.8453 211.807 73.4736 211.389 75.1491C211.179 75.917 209.643 81.083 211.877 79.966C213.623 79.1283 217.323 75.8472 218.998 74.1019C218.998 73.9623 225.141 68.517 225.281 69.3547ZM214.111 69.9132C215.298 69.4245 216.345 67.6792 214.46 68.517C214.111 68.7962 212.645 70.5415 214.111 69.9132Z" fill="#65C0BC"/>
<path d="M230.168 72.9151C228.632 75.5679 228.213 78.0113 228.283 81.0132C228.422 85.1321 232.122 79.8264 232.89 78.7792C234.775 76.266 236.311 73.5434 238.196 70.9604C241.198 66.8415 239.104 71.3094 238.196 72.7755C237.219 74.3811 236.032 76.1264 235.124 77.8019C234.426 79.1981 233.17 81.7811 232.122 82.8981C229.609 85.4113 226.677 85.6906 225.979 81.5717C225.421 78.6396 225.421 80.3849 223.396 81.4321C222.977 81.6415 222.558 81.7113 222.139 81.7113C216.973 81.5717 221.581 69.0755 225.281 68.9358C226.887 68.866 227.515 70.4019 228.841 65.4453C229.4 63.2113 230.238 60.8377 230.936 58.534C231.424 56.9283 233.938 50.4358 235.683 47.3641C237.917 43.1755 242.175 43.3849 239.802 50.7849C238.266 55.5321 237.289 58.8132 235.124 63.4208C233.519 66.9811 232.053 69.634 230.168 72.9151ZM226.119 70.9604C224.792 70.0528 222.209 78.9189 222.838 79.3377C223.675 78.8491 227.445 71.7981 226.119 70.9604ZM231.564 66.9113C233.1 63.7 233.728 62.3038 234.845 58.9528C235.613 56.3698 236.87 53.0189 237.498 50.4358L237.568 50.2264C237.219 50.5057 236.939 51.0641 236.66 51.483C233.798 56.9283 231.773 63.4906 230.168 69.4245C229.749 70.9604 231.494 66.9811 231.564 66.9113Z" fill="#65C0BC"/>
</g>
<defs>
<clipPath id="clip0_39_3389">
<rect width="289.089" height="96.2" fill="white" transform="translate(0 0.799988)"/>
</clipPath>
</defs>
</svg>
