<svg width="50" height="51" viewBox="0 0 50 51" fill="none" xmlns="http://www.w3.org/2000/svg">
<path d="M24.276 0.660889C14.9059 0.660889 12.9663 5.49951 12.9663 8.3017V13.5863H23.7374V14.6634H7.68164C4.12631 14.6634 0.0408325 17.4656 0.0408325 25.4346C0.0408325 33.4036 4.12631 36.2058 7.68164 36.2058H14.0434V29.7431C14.0434 27.3743 15.983 25.4346 18.3518 25.4346H31.2773C33.1075 25.4346 34.5086 24.0335 34.5086 22.2033V8.3017C34.5086 4.53178 30.9533 0.660889 24.276 0.660889ZM19.429 6.04648C20.6155 6.04648 21.5832 7.01421 21.5832 8.20072C21.5832 9.38723 20.6155 10.355 19.429 10.355C18.2425 10.355 17.2747 9.38723 17.2747 8.20072C17.2747 7.01421 18.2425 6.04648 19.429 6.04648ZM35.5857 14.6634V22.2033C35.5857 24.5721 33.6461 26.5117 31.2773 26.5117H18.3518C16.5216 26.5117 15.1205 27.9128 15.1205 29.7431V42.5675C15.1205 46.3375 18.6758 50.2083 25.3531 50.2083C34.7232 50.2083 36.6629 45.3697 36.6629 42.5675V37.2829H25.8917V36.2058H41.9475C45.5028 36.2058 49.5883 33.4036 49.5883 25.4346C49.5883 17.4656 45.5028 14.6634 41.9475 14.6634H35.5857ZM30.2002 40.5143C31.3867 40.5143 32.3544 41.482 32.3544 42.6685C32.3544 43.855 31.3867 44.8228 30.2002 44.8228C29.0136 44.8228 28.0459 43.855 28.0459 42.6685C28.0459 41.482 29.0136 40.5143 30.2002 40.5143Z" fill="#D9D9D9"/>
</svg>
