<svg width="54" height="54" viewBox="0 0 54 54" fill="none" xmlns="http://www.w3.org/2000/svg">
<path d="M26.634 31.6229C29.2518 31.6229 31.374 29.5007 31.374 26.8829C31.374 24.265 29.2518 22.1428 26.634 22.1428C24.0161 22.1428 21.8939 24.265 21.8939 26.8829C21.8939 29.5007 24.0161 31.6229 26.634 31.6229Z" fill="#D1D1D0"/>
<path d="M26.6341 36.594C40.6811 36.594 52.0684 32.2461 52.0684 26.8827C52.0684 21.5193 40.6811 17.1714 26.6341 17.1714C12.5871 17.1714 1.19971 21.5193 1.19971 26.8827C1.19971 32.2461 12.5871 36.594 26.6341 36.594Z" stroke="#D9D9D9" stroke-width="2.31221"/>
<path d="M18.2239 31.7384C25.2474 43.9034 34.7065 51.5912 39.3513 48.9095C43.9962 46.2278 42.0679 34.1921 35.0444 22.027C28.0209 9.86198 18.5618 2.17419 13.917 4.85589C9.27214 7.5376 11.2004 19.5733 18.2239 31.7384Z" stroke="#D9D9D9" stroke-width="2.31221"/>
<path d="M18.2239 22.0267C11.2004 34.1918 9.27214 46.2274 13.917 48.9091C18.5618 51.5908 28.0209 43.9031 35.0444 31.738C42.0679 19.5729 43.9962 7.53723 39.3513 4.85553C34.7065 2.17383 25.2474 9.86162 18.2239 22.0267Z" stroke="#D9D9D9" stroke-width="2.31221"/>
</svg>
