<svg width="227" height="63" viewBox="0 0 227 63" fill="none" xmlns="http://www.w3.org/2000/svg">
<path d="M13.8999 48.6H14.6001C19.6001 48.6 24.5 48.6 29.5 48.6C29.9 48.6 30.1999 48.8 30.3999 49.1C32.6999 53.3 35.0999 57.4 37.3999 61.6C37.4999 61.9 37.8001 62 38.1001 62C42.0001 62 45.8998 62 49.7998 62C49.8998 62 50.0998 62 50.2998 62L41.7002 46.7L42.2998 46.4C51.7998 41.5 55.4 29.8 50.5 20.4C47.1 14 40.5002 10 33.2002 10C26.9002 10 20.6999 10 14.3999 10C14.1999 10 14.0999 10 13.8999 10V21H14.5C20.7 21 26.9001 21 33.1001 21C33.6001 21 34 21 34.5 21.1C39 21.7 42.2001 25.9 41.6001 30.4C41.0001 34.5 37.4998 37.6 33.2998 37.6C26.9998 37.6 20.6999 37.6 14.3999 37.6H13.7998L13.8999 48.6Z" fill="white"/>
<path d="M11 34.7H11.7002C18.9002 34.7 26.0002 34.7 33.2002 34.7C33.5002 34.7 33.9002 34.7 34.2002 34.6C37.2002 34.3 39.4 31.5 39 28.5C38.7 25.7 36.3 23.6 33.5 23.6H11V10H0V49.5C0 49.7 0 49.8 0 50C0.5 56.8 6.0999 62 12.8999 62C19.4999 62 26.0998 62 32.7998 62C32.9998 62 33.0998 62 33.2998 62C33.1998 61.8 33.1 61.6 33 61.4C31.3 58.1 29.4998 54.8 27.7998 51.5C27.6998 51.2 27.4001 51 27.1001 51C22.5001 51 17.8002 51 13.2002 51C12.1002 51.1 11.2001 50.3 11.1001 49.2C11.1001 49.1 11.1001 49 11.1001 48.8C11.1001 45.1 11.1001 41.5 11.1001 37.8L11 34.7Z" fill="white"/>
<path d="M13.9 48.6V37.6H14.5C20.8 37.6 27.1 37.6 33.4 37.6C38 37.6 41.7 33.9 41.7 29.3C41.7 25.1 38.6 21.6 34.5 21C34.1 20.9 33.6 20.9 33.1 20.9C26.9 20.9 20.7 20.9 14.5 20.9H13.9V9.90003C14.1 9.90003 14.2 9.90003 14.4 9.90003C20.7 9.90003 26.9 9.90003 33.2 9.90003C43.9 9.80003 52.6 18.4 52.7 29C52.8 36.3 48.7 42.9 42.3 46.3L41.7 46.6L50.3 61.9C50.1 61.9 50 61.9 49.8 61.9C45.9 61.9 42 61.9 38.1 61.9C37.8 61.9 37.5 61.8 37.4 61.5C35.1 57.3 32.7 53.2 30.4 49C30.2 48.6 29.9 48.4 29.5 48.5C24.5 48.5 19.6 48.5 14.6 48.5L13.9 48.6Z" fill="#E33D03"/>
<path d="M11 34.7V37.9C11 41.6 11 45.2 11 48.9C10.9 50 11.7 50.9 12.8 51C12.9 51 13 51 13.2 51C17.8 51 22.5 51 27.1 51C27.4 51 27.7 51.2 27.8 51.5C29.5 54.8 31.2 58.1 33 61.4C33.1 61.6 33.2 61.8 33.3 62C33.1 62 33 62 32.8 62C26.2 62 19.6 62 12.9 62C6.09999 62 0.5 56.8 0 50C0 49.8 0 49.7 0 49.5V10H11V23.7H33.5C36.5 23.7 39 26.1 39 29.2C39 32 36.9 34.4 34.1 34.7C33.8 34.7 33.4 34.8 33.1 34.8C25.9 34.8 18.8 34.8 11.6 34.8L11 34.7Z" fill="white"/>
<path d="M72.2998 54.1002C71.4998 54.1002 70.7002 54.0002 70.2002 53.8002C69.7002 53.6002 69.1999 53.3002 68.8999 52.8002C68.5999 52.3002 68.4002 51.9002 68.2002 51.3002C68.1002 50.7002 68 50.1002 68 49.3002C68 48.3002 68.0998 47.5001 68.2998 46.9001C68.4998 46.3001 68.8001 45.7001 69.1001 45.4001C69.5001 45.0001 69.8999 44.8002 70.3999 44.6002C70.8999 44.4002 71.4998 44.4001 72.2998 44.4001C73.1998 44.4001 73.9 44.5001 74.5 44.7001L74.2998 46.6002C73.6998 46.4002 73.2 46.3002 72.5 46.3002C71.7 46.3002 71.0998 46.5001 70.7998 46.9001C70.4998 47.3001 70.2998 48.1001 70.2998 49.2001C70.2998 50.3001 70.4998 51.1002 70.7998 51.5002C71.0998 51.9002 71.7 52.1002 72.5 52.1002C73.2 52.1002 73.7998 52.0002 74.2998 51.8002L74.6001 53.7001C74.0001 54.0001 73.2998 54.1002 72.2998 54.1002Z" fill="white"/>
<path d="M81.8999 54.0001L81.5 51.8001H79.2002L78.7998 54.0001H76.3999L78.6001 44.6001H82.1001L84.2998 54.0001H81.8999ZM79.5 50.0001H81.2002L80.5 46.4001H80.2002L79.5 50.0001Z" fill="white"/>
<path d="M92.7998 44.5002V54.0002H90.7002V48.0002L89.7998 51.6002H88.3999L87.5 47.9001V53.9001H85.3999V44.4001H87.8999L89 49.2001L90.1001 44.4001H92.7998V44.5002Z" fill="white"/>
<path d="M98 44.6001C99.2 44.6001 100 44.9001 100.5 45.4001C101 45.9001 101.2 46.7001 101.2 47.7001C101.2 48.4001 101.1 49.0001 101 49.5001C100.8 50.0001 100.6 50.3001 100.3 50.6001C99.9998 50.9001 99.6998 51.0001 99.2998 51.1001C98.8998 51.2001 98.5 51.2001 98 51.2001H96.8999V54.1001H94.6001V44.7001H98V44.6001ZM97.7998 49.2001C98.4998 49.2001 98.7998 48.7001 98.7998 47.7001C98.7998 46.9001 98.4998 46.4001 97.7998 46.4001H97V49.1001H97.7998V49.2001Z" fill="white"/>
<path d="M106.2 54.1001C105.3 54.1001 104.3 54 103.3 53.9L103.5 52.1001C104.6 52.3001 105.4 52.3 106 52.3C107 52.3 107.6 52 107.6 51.4C107.6 51.2 107.5 51 107.5 50.9C107.4 50.8 107.2 50.6 107 50.5L104.8 49.1001C104.3 48.8001 104 48.5001 103.8 48.1001C103.6 47.7001 103.6 47.3 103.6 46.9C103.6 46 103.9 45.3 104.5 44.9C105.1 44.5 106 44.3 107.3 44.3C108 44.3 108.9 44.4001 109.8 44.6001L109.6 46.4C108.8 46.2 108.1 46.2 107.5 46.2C107 46.2 106.6 46.3 106.3 46.4C106.1 46.5 105.9 46.7 105.9 47C105.9 47.3 106.1 47.5 106.4 47.8L108.5 49.2C109 49.6 109.4 49.9 109.6 50.3C109.8 50.7 109.9 51.1 109.9 51.5C109.9 52.5 109.6 53.2001 109 53.6001C108.4 53.9001 107.4 54.1001 106.2 54.1001Z" fill="white"/>
<path d="M125.3 43.8V56.9H123.2V43.8H125.3Z" fill="white"/>
<path d="M144.1 49.1C144.6 49.3 144.9 49.4999 145.1 49.8999C145.3 50.2999 145.4 50.7999 145.4 51.3999C145.4 52.3999 145.1 53.1 144.6 53.5C144.1 53.9 143.3 54.1 142.2 54.1H138.6V44.7H142C143.2 44.7 144.1 44.9 144.5 45.2C145 45.6 145.2 46.0999 145.2 46.8999C145.2 47.9999 144.8 48.7 144.1 49.1ZM141.8 46.2H141V48.5H141.8C142.3 48.5 142.6 48.4 142.7 48.3C142.9 48.1 142.9 47.7999 142.9 47.3999C142.9 46.9999 142.8 46.7 142.7 46.5C142.5 46.2 142.2 46.2 141.8 46.2ZM141.8 52.3999C142.3 52.3999 142.7 52.3 142.8 52.2C143 52 143.1 51.7 143.1 51.2C143.1 50.7 143 50.4 142.8 50.2C142.6 50 142.3 49.8999 141.8 49.8999H141V52.3999H141.8Z" fill="white"/>
<path d="M152.3 54.0001L151.9 51.8001H149.6L149.2 54.0001H146.8L149 44.6001H152.5L154.7 54.0001H152.3ZM149.9 50.0001H151.6L150.9 46.4001H150.6L149.9 50.0001Z" fill="white"/>
<path d="M159 54.1001C158.1 54.1001 157.1 54 156.1 53.9L156.3 52.1001C157.4 52.3001 158.2 52.3 158.8 52.3C159.8 52.3 160.4 52 160.4 51.4C160.4 51.2 160.4 51 160.3 50.9C160.2 50.8 160 50.6 159.8 50.5L157.6 49.1001C157.1 48.8001 156.8 48.5001 156.6 48.1001C156.4 47.7001 156.4 47.3 156.4 46.9C156.4 46 156.7 45.3 157.3 44.9C157.9 44.5 158.8 44.3 160.1 44.3C160.8 44.3 161.7 44.4001 162.6 44.6001L162.4 46.4C161.6 46.2 160.9 46.2 160.3 46.2C159.8 46.2 159.4 46.3 159.1 46.4C158.9 46.5 158.7 46.7 158.7 47C158.7 47.3 158.9 47.5 159.2 47.8L161.3 49.2C161.8 49.6 162.2 49.9 162.4 50.3C162.6 50.7 162.7 51.1 162.7 51.5C162.7 52.5 162.4 53.2001 161.8 53.6001C161.2 53.9001 160.2 54.1001 159 54.1001Z" fill="white"/>
<path d="M169.6 54.0001L168 50.0001H167.3V54.0001H165V44.6001H167.3V48.2001H168L169.6 44.6001H172L169.7 49.1001L172.2 54.1001H169.6V54.0001Z" fill="white"/>
<path d="M176.2 52.2001H180.4V54.0001H173.9V44.6001H180.3V46.4001H176.3V48.2001H180.1V50.0001H176.3V52.2001H176.2Z" fill="white"/>
<path d="M189.5 44.6001V46.5001H187.1V54.0001H184.8V46.5001H182.4V44.6001H189.5Z" fill="white"/>
<path d="M196.9 49.1C197.4 49.3 197.7 49.4999 197.9 49.8999C198.1 50.2999 198.2 50.7999 198.2 51.3999C198.2 52.3999 197.9 53.1 197.4 53.5C196.9 53.9 196.1 54.1 195 54.1H191.4V44.7H194.8C196 44.7 196.9 44.9 197.3 45.2C197.8 45.6 198 46.0999 198 46.8999C198 47.9999 197.6 48.7 196.9 49.1ZM194.6 46.2H193.8V48.5H194.6C195.1 48.5 195.4 48.4 195.5 48.3C195.7 48.1 195.7 47.7999 195.7 47.3999C195.7 46.9999 195.6 46.7 195.5 46.5C195.3 46.2 195 46.2 194.6 46.2ZM194.6 52.3999C195.1 52.3999 195.5 52.3 195.6 52.2C195.8 52 195.9 51.7 195.9 51.2C195.9 50.7 195.8 50.4 195.6 50.2C195.4 50 195.1 49.8999 194.6 49.8999H193.8V52.3999H194.6Z" fill="white"/>
<path d="M205.1 54.0001L204.7 51.8001H202.4L202 54.0001H199.6L201.8 44.6001H205.3L207.5 54.0001H205.1ZM202.7 50.0001H204.4L203.7 46.4001H203.4L202.7 50.0001Z" fill="white"/>
<path d="M211.4 52.2001H215.8V54.0001H209V44.6001H211.3V52.2001H211.4Z" fill="white"/>
<path d="M220.2 52.2001H224.6V54.0001H217.8V44.6001H220.1V52.2001H220.2Z" fill="white"/>
<path d="M80.2002 33L79.2998 27.9H73.7998L72.7998 33H67.2002L72.2998 11H80.6001L85.7002 33H80.2002ZM74.6001 23.6H78.5L76.8999 15.2H76.1001L74.6001 23.6Z" fill="white"/>
<path d="M101.6 33.3C99.6001 33.3 98.0001 33.1 96.6001 32.6C95.3001 32.1 94.2 31.3999 93.5 30.3999C92.8 29.3999 92.1999 28.1999 91.8999 26.8999C91.5999 25.5999 91.3999 24 91.3999 22.1C91.3999 19.9 91.6 18 92 16.5C92.4 15 93.1 13.8 94 13C94.9 12.2 95.9001 11.6 97.1001 11.2C98.3001 10.8 99.6999 10.7 101.4 10.7C103.5 10.7 105.2 10.8999 106.5 11.3999L106.1 15.8C104.8 15.4 103.4 15.2 102 15.2C100.1 15.2 98.7 15.7 98 16.6C97.3 17.5 96.8999 19.4 96.8999 22.1C96.8999 24.8 97.3001 26.6 98.1001 27.5C98.9001 28.5 100.2 28.8999 102.1 28.8999C103.7 28.8999 105.1 28.7 106.2 28.2L106.9 32.5C105.6 33 103.8 33.3 101.6 33.3Z" fill="white"/>
<path d="M126.7 33L125.8 27.9H120.3L119.3 33H113.7L118.8 11H127.1L132.2 33H126.7ZM121 23.6H124.9L123.3 15.2H122.5L121 23.6Z" fill="white"/>
<path d="M146.6 11C149.5 11 151.6 11.9 152.7 13.7C153.9 15.5 154.5 18.3 154.5 22C154.5 26 153.8 28.9 152.5 30.5C151.2 32.2 149.2 33 146.6 33H138.6V11H146.6ZM146.1 28.7C147.2 28.7 148 28.2 148.4 27.3C148.8 26.4 149 24.6 149 22C149 19.4 148.8 17.6 148.4 16.7C148 15.8 147.2 15.3 146.1 15.3H144.1V28.7H146.1Z" fill="white"/>
<path d="M167.3 28.8H177.1V33H161.8V11H176.6V15.2H167.2V19.5H176V23.7H167.2V28.8H167.3Z" fill="white"/>
<path d="M201.2 10.8999V32.9999H196.4V19.0999L194.3 27.5999H191.1L189 19.0999V33.0999H184.2V10.9999H190L192.7 22.0999L195.4 10.9999H201.2V10.8999Z" fill="white"/>
<path d="M225.2 11L218.5 25.5V33.1H213V25.4L206.4 11.1H212.1L215.5 20.4H216L219.5 11.1H225.2V11Z" fill="white"/>
</svg>
