<svg width="106" height="106" viewBox="0 0 106 106" fill="none" xmlns="http://www.w3.org/2000/svg">
<path d="M65.1058 71.2869C63.9686 71.2869 63.0455 72.21 63.0455 73.3472C63.0455 74.4844 63.9686 75.4075 65.1058 75.4075C66.243 75.4075 67.1661 74.4844 67.1661 73.3472C67.1661 72.21 66.243 71.2869 65.1058 71.2869Z" fill="white"/>
<path d="M95.1863 0H10.3016C4.62121 0 0 4.62121 0 10.3016V73.347C0 79.0274 4.62121 83.6486 10.3016 83.6486H42.4424V93.126H40.3821C37.6312 93.126 35.0454 94.198 33.0986 96.1441C31.1525 98.0909 30.0805 100.677 30.0805 103.428C30.0805 104.566 31.0028 105.488 32.1408 105.488H73.347C74.485 105.488 75.4074 104.566 75.4074 103.428C75.4074 97.7472 70.7861 93.126 65.1058 93.126H63.0455V83.6486H95.1863C100.867 83.6486 105.488 79.0274 105.488 73.347V10.3016C105.488 4.62121 100.867 0 95.1863 0ZM10.3016 4.12062H95.1863C98.5947 4.12062 101.367 6.89319 101.367 10.3016V63.0455H91.8898V15.6584C91.8898 14.5204 90.9675 13.598 89.8295 13.598H73.347C72.209 13.598 71.2867 14.5204 71.2867 15.6584V63.0455H60.9739C60.9522 60.9144 60.8967 58.8138 60.8081 56.776C60.4476 48.3851 59.6259 42.7643 59.1985 40.2919C63.4495 37.162 64.61 31.361 62.0113 26.8541L54.8702 14.4858C54.5016 13.8483 53.8216 13.4556 53.086 13.4556C52.3496 13.4556 51.6695 13.8483 51.3017 14.4858L44.1574 26.8549C41.7076 31.1042 42.576 36.6083 46.4246 39.8565C45.9787 42.3217 45.0789 48.1437 44.6878 56.772C44.5953 58.8315 44.5365 60.9337 44.514 63.0455H34.2011V32.1408C34.2011 31.8141 34.1239 31.5163 33.9975 31.2515C33.9919 31.2411 33.9887 31.2298 33.9839 31.2193L25.7426 14.7369C25.3933 14.0391 24.6803 13.598 23.8996 13.598C23.1189 13.598 22.4059 14.0391 22.0566 14.7369L13.8153 31.2193C13.8105 31.2298 13.8073 31.2411 13.8025 31.2515C13.6737 31.5187 13.598 31.8213 13.598 32.1408V63.0455H4.12062V10.3016C4.12062 6.89319 6.89319 4.12062 10.3016 4.12062ZM75.4074 63.0455V17.7187H87.7692V21.8393H85.7089C84.5709 21.8393 83.6486 22.7616 83.6486 23.8996C83.6486 25.0376 84.5709 25.9599 85.7089 25.9599H87.7692V32.1408H85.7089C84.5709 32.1408 83.6486 33.0632 83.6486 34.2011C83.6486 35.3391 84.5709 36.2615 85.7089 36.2615H87.7692V42.4424H85.7089C84.5709 42.4424 83.6486 43.3647 83.6486 44.5027C83.6486 45.6407 84.5709 46.563 85.7089 46.563H87.7692V54.8043H85.7089C84.5709 54.8043 83.6486 55.7266 83.6486 56.8646C83.6486 58.0026 84.5709 58.9249 85.7089 58.9249H87.7692V63.0455H75.4074ZM53.086 42.2999C53.8345 42.2999 54.5797 42.2138 55.3089 42.0529C55.6912 44.5035 56.2529 48.8398 56.5853 54.8043H48.9163C49.2648 48.8438 49.8531 44.4399 50.2595 41.9064C51.1721 42.1663 52.1226 42.2999 53.086 42.2999ZM53.086 38.1793C48.377 38.1793 45.3405 33.0543 47.7268 28.9144L53.086 19.6365L58.442 28.9136C60.8194 33.0366 57.8247 38.1793 53.086 38.1793ZM48.7271 58.9249H56.7664C56.8098 60.2786 56.8396 61.6556 56.8541 63.0455H48.6346C48.6499 61.6644 48.6813 60.2874 48.7271 58.9249ZM25.9599 63.0455V34.2011H30.0805V63.0455H25.9599ZM17.7187 63.0455V34.2011H21.8393V63.0455H17.7187ZM18.9919 30.0805L23.8996 20.2651L28.8073 30.0805H18.9919ZM70.9334 101.367H34.552C34.8547 100.509 35.3488 99.7214 36.012 99.0575C37.1806 97.8897 38.7322 97.2466 40.3821 97.2466H65.1058C67.7923 97.2466 70.0835 98.9689 70.9334 101.367ZM58.9249 93.126H46.563V83.6486H58.9249V93.126ZM95.1863 79.528H10.3016C6.89319 79.528 4.12062 76.7554 4.12062 73.347V67.1661H101.367V73.347C101.367 76.7554 98.5947 79.528 95.1863 79.528Z" fill="white"/>
<path d="M56.8645 71.2869H44.5027C43.3647 71.2869 42.4424 72.2092 42.4424 73.3472C42.4424 74.4852 43.3647 75.4075 44.5027 75.4075H56.8645C58.0025 75.4075 58.9249 74.4852 58.9249 73.3472C58.9249 72.2092 58.0025 71.2869 56.8645 71.2869Z" fill="white"/>
</svg>
