<svg width="51" height="51" viewBox="0 0 51 51" fill="none" xmlns="http://www.w3.org/2000/svg">
<path d="M41.473 0.000244181H10.0931C8.85678 0.000130035 7.63256 0.243556 6.49034 0.716621C5.34812 1.18969 4.31028 1.88312 3.43608 2.75733C2.56188 3.63154 1.86845 4.66939 1.39539 5.81162C0.922326 6.95385 0.678902 8.17808 0.679016 9.4144V40.7946C0.678902 42.0309 0.922326 43.2552 1.39539 44.3974C1.86845 45.5396 2.56188 46.5775 3.43608 47.4517C4.31028 48.3259 5.34812 49.0193 6.49034 49.4924C7.63256 49.9655 8.85678 50.2089 10.0931 50.2088H41.473C42.7093 50.2089 43.9336 49.9655 45.0758 49.4924C46.218 49.0193 47.2558 48.3259 48.13 47.4517C49.0042 46.5775 49.6977 45.5396 50.1707 44.3974C50.6438 43.2552 50.8872 42.0309 50.8871 40.7946V9.4144C50.8872 8.17808 50.6438 6.95385 50.1707 5.81162C49.6977 4.66939 49.0042 3.63154 48.13 2.75733C47.2558 1.88312 46.218 1.18969 45.0758 0.716621C43.9336 0.243556 42.7093 0.000130035 41.473 0.000244181ZM6.45304 25.1045C6.45182 22.4601 7.02344 19.8469 8.12858 17.4446L17.348 42.0495C14.1114 40.5499 11.3682 38.1602 9.43902 35.1597C7.50982 32.1592 6.47417 28.6717 6.45304 25.1045ZM25.7831 43.9315C23.9362 43.9325 22.0983 43.675 20.3228 43.1667L26.3732 27.3606L32.0655 42.6049L32.2037 42.8656C30.1373 43.5742 27.9675 43.9344 25.7831 43.9315ZM28.4454 16.2774C29.6065 16.2179 30.6546 16.0984 30.6546 16.0984C30.7578 16.0922 30.8588 16.0656 30.9516 16.02C31.0445 15.9744 31.1273 15.9108 31.1953 15.8328C31.2633 15.7549 31.3151 15.6642 31.3477 15.5661C31.3802 15.4679 31.3929 15.3642 31.385 15.2611C31.3771 15.158 31.3488 15.0575 31.3016 14.9654C31.2545 14.8734 31.1895 14.7916 31.1104 14.725C31.0313 14.6583 30.9397 14.608 30.841 14.5771C30.7423 14.5462 30.6385 14.5353 30.5355 14.5449C30.5355 14.5449 27.4039 14.7835 25.3798 14.7835C23.4814 14.7835 20.2902 14.5449 20.2902 14.5449C19.2517 14.4884 19.1291 16.0384 20.1676 16.0984C20.1676 16.0984 21.1532 16.2174 22.1947 16.2722L25.2073 24.311L20.5861 36.6748L13.9378 16.2778C15.1019 16.2183 16.15 16.0988 16.15 16.0988C16.252 16.0908 16.3514 16.0627 16.4426 16.0162C16.5337 15.9698 16.6148 15.9058 16.6813 15.828C16.7477 15.7502 16.7982 15.66 16.8298 15.5627C16.8614 15.4654 16.8735 15.3628 16.8654 15.2608C16.8574 15.1588 16.8293 15.0594 16.7829 14.9682C16.7364 14.8771 16.6724 14.796 16.5946 14.7295C16.5168 14.6631 16.4267 14.6126 16.3294 14.581C16.232 14.5494 16.1294 14.5373 16.0274 14.5454C16.0274 14.5454 12.8958 14.7839 10.8748 14.7839L9.63205 14.7622C11.2122 12.4743 13.2598 10.5477 15.6396 9.10965C18.0194 7.67163 20.6773 6.75492 23.4376 6.42008C26.1979 6.08524 28.9978 6.33989 31.6524 7.16721C34.307 7.99453 36.7558 9.37569 38.8372 11.2194L38.586 11.2038C37.7125 11.2174 36.8801 11.5769 36.2713 12.2034C35.6625 12.8299 35.327 13.6723 35.3384 14.5458C35.3384 16.0992 36.2578 17.4107 37.2368 18.9641C37.9681 20.2195 38.4922 20.913 38.4922 23.2382C38.4922 24.846 37.8617 26.7244 37.0235 29.326L35.0937 35.5946L28.4454 16.2774ZM35.4983 41.3782L41.4079 24.756C42.343 22.6291 42.8409 20.3357 42.8718 18.0125C42.8737 17.3648 42.8302 16.7178 42.7414 16.0762C44.2995 18.831 45.1169 21.9427 45.114 25.1075C45.0966 28.4284 44.1971 31.685 42.5075 34.5439C40.818 37.4028 38.399 39.7614 35.4983 41.3782Z" fill="#D1D1D0"/>
</svg>
